<?xml version="1.0" encoding="utf-8"?>
<!-- Generator: Adobe Illustrator 16.0.1, SVG Export Plug-In . SVG Version: 6.00 Build 0)  -->
<!DOCTYPE svg PUBLIC "-//W3C//DTD SVG 1.1//EN" "http://www.w3.org/Graphics/SVG/1.1/DTD/svg11.dtd">
<svg version="1.1" id="Layer_1" xmlns="http://www.w3.org/2000/svg" xmlns:xlink="http://www.w3.org/1999/xlink" x="0px" y="0px"
	 width="317px" height="78px" viewBox="0 0 317 78" enable-background="new 0 0 317 78" xml:space="preserve">
<rect x="1" y="1" fill="#83B557" stroke="#FFFFFF" stroke-width="2" stroke-miterlimit="10" width="315" height="76"/>
<g>
	<path fill="#FFFFFF" d="M55.427,53.933l0.244-6.234h2.612v1.904c0.602,0.635,1.701,1.237,3.296,1.807
		c1.432,0.505,2.921,0.757,4.468,0.757c0.179,0,0.358,0,0.537,0c1.725-0.064,2.889-0.635,3.491-1.709
		c0.309-0.699,0.464-1.326,0.464-1.88c0-0.813-0.334-1.48-1.001-2.002c-1.14-0.846-3.442-1.668-6.909-2.466
		c-1.726-0.406-3.105-1.128-4.138-2.164c-1.034-1.036-1.616-2.108-1.746-3.218c-0.017-0.131-0.017-0.27,0-0.416
		c0-0.979,0.374-1.917,1.123-2.814c0.862-1.027,2.148-1.77,3.857-2.227c1.334-0.261,2.596-0.392,3.784-0.392
		c1.188,0,2.287,0.077,3.296,0.231c1.009,0.155,1.701,0.232,2.075,0.232v-1.904l2.246,0.146l-0.244,6.226l-2.002,0.952v-2.002
		c-0.472-0.537-1.742-0.862-3.809-0.977c-0.277-0.016-0.545-0.024-0.806-0.024c-1.726,0-3.239,0.334-4.541,1.001
		c-0.863,0.326-1.359,0.798-1.489,1.416c-0.017,0.114-0.033,0.229-0.049,0.342c0,0.505,0.252,1.01,0.757,1.514
		c0.618,0.619,1.53,1.074,2.734,1.367c5.468,0.961,8.722,2.743,9.762,5.347c0.219,0.635,0.374,1.303,0.465,2.002
		c0.018,0.163,0.027,0.334,0.027,0.513c0,0.551-0.082,1.127-0.245,1.726c-0.212,0.794-0.571,1.491-1.076,2.091
		c-0.505,0.6-1.304,1.078-2.396,1.435c-0.783,0.259-1.687,0.38-2.714,0.364c-0.392,0-0.791-0.017-1.198-0.049
		c-3.603-0.258-6.276-0.854-8.021-1.79v1.79L55.427,53.933z"/>
	<path fill="#FFFFFF" d="M75.472,35.589v-2.71l4.614-0.854v-6.982l3.394-2.954v9.937l6.177-0.854l1.001,2.759l-7.178,0.659v8.91
		c0,1.022,0.041,1.895,0.123,2.617c0.082,0.722,0.241,1.473,0.479,2.251c0.237,0.779,0.622,1.429,1.154,1.948
		c0.532,0.52,1.215,0.876,2.05,1.07c0.458,0.098,0.884,0.146,1.277,0.146c0.229,0,0.45-0.016,0.663-0.049
		c0.556-0.097,1.035-0.288,1.436-0.571c0.401-0.284,0.737-0.584,1.007-0.9c0.27-0.317,0.47-0.589,0.602-0.816l0.154-0.364l2.8,0.948
		c-0.034,0.132-0.083,0.316-0.15,0.555c-0.067,0.237-0.255,0.66-0.563,1.268c-0.309,0.607-0.677,1.145-1.103,1.612
		c-0.426,0.468-1.053,0.887-1.88,1.256c-0.827,0.369-1.75,0.554-2.769,0.554c-2.599,0-4.604-0.732-6.017-2.197
		c-1.413-1.465-2.298-3.694-2.655-6.689c-0.098-0.765-0.151-1.741-0.159-2.93c-0.008-1.188,0.016-2.563,0.073-4.126
		c0.057-1.562,0.085-2.726,0.085-3.491H75.472z"/>
	<path fill="#FFFFFF" d="M97.686,50.834c-0.632-1.158-0.948-2.31-0.948-3.452c0-1.511,0.495-3.021,1.485-4.532
		c1.071-1.712,2.759-2.912,5.063-3.601c1.736-0.503,3.367-0.755,4.893-0.755c0.521,0,1.027,0.033,1.517,0.101
		c1.973,0.217,3.269,0.652,3.888,1.305c-0.196-1.017-0.526-1.853-0.991-2.506c-0.464-0.654-0.982-1.077-1.553-1.271
		c-0.571-0.193-1.19-0.331-1.859-0.412c-0.31-0.032-0.611-0.057-0.905-0.072c-0.359,0-0.709,0.032-1.052,0.096
		c-1.81,0.095-3.742,0.872-5.796,2.332l-3.225-0.738c0.098-0.129,0.228-0.289,0.391-0.482c0.162-0.193,0.544-0.54,1.146-1.04
		s1.252-0.946,1.952-1.342c0.699-0.395,1.613-0.749,2.743-1.063s2.329-0.472,3.597-0.472c3.145,0,5.418,0.754,6.819,2.262
		c1.401,1.509,2.102,3.505,2.102,5.99l-0.22,10.539l2.808,0.252l0.903,2.45l-7.104,0.26v-3.34c0,0.3-0.192,0.667-0.575,1.102
		c-0.383,0.436-0.917,0.869-1.602,1.305c-0.685,0.435-1.582,0.779-2.69,1.034c-0.913,0.21-1.875,0.314-2.886,0.314
		c-0.227,0-0.462-0.008-0.705-0.023C101.495,54.85,99.096,53.438,97.686,50.834z M99.839,47.86c0,1.18,0.505,2.188,1.516,3.026
		c1.011,0.854,2.405,1.288,4.183,1.304c2.168,0,4.076-0.854,5.723-2.563c1.467-1.514,2.209-3.003,2.226-4.468
		c0-0.179-0.017-0.357-0.049-0.537c-0.098-0.862-0.571-1.595-1.418-2.197c-0.848-0.602-1.851-0.984-3.008-1.147
		c-0.31-0.049-0.62-0.073-0.93-0.073c-0.896,0-1.875,0.185-2.935,0.555c-1.419,0.487-2.658,1.295-3.718,2.421
		C100.369,45.306,99.839,46.533,99.839,47.86z"/>
	<path fill="#FFFFFF" d="M122.301,34.539l0.952-1.709l4.573-0.952l0.995,1.784c1.822-1.01,3.563-1.516,5.224-1.516
		c0.276,0,0.545,0.009,0.806,0.024c1.904,0.197,3.462,0.628,4.675,1.292c1.212,0.665,2.022,1.365,2.429,2.104l-2.856,1.84
		c-0.57-1.178-1.546-1.913-2.93-2.207c-0.456-0.099-0.903-0.147-1.343-0.147c-0.912,0-1.791,0.213-2.637,0.638
		c-1.286,0.621-2.1,1.528-2.441,2.722c-0.261,1.145-0.391,2.805-0.391,4.979c0,2.175,0.063,4.071,0.191,5.689l0.191,2.403h5.399
		l0.908,3.198h-12.646v-3.198h2.563V34.539H122.301z"/>
	<path fill="#FFFFFF" d="M143.25,35.589v-2.71l4.614-0.854v-6.982l3.394-2.954v9.937l6.177-0.854l1.001,2.759l-7.178,0.659v8.91
		c0,1.022,0.041,1.895,0.123,2.617c0.082,0.722,0.241,1.473,0.479,2.251c0.237,0.779,0.622,1.429,1.154,1.948
		c0.532,0.52,1.215,0.876,2.05,1.07c0.458,0.098,0.884,0.146,1.277,0.146c0.229,0,0.45-0.016,0.663-0.049
		c0.556-0.097,1.035-0.288,1.436-0.571c0.401-0.284,0.737-0.584,1.007-0.9c0.27-0.317,0.47-0.589,0.602-0.816l0.154-0.364
		L163,49.778c-0.033,0.132-0.083,0.316-0.15,0.555c-0.066,0.237-0.254,0.66-0.562,1.268c-0.31,0.607-0.678,1.145-1.104,1.612
		s-1.053,0.887-1.879,1.256s-1.75,0.554-2.769,0.554c-2.599,0-4.604-0.732-6.017-2.197c-1.413-1.465-2.298-3.694-2.655-6.689
		c-0.098-0.765-0.151-1.741-0.159-2.93c-0.008-1.188,0.016-2.563,0.073-4.126c0.057-1.562,0.085-2.726,0.085-3.491H143.25z"/>
	<path fill="#FFFFFF" d="M185.66,39.446c0.064-0.637,0.235-1.307,0.512-2.009c0.537-1.372,1.354-2.45,2.451-3.235
		c1.099-0.783,2.347-1.249,3.746-1.396c0.455-0.049,0.91-0.073,1.365-0.073c0.975,0,1.99,0.104,3.045,0.312
		c1.543,0.304,3.046,0.824,4.508,1.56c0.193-0.466,0.482-0.895,0.868-1.288s0.708-0.67,0.965-0.831l0.386-0.265l2.051,0.169
		l-1.359,3.55c0.906,0.91,1.359,2.398,1.359,4.465c0,4.15-2.121,6.541-6.365,7.173c-2.469,0-4.149-0.244-5.043-0.732
		c-0.098,0.065-0.211,0.143-0.341,0.232s-0.313,0.276-0.548,0.562c-0.236,0.284-0.184,0.541,0.158,0.769
		c0.504,0.439,0.966,0.659,1.389,0.659c0.941-0.162,1.896-0.252,2.864-0.269c1.87,0,3.807,0.317,5.807,0.95
		c1.129,0.374,2.125,1.094,2.987,2.158c0.863,1.064,1.439,2.238,1.73,3.522c0.097,0.39,0.145,0.787,0.145,1.194
		c0,0.91-0.233,1.844-0.7,2.803c-0.661,1.382-1.813,2.486-3.456,3.315c-2.271,1.187-4.406,1.779-6.404,1.779
		c-0.362,0-0.725-0.024-1.086-0.073c-2.352-0.244-4.346-0.999-5.982-2.267s-2.71-2.763-3.219-4.485
		c-0.051-0.373-0.074-0.731-0.074-1.072c0-0.651,0.083-1.271,0.25-1.857c0.251-0.879,0.61-1.579,1.079-2.101
		c0.468-0.521,0.94-0.957,1.417-1.308c0.477-0.35,0.891-0.59,1.242-0.721l0.501-0.195c-0.601-0.698-0.901-1.422-0.901-2.169
		c0-0.801,0.301-1.497,0.901-2.089c-0.228-0.098-0.61-0.273-1.147-0.526s-0.963-0.466-1.281-0.637
		c-0.316-0.172-0.724-0.404-1.22-0.698c-0.497-0.294-0.879-0.576-1.147-0.845c-0.269-0.27-0.553-0.621-0.854-1.054
		s-0.492-0.878-0.574-1.335c-0.049-0.245-0.072-0.522-0.072-0.833C185.611,39.994,185.627,39.724,185.66,39.446z M190.564,42.637
		c0.764,0.777,2.234,1.373,4.412,1.786c0.844,0.166,1.641,0.248,2.389,0.248c1.186,0,2.266-0.198,3.24-0.596
		c1.234-0.645,1.852-1.579,1.852-2.803c0-0.182-0.018-0.372-0.049-0.57c-0.212-1.505-1.049-2.82-2.511-3.945
		c-0.503-0.413-1.356-0.752-2.558-1.017c-0.829-0.182-1.699-0.281-2.608-0.298c-0.39,0-0.788,0.024-1.194,0.074
		c-1.348,0.116-2.34,0.529-2.973,1.24c-0.91,1.075-1.365,2.101-1.365,3.076C189.199,40.81,189.654,41.744,190.564,42.637z
		 M191.225,57.698c0.699,1.812,1.885,3.026,3.558,3.646c0.812,0.31,1.688,0.465,2.632,0.465c0.979,0,2.031-0.171,3.156-0.514
		c3.438-1.012,5.158-2.7,5.158-5.065c0-0.44-0.064-0.905-0.192-1.395c-0.288-0.865-0.784-1.607-1.489-2.227
		c-0.703-0.62-1.775-1.077-3.217-1.371c-0.4-0.081-0.816-0.122-1.248-0.122c-1.186,0-2.543,0.286-4.068,0.856
		c-1.625,0.375-2.916,1.085-3.875,2.129c-0.552,0.619-0.828,1.289-0.828,2.007C190.811,56.613,190.949,57.144,191.225,57.698z"/>
	<path fill="#FFFFFF" d="M211.145,50.834c-0.631-1.158-0.947-2.31-0.947-3.452c0-1.511,0.494-3.021,1.484-4.532
		c1.071-1.712,2.76-2.912,5.064-3.601c1.736-0.503,3.367-0.755,4.893-0.755c0.521,0,1.026,0.033,1.516,0.101
		c1.973,0.217,3.27,0.652,3.889,1.305c-0.195-1.017-0.525-1.853-0.99-2.506c-0.465-0.654-0.982-1.077-1.553-1.271
		c-0.571-0.193-1.191-0.331-1.859-0.412c-0.31-0.032-0.611-0.057-0.904-0.072c-0.359,0-0.71,0.032-1.053,0.096
		c-1.81,0.095-3.742,0.872-5.796,2.332l-3.225-0.738c0.098-0.129,0.228-0.289,0.391-0.482c0.162-0.193,0.544-0.54,1.146-1.04
		s1.252-0.946,1.951-1.342c0.699-0.395,1.613-0.749,2.744-1.063c1.129-0.314,2.328-0.472,3.597-0.472
		c3.146,0,5.418,0.754,6.819,2.262c1.4,1.509,2.102,3.505,2.102,5.99l-0.22,10.539L233,51.971l0.903,2.45l-7.104,0.26v-3.34
		c0,0.3-0.191,0.667-0.574,1.102c-0.384,0.436-0.918,0.869-1.603,1.305c-0.685,0.435-1.582,0.779-2.69,1.034
		c-0.913,0.21-1.875,0.314-2.887,0.314c-0.227,0-0.461-0.008-0.705-0.023C214.953,54.85,212.555,53.438,211.145,50.834z
		 M213.298,47.86c0,1.18,0.505,2.188,1.517,3.026c1.011,0.854,2.404,1.288,4.182,1.304c2.169,0,4.076-0.854,5.724-2.563
		c1.468-1.514,2.209-3.003,2.226-4.468c0-0.179-0.017-0.357-0.049-0.537c-0.098-0.862-0.571-1.595-1.418-2.197
		c-0.849-0.602-1.852-0.984-3.009-1.147c-0.31-0.049-0.62-0.073-0.93-0.073c-0.896,0-1.875,0.185-2.935,0.555
		c-1.419,0.487-2.658,1.295-3.719,2.421C213.828,45.306,213.298,46.533,213.298,47.86z"/>
	<path fill="#FFFFFF" d="M235.54,54.681v-3.491h4.419l-0.952-15.381h-3.467v-2.686l6.235-0.732l1.027,1.756
		c0.568-0.59,1.658-0.972,3.268-1.147c0.568-0.063,1.152-0.096,1.754-0.096c1.076,0,2.176,0.104,3.3,0.311
		c1.76,0.319,3.039,0.893,3.837,1.722c1.141-1.181,2.722-1.866,4.742-2.058c0.342-0.032,0.676-0.048,1.002-0.048
		c1.678,0,3.297,0.427,4.861,1.281c1.873,1.019,3.086,2.53,3.64,4.534c0.293,1.578,0.534,3.409,0.721,5.496
		c0.188,2.087,0.298,3.787,0.33,5.101v1.947l2.612,0.586v2.905h-6.201c0-7.244-0.351-12.621-1.051-16.129
		c-0.57-1.729-1.638-2.798-3.201-3.206c-0.44-0.114-0.881-0.163-1.32-0.147c-1.076,0-2.094,0.343-3.055,1.027
		c-1.353,0.962-2.029,2.282-2.029,3.96l0.587,11.565h4.668v3.491h-8.114c0-6.412-0.252-11.625-0.757-15.639
		c0-1.664-0.758-2.888-2.272-3.671c-0.979-0.506-1.956-0.75-2.934-0.734c-0.537,0-1.067,0.074-1.588,0.223
		c-1.5,0.43-2.249,1.229-2.249,2.401c-0.159,1.089-0.243,2.748-0.251,4.976s0.035,4.184,0.131,5.866l0.12,2.525h4.741l1.777,3.491
		H235.54z"/>
	<path fill="#FFFFFF" d="M274.555,41.853c0.163-1.382,0.545-2.716,1.148-4.001c0.602-1.284,1.611-2.395,3.027-3.33
		c1.416-0.935,3.174-1.482,5.273-1.644c0.455-0.032,0.91-0.048,1.367-0.048c1.404,0,2.685,0.195,3.839,0.586
		c1.54,0.521,2.731,1.213,3.577,2.075c0.844,0.863,1.538,1.733,2.082,2.612c0.543,0.879,0.891,1.636,1.041,2.271l0.252,0.952
		l-18.141,3.388c0,2.068,0.928,3.926,2.783,5.57c1.628,1.434,3.516,2.15,5.664,2.15c0.31,0,0.627-0.016,0.953-0.049
		c1.105-0.098,2.059-0.289,2.855-0.574c0.798-0.284,1.38-0.586,1.746-0.902c0.366-0.318,0.654-0.635,0.867-0.953
		c0.211-0.316,0.316-0.573,0.316-0.769l0.055-0.317h2.9c0,0.163-0.018,0.379-0.051,0.646c-0.034,0.27-0.191,0.745-0.469,1.429
		c-0.279,0.684-0.668,1.294-1.166,1.831s-1.305,1.021-2.42,1.453c-1.115,0.431-2.416,0.646-3.902,0.646
		c-3.729,0-6.633-0.709-8.717-2.126c-2.083-1.418-3.426-2.974-4.027-4.668c-0.375-0.57-0.652-1.409-0.83-2.518
		c-0.098-0.57-0.146-1.182-0.146-1.833C274.434,43.13,274.474,42.504,274.555,41.853z M278.021,42.132l13.541-2.542
		c-0.065-0.13-0.168-0.319-0.306-0.571c-0.138-0.251-0.438-0.684-0.902-1.299c-0.464-0.614-0.964-1.145-1.501-1.59
		s-1.244-0.838-2.121-1.178c-0.732-0.275-1.489-0.413-2.27-0.413c-0.146,0-0.301,0.009-0.464,0.024
		c-2.065,0.163-3.578,0.939-4.538,2.327C278.502,38.278,278.021,40.025,278.021,42.132z"/>
</g>
<polygon fill="#FFFFFF" points="23,28.747 40.833,41.715 23,54.681 "/>
<g>
</g>
<g>
</g>
<g>
</g>
<g>
</g>
<g>
</g>
<g>
</g>
<g>
</g>
<g>
</g>
<g>
</g>
<g>
</g>
<g>
</g>
<g>
</g>
<g>
</g>
<g>
</g>
<g>
</g>
</svg>
