<?xml version="1.0" encoding="utf-8"?>
<!-- Generator: Adobe Illustrator 16.0.0, SVG Export Plug-In . SVG Version: 6.00 Build 0)  -->
<!DOCTYPE svg PUBLIC "-//W3C//DTD SVG 1.1//EN" "http://www.w3.org/Graphics/SVG/1.1/DTD/svg11.dtd">
<svg version="1.1" id="Layer_1" xmlns="http://www.w3.org/2000/svg" xmlns:xlink="http://www.w3.org/1999/xlink" x="0px" y="0px"
	 width="237px" height="86px" viewBox="0 0 237 86" enable-background="new 0 0 237 86" xml:space="preserve">
<rect fill="#BC7D31" width="237" height="86"/>
<rect opacity="0.2" fill="#F2F2F2" width="237" height="43"/>
<g>
	<path fill="#FFFFFF" d="M62.638,57.803l-5.988-8.984h-4.432v8.984h-6.169V31.631h17.787c0.877,0,1.616,0.27,2.216,0.809
		c0.599,0.539,0.898,1.188,0.898,1.946v11.618c0,0.799-0.3,1.467-0.898,2.006c-0.6,0.539-1.339,0.809-2.216,0.809l5.988,8.984
		H62.638z M52.218,43.25h8.563v-6.049h-8.563V43.25z"/>
	<path fill="#FFFFFF" d="M78.688,37.26v4.791h7.485v5.509h-7.485v4.732h13.594v5.51H72.639V31.631h19.643v5.629H78.688z"/>
	<path fill="#FFFFFF" d="M114.919,31.631c0.839,0,1.557,0.27,2.156,0.809c0.599,0.539,0.898,1.188,0.898,1.946v11.618
		c0,0.799-0.3,1.467-0.898,2.006c-0.6,0.539-1.317,0.809-2.156,0.809h-11.678v8.984h-6.229V31.631H114.919z M111.805,37.201h-8.563
		v6.049h8.563V37.201z"/>
	<path fill="#FFFFFF" d="M128.933,52.232h11.498v5.57h-17.727V31.631h6.229V52.232z"/>
	<path fill="#FFFFFF" d="M162.829,57.803l-2.036-6.17h-9.702l-2.097,6.17h-6.348l8.564-26.112h9.402l8.563,26.112H162.829z
		 M155.941,37.201l-2.994,8.803h5.929L155.941,37.201z"/>
	<path fill="#FFFFFF" d="M183.19,45.824v11.979h-6.169V45.824L167.2,31.631h8.444l4.491,6.408l4.432-6.408h8.444L183.19,45.824z"/>
</g>
</svg>
