<?xml version="1.0" encoding="utf-8"?>
<!-- Generator: Adobe Illustrator 16.0.1, SVG Export Plug-In . SVG Version: 6.00 Build 0)  -->
<!DOCTYPE svg PUBLIC "-//W3C//DTD SVG 1.1//EN" "http://www.w3.org/Graphics/SVG/1.1/DTD/svg11.dtd">
<svg version="1.1" id="Layer_1" xmlns="http://www.w3.org/2000/svg" xmlns:xlink="http://www.w3.org/1999/xlink" x="0px" y="0px"
	 width="194.722px" height="195.754px" viewBox="0 0 194.722 195.754" enable-background="new 0 0 194.722 195.754"
	 xml:space="preserve">
<g>
	<path fill="#CC6666" d="M145.545,4.875c11.887,3.173,22.327,6.935,20.789,12.699c-1.539,5.765-13.19,9.173-25.079,6
		c-11.888-3.173-19.276-15.106-17.739-20.87C125.056-3.059,133.656,1.704,145.545,4.875z"/>
	<path fill="#993333" d="M145.35,8.17c-4.528-2.602-8.799-4.595-10.061-2.397c-1.263,2.195,0.67,10.51,5.756,9.313
		c7.633-1.8,6.244-1.86,11.588-0.976C155.131,14.524,149.879,10.773,145.35,8.17z"/>
	
		<radialGradient id="SVGID_1_" cx="2855.5527" cy="3899.1235" r="95.848" gradientTransform="matrix(0.5073 -0.8618 -0.8618 -0.5073 2004.437 4544.5903)" gradientUnits="userSpaceOnUse">
		<stop  offset="0" style="stop-color:#E28D8D"/>
		<stop  offset="1" style="stop-color:#CC6666"/>
	</radialGradient>
	<path fill="url(#SVGID_1_)" d="M17.951,52.213c-19.372,32.912-15.837,72.969,5.805,101.676c-2.908-0.572-5.344-0.11-7.047,1.709
		c-5.118,5.466,1.411,15.839,12.685,26.391c11.273,10.553,23.023,17.288,28.139,11.82c2.859-3.053,2.082-7.639-1.125-12.93
		c42.641,21.068,94.953,5.934,119.466-35.709c25.669-43.608,11.127-99.771-32.482-125.44C99.782-5.938,43.621,8.604,17.951,52.213z"
		/>
	<path fill="#993333" d="M32.382,178.385c-6.998-5.698-13.088-11.104-11.843-12.9s12.115,0.119,15.462,6.812
		c5.025,10.047,3.689,8.248,9.551,15.128C48.295,190.639,39.381,184.083,32.382,178.385z"/>
	<polygon fill="#330000" points="110.236,60.13 99.465,74.448 93.535,69.531 106.74,56.059 	"/>
	<polygon fill="#330000" points="79.469,99.17 82.012,114.078 75.892,116.772 72.68,104.991 	"/>
	<g>
		<path fill="#993333" d="M123.021,98.854c-1.666,2.833-6.459,5.571-7.07,5.914l-0.81-1.448c2.39-1.335,6.337-4.155,6.761-6.033
			c0.075-0.328,0.031-0.582-0.139-0.822c-1.492-2.107-7.785-1.466-9.871-1.076l-0.305-1.631c0.93-0.173,9.156-1.603,11.529,1.749
			c0.44,0.624,0.58,1.366,0.403,2.148C123.432,98.051,123.258,98.455,123.021,98.854z"/>
	</g>
	
		<radialGradient id="SVGID_2_" cx="2864.3613" cy="3852.6587" r="74.2568" gradientTransform="matrix(0.5073 -0.8618 -0.8618 -0.5073 2004.437 4544.5903)" gradientUnits="userSpaceOnUse">
		<stop  offset="0" style="stop-color:#663333"/>
		<stop  offset="1" style="stop-color:#330000"/>
	</radialGradient>
	<path fill="url(#SVGID_2_)" d="M115.451,106.529c-1.717,1.922-0.923,6.883-1.541,12.579c-0.615,5.695-1.066,16.787,0.535,20.359
		c1.602,3.568,17.388,18.92,14.875,22.521c-2.512,3.604-44.082,19.59-47.039,20.391c-2.958,0.801-22.158-10.188-25.515-10.073
		c-3.357,0.114-8.209,0.386-7.987,2.665c0.222,2.281,20.142,14.592,25.068,16.514c4.926,1.925,27.988,3.918,35.874,3.139
		c3.826-0.38,31.723-6.246,40.721-11.407c3.336-1.911,10.765-7.247,17.674-17.741c1.947-2.957,19.631-28.119,25.164-47.729
		c0.794-2.814,0.73-19.503,1.297-27.77s-0.506-15.739-3.451-25.68c-2.943-9.942-10.042-17.478-12.3-19.944
		c-3.839-4.192-6.07-7.286-14.496-13.224c-3.581-2.522-19.468-13.414-20.433-11.441c-0.965,1.973,16.689,20.824,19.131,24.941
		c10.677,18.012,3.171,19.849-13.617,20.02c-4.938,0.05-13.985,8.72-17.307,12.594c-3.117,3.637-11.581,14.094-9.892,15.676
		c1.689,1.581,6.965,3.905,9.536,3.854c2.57-0.05,16.062-23.967,17.967-24.213c1.902-0.247,16.129,4.804,17.469,6.18
		c1.341,1.375-4.477,26.815-5.773,31.389c-3.086,10.888-17.85,34.642-20.146,36.22c-2.297,1.58-7.643-1.958-11.74-4.956
		c-4.099-2.999-2.803-27.448-2.803-27.448s1.574-5.326-0.834-6.549C123.479,106.174,117.168,104.609,115.451,106.529z"/>
	
		<radialGradient id="SVGID_3_" cx="2864.1748" cy="3946.5366" r="75.1931" gradientTransform="matrix(0.5073 -0.8618 -0.8618 -0.5073 2004.437 4544.5903)" gradientUnits="userSpaceOnUse">
		<stop  offset="0" style="stop-color:#663333"/>
		<stop  offset="1" style="stop-color:#330000"/>
	</radialGradient>
	<path fill="url(#SVGID_3_)" d="M40.993,140.388c2.275,5.32,23.012,26.737,21.594,30.595c-1.416,3.856-9.219,6.152-11.844,5.633
		c-2.625-0.519-28.866-16.698-35.704-26C8.202,141.314,3.341,116.369,1.601,108.7c-1.74-7.67-2.045-7.584-0.995-15.244
		c0.456-3.319,1.9-7.451,2.215-11.994c0.266-3.842-4.322-11.82-0.748-22.68c0.377-1.149,1.909,15.877,4.211,10.097
		c0.828-2.081-3.93-6.447-1.309-14.844c0.22-0.7,2.68,12.006,3.682,7.918c0.243-0.992-1.567-4.747-0.58-7.23
		c0.182-0.456,1.483,4.428,2.889,1.82c0.407-0.754,0.766-1.457,1.141-2.052c4.234-6.693,18.983-22.573,23.962-25.765
		c4.978-3.193,19.777-13.18,24.661-14.505c4.885-1.327,21.849-10.886,36.715-8.584c6.344,0.183,22.238-0.592,25.888,2.338
		s9.186,5.114,10.244,6.03c1.057,0.917,1.592,2.549-2.18,3.701c-3.77,1.153-26.32-6.735-29.228-6.65
		c-8.057,0.241-13.104,2.84-15.59,6.067c-2.486,3.227-20.989,30.796-23.23,35.48C57.934,63.925,53.1,77.582,48.209,86.297
		c-8.287,14.764-11.245,19.789-14.062,33.352C33.247,123.985,38.554,134.684,40.993,140.388z"/>
	<path fill="#FFFFFF" d="M137.605,134.494c-0.074,1.111,0.264,1.708,0.264,1.708l-0.002,0.002c0.074,0.174,0.11,0.365,0.095,0.563
		c-0.054,0.655-0.628,1.146-1.286,1.093c-0.656-0.055-1.146-0.63-1.092-1.287c0.016-0.197,0.084-0.381,0.184-0.537l-0.004-0.006
		c0,0,0.317-0.439,0.418-1.534l1.912-23.425c0.461-0.326,0.932-0.568,1.465-0.765L137.605,134.494z"/>
	<path fill="#FFFFFF" d="M143.744,128.54c-0.087,1.312,0.312,2.02,0.312,2.02l-0.003,0.004c0.087,0.204,0.131,0.43,0.112,0.664
		c-0.063,0.778-0.742,1.357-1.523,1.293c-0.775-0.062-1.355-0.744-1.292-1.521c0.019-0.235,0.101-0.451,0.22-0.637l-0.006-0.007
		c0,0,0.375-0.52,0.496-1.816l1.543-18.919c0.545-0.387,1.102-0.672,1.734-0.904L143.744,128.54z"/>
	<path d="M140.609,95.722c-1.074-0.317-2.093-0.75-3.049-1.289l-8.208,27.798c0.956,0.539,1.972,0.979,3.048,1.297
		c10.557,3.117,22.621-6.229,26.944-20.873c1.507-5.098,1.872-10.167,1.267-14.741C155.01,94.489,147.491,97.755,140.609,95.722z"/>
	<polygon points="127.092,70.104 118.331,71.415 117.066,62.971 114.316,63.383 115.58,71.827 107.454,73.042 107.865,75.793 
		115.992,74.576 117.256,83.021 120.006,82.609 118.742,74.165 127.502,72.853 	"/>
	<polygon points="105.59,106.639 96.83,107.95 95.566,99.506 92.815,99.918 94.079,108.362 85.953,109.579 86.364,112.328 
		94.491,111.112 95.755,119.555 98.505,119.143 97.241,110.7 106.001,109.389 	"/>
</g>
</svg>
