<?xml version="1.0" encoding="utf-8"?>
<!-- Generator: Adobe Illustrator 16.0.0, SVG Export Plug-In . SVG Version: 6.00 Build 0)  -->
<!DOCTYPE svg PUBLIC "-//W3C//DTD SVG 1.1//EN" "http://www.w3.org/Graphics/SVG/1.1/DTD/svg11.dtd">
<svg version="1.1" xmlns="http://www.w3.org/2000/svg" xmlns:xlink="http://www.w3.org/1999/xlink" x="0px" y="0px"
	 width="276.604px" height="127.411px" viewBox="0 0 276.604 127.411" enable-background="new 0 0 276.604 127.411"
	 xml:space="preserve">
<g id="BG">
</g>
<g id="Type">
</g>
<g id="Face">
</g>
<g id="Beer_Gauge_1_">
</g>
<g id="Beer_Gauge">
</g>
<g id="Tweet_x2F_Share">
	<polygon fill="#49639E" points="86.296,91.247 262.595,89.402 270.401,4.411 16.842,4.411 19.581,90.791 49.491,88.747 
		32.366,122.383 	"/>
	<g>
		<path fill="#FFFFFF" d="M84.377,23.126v-1.134h4.535h4.535v1.134v1.133h1.134h1.133v1.134v1.135h-2.267h-2.267v-1.135v-1.134
			h-2.269h-2.267v2.269v2.267h4.535h4.533v1.134v1.134h1.135h1.134v2.268v2.268h-1.134h-1.135v1.133v1.135h-5.668h-5.669v-1.135
			v-1.133h-1.134H82.11v-1.134v-1.134h2.267h2.269v1.134v1.134h3.4h3.401v-2.268v-2.268h-4.535h-4.535v-1.134v-1.134h-1.134H82.11
			v-2.267v-2.269h1.133h1.134V23.126z"/>
		<path fill="#FFFFFF" d="M100.249,29.928v-7.936h2.268h2.268v2.267v2.269h4.535h4.533v1.134v1.133h1.135h1.134v4.535v4.535h-2.269
			h-2.266v-4.535v-4.535h-3.402h-3.4v4.535v4.535h-2.268h-2.268V29.928z"/>
		<path fill="#FFFFFF" d="M120.655,27.661v-1.134h5.668h5.669v1.134v1.133h1.135h1.134v4.535v4.535h-6.803h-6.803v-1.135v-1.133
			h-1.134h-1.134v-1.134v-1.134h1.134h1.134v-1.133v-1.135h4.535h4.535v-1.134v-1.134h-4.535h-4.535V27.661z M129.726,34.463v-1.134
			h-3.402h-3.4v1.134v1.134h3.4h3.402V34.463z"/>
		<path fill="#FFFFFF" d="M138.794,32.196v-5.669h2.269h2.267v1.134v1.133h1.134h1.135v-1.133v-1.134h3.4h3.401v1.134v1.133h-3.401
			h-3.4v1.134v1.134h-1.135h-1.134v3.401v3.401h-2.267h-2.269V32.196z"/>
		<path fill="#FFFFFF" d="M156.933,27.661v-1.134h5.67h5.668v1.134v1.133h1.135h1.133v2.268v2.268h-5.668h-5.668v1.134v1.134h4.535
			h4.533v1.133v1.135h-5.668h-5.67v-1.135v-1.133H155.8h-1.133v-3.4v-3.402h1.133h1.133V27.661z M166.003,29.928v-1.134h-3.4h-3.4
			v1.134v1.134h3.4h3.4V29.928z"/>
		<path fill="#FFFFFF" d="M183.054,23.126v-1.134h6.804h6.802v1.134v1.133h-2.268h-2.268v6.803v6.803h-2.267h-2.269v-6.803v-6.803
			h-2.267h-2.269V23.126z"/>
		<path fill="#FFFFFF" d="M198.927,29.928v-7.936h2.266h2.27v2.267v2.269h4.534h4.534v1.134v1.133h1.135h1.133v4.535v4.535h-2.268
			h-2.268v-4.535v-4.535h-3.401h-3.399v4.535v4.535h-2.27h-2.266V29.928z"/>
		<path fill="#FFFFFF" d="M221.599,27.661v-1.134h3.4h3.403v4.534v4.535h2.267h2.268v1.133v1.135h-6.801h-6.804v-1.135v-1.133h2.267
			h2.268v-3.4v-3.402h-1.134h-1.134V27.661z M223.866,23.126v-1.134h2.27h2.267v1.134v1.133h-2.267h-2.27V23.126z"/>
		<path fill="#FFFFFF" d="M237.47,27.661v-1.134h5.67h5.668v1.134v1.133h-4.533h-4.535v1.134v1.134h4.535h4.533v1.135v1.133h1.135
			h1.135v1.134v1.134h-1.135h-1.135v1.133v1.135h-6.801h-6.801v-1.135v-1.133h5.667h5.669v-1.134v-1.134h-4.535h-4.537v-1.133
			v-1.135h-1.132h-1.132v-1.134v-1.134h1.132h1.132V27.661z"/>
		<path fill="#FFFFFF" d="M118.6,48.068v-1.891h1.89h1.889v1.891v1.89h3.78h3.778v1.889v1.89h-3.778h-3.78v1.891v1.889h3.78h3.778
			v1.89v1.89h1.891h1.887v1.889v1.89h-1.887h-1.891v1.891v1.889h-3.778h-3.78v1.89v1.89h-1.889h-1.89v-1.89v-1.89h-5.669h-5.668
			v-1.889v-1.891h5.668h5.669v-1.89v-1.889h-3.778h-3.781v-1.89v-1.89h-1.888h-1.89v-1.889v-1.891h1.89h1.888v-1.89v-1.889h3.781
			h3.778V48.068z M118.6,55.627v-1.891h-1.89h-1.889v1.891v1.889h1.889h1.89V55.627z M126.158,63.184v-1.889h-1.89h-1.891v1.889
			v1.89h1.891h1.89V63.184z"/>
		<path fill="#FFFFFF" d="M160.169,48.068v-1.891h1.889h1.891v1.891v1.89h-1.891h-1.889v1.889v1.89h-1.889h-1.889v1.891v1.889
			h-1.891h-1.891v1.89v1.89h-1.889h-1.889v1.889v1.89h-1.891h-1.889v1.891v1.889h-1.89h-1.89v1.89v1.89h-1.891h-1.889v-1.89v-1.89
			h1.889h1.891v-1.889v-1.891h1.89h1.89v-1.89v-1.889h1.889h1.891v-1.89v-1.89h1.889h1.889v-1.889v-1.891h1.891h1.891v-1.89v-1.889
			h1.889h1.889V48.068z M141.274,48.068v-1.891h3.779h3.779v3.78v3.778h-1.891h-1.889v1.891v1.889h-3.779h-3.779v-3.779v-3.778
			h1.889h1.891V48.068z M145.054,51.847v-1.889h-1.89h-1.89v1.889v1.89h1.89h1.89V51.847z M156.392,63.184v-1.889h3.777h3.779v3.778
			v3.779h-1.891h-1.889v1.89v1.89h-3.777h-3.781v-3.779v-3.779h1.891h1.891V63.184z M160.169,66.964v-1.891h-1.889h-1.889v1.891
			v1.889h1.889h1.889V66.964z"/>
		<path fill="#FFFFFF" d="M171.507,51.847v-1.889h3.779h3.779v1.889v1.89h1.89h1.889v-1.89v-1.889h3.78h3.778v1.889v1.89h-1.89
			h-1.889v1.891v1.889h3.778h3.777v1.89v1.89h-3.777h-3.778v1.889v1.89h1.889h1.89v1.891v1.889h-3.778h-3.78v-1.889v-1.891h-1.889
			h-1.89v1.891v1.889h-3.779h-3.779v-1.889v-1.891h1.89h1.89v-1.89v-1.889h-3.779h-3.779v-1.89v-1.89h3.779h3.779v-1.889v-1.891
			h-1.89h-1.89V51.847z"/>
		<path fill="#FFFFFF" d="M201.739,48.068v-1.891h9.447h9.448v1.891v1.89h1.889h1.89v7.558v7.558h-9.447h-9.446v-5.668v-5.669h5.667
			h5.67v3.779v3.779h1.889h1.89v-5.668v-5.669h-9.448h-9.447v9.447v9.447h9.447h9.448v1.89v1.89h-9.448h-9.447v-1.89v-1.89h-1.889
			h-1.89v-9.447v-9.447h1.89h1.889V48.068z M213.077,59.405v-1.89h-1.891h-1.889v1.89v1.89h1.889h1.891V59.405z"/>
	</g>
	<path fill="#FFFFFF" d="M62.119,37.264h-7.462v-4.893c0-1.838,1.217-2.266,2.075-2.266c0.854,0,5.265,0,5.265,0v-8.081
		l-7.252-0.028c-8.051,0-9.884,6.026-9.884,9.883v5.385h-4.655v8.327h4.655c0,10.686,0,23.56,0,23.56h9.796c0,0,0-13.001,0-23.56
		h6.606L62.119,37.264z"/>
</g>
<g id="Replay_x2F_Select">
</g>
<g id="Time_Alotted">
</g>
</svg>
