<?xml version="1.0" encoding="utf-8"?>
<!-- Generator: Adobe Illustrator 16.0.0, SVG Export Plug-In . SVG Version: 6.00 Build 0)  -->
<!DOCTYPE svg PUBLIC "-//W3C//DTD SVG 1.1//EN" "http://www.w3.org/Graphics/SVG/1.1/DTD/svg11.dtd">
<svg version="1.1" xmlns="http://www.w3.org/2000/svg" xmlns:xlink="http://www.w3.org/1999/xlink" x="0px" y="0px" width="200px"
	 height="200px" viewBox="0 0 200 200" enable-background="new 0 0 200 200" xml:space="preserve">
<g id="BG">
</g>
<g id="Type">
</g>
<g id="Face">
</g>
<g id="Beer_Gauge_1_">
</g>
<g id="Beer_Gauge">
	<polygon fill="#F15A24" points="12.546,148.236 20.321,131.543 3.086,125.076 14.769,110.844 -0.318,100.291 14.533,89.41 
		2.547,75.441 19.641,68.6 11.501,52.078 29.76,49.709 25.988,31.688 44.26,33.926 45.089,15.531 62.232,22.246 67.604,4.631 
		82.541,15.406 92.126,-0.318 103.915,13.824 117.106,0.984 125.013,17.617 140.98,8.457 144.498,26.527 162.25,21.623 
		161.161,40.012 179.576,39.678 173.944,57.211 191.863,61.471 182.055,77.051 198.342,85.629 184.97,98.283 198.615,110.643 
		182.509,119.57 192.656,134.939 174.84,139.586 180.846,156.99 162.43,157.061 163.918,175.414 146.065,170.896 142.938,189.047 
		126.771,180.232 119.231,197.031 105.765,184.477 94.289,198.871 84.363,183.367 69.663,194.455 63.908,176.963 46.915,184.049 
		45.692,165.674 27.464,168.311 30.852,150.211 	"/>
	<g>
		<path fill="#FFFFFF" d="M55.255,128.451l-4.109-33.877l2.684-0.325l22.343,26.639l-3.508-28.923l2.64-0.323l4.109,33.878
			l-2.64,0.321l-22.39-26.635l3.508,28.923L55.255,128.451z"/>
		<path fill="#FFFFFF" d="M87.48,124.539l-4.108-33.876l2.642-0.318l4.106,33.876L87.48,124.539z"/>
		<path fill="#FFFFFF" d="M94.785,106.374c-0.859-7.095-0.33-11.998,1.598-14.706c1.553-2.16,4.089-3.451,7.605-3.878
			c1.205-0.147,2.923-0.238,5.156-0.274c2.233-0.037,4.173,0.004,5.814,0.117l0.241,1.988c-0.528,0.032-1.011,0.062-1.446,0.084
			c-0.437,0.021-0.939,0.051-1.516,0.087c-0.576,0.041-1.206,0.077-1.889,0.113c-0.684,0.037-1.35,0.077-2.002,0.125
			c-1.521,0.125-2.866,0.256-4.039,0.395c-2.128,0.26-3.746,0.863-4.852,1.81c-2.242,1.901-2.916,6.54-2.021,13.914
			c1.177,9.716,4.65,14.228,10.421,13.525c3.056-0.369,6.433-0.903,10.135-1.605l0.644-0.123l0.246,2.035
			c-1.507,0.465-3.346,0.934-5.51,1.397c-2.171,0.468-3.9,0.778-5.195,0.936C100.648,123.228,96.185,117.915,94.785,106.374z"/>
		<path fill="#FFFFFF" d="M125.148,114.198l-2.689-22.168c-0.256-2.132,0.092-3.729,1.041-4.801c0.949-1.07,2.181-1.696,3.691-1.878
			c0.123-0.015,0.248-0.033,0.37-0.044l14.382-1.089l0.238,1.991l-14.301,1.733c-1.202,0.146-2.002,0.533-2.395,1.158
			c-0.393,0.629-0.521,1.495-0.389,2.606l1.176,9.673l15.686-1.528l0.246,2.037l-15.596,2.27l1.177,9.716
			c0.176,1.453,0.688,2.329,1.541,2.633c0.65,0.201,1.484,0.241,2.502,0.121l13.839-1.682l0.236,1.945l-13.756,2.372
			c-0.246,0.029-0.57,0.069-0.97,0.117c-0.402,0.05-0.903,0.054-1.501,0.018c-0.599-0.036-1.245-0.201-1.938-0.493
			C126.314,118.267,125.452,116.695,125.148,114.198z"/>
		<path fill="#FFFFFF" d="M153.334,115.663l-0.33-2.73c-0.079-0.647,0.188-1.009,0.807-1.085l1.852-0.225
			c0.588-0.072,0.918,0.217,0.996,0.863l0.33,2.73c0.072,0.589-0.186,0.918-0.771,0.987l-1.853,0.224
			c-0.276,0.036-0.511-0.022-0.701-0.172C153.473,116.109,153.363,115.908,153.334,115.663z M149.614,82.678l3.056-0.372
			l2.726,24.793l-2.499,0.303L149.614,82.678z"/>
	</g>
</g>
<g id="Tweet_x2F_Share">
</g>
<g id="Replay_x2F_Select">
</g>
<g id="Time_Alotted">
</g>
</svg>
