<?xml version="1.0" encoding="utf-8"?>
<!-- Generator: Adobe Illustrator 16.0.1, SVG Export Plug-In . SVG Version: 6.00 Build 0)  -->
<!DOCTYPE svg PUBLIC "-//W3C//DTD SVG 1.1//EN" "http://www.w3.org/Graphics/SVG/1.1/DTD/svg11.dtd">
<svg version="1.1" id="Layer_1" xmlns="http://www.w3.org/2000/svg" xmlns:xlink="http://www.w3.org/1999/xlink" x="0px" y="0px"
	 width="395.086px" height="510.585px" viewBox="0 0 395.086 510.585" enable-background="new 0 0 395.086 510.585"
	 xml:space="preserve">
<g id="Layer_1_1_" display="none">
	
		<image display="inline" overflow="visible" enable-background="new    " width="392" height="514" xlink:href="EDC0564B617B3308.png"  transform="matrix(0.9999 0 0 0.9999 110 139)">
	</image>
</g>
<g id="Layer_2" display="none">
	<rect x="-9" y="68" display="inline" opacity="0.7" fill="#FFFFFF" enable-background="new    " width="656" height="751"/>
</g>
<g id="Layer_3">
	<g>
		<path fill="#666666" d="M351.031,451.13c12.748-0.682,23.467,5.93,23.941,14.77c0.467,8.834-9.486,16.549-22.236,17.229
			c-12.752,0.68-23.469-5.932-23.939-14.77C328.322,459.523,338.277,451.812,351.031,451.13z"/>
		<path fill="#333333" d="M374.076,465.339c0.471,8.832-9.479,16.547-22.23,17.23c-7.285,0.389-13.898-1.604-18.326-5.027
			c4.15,4.842,12.004,7.871,20.838,7.4c12.752-0.682,22.705-8.396,22.234-17.232c-0.201-3.787-2.293-7.166-5.615-9.736
			C372.818,460.121,373.936,462.623,374.076,465.339z"/>
	</g>
	<path fill="#003366" d="M269.188,445.535l-30.512-32.33l-56.091,44.131c0,0,1.797,13.25,10.921,23.752
		c7.766,8.938,15.946,12.854,18.219,13.824L269.188,445.535z"/>
	<path fill="#003366" d="M276.616,442.869l65.489,40.959c2.545-1.758,9.953-7.289,14.435-14.979
		c5.478-9.393,6.233-18.912,6.233-18.912l-65.11-40.721L276.616,442.869z"/>
	<path fill="#003366" d="M322.698,405.662c4.55,23.852-19.236,48.438-53.138,54.908c-33.9,6.471-65.072-7.625-69.625-31.475
		c-4.557-23.857,19.236-48.439,53.138-54.914C286.973,367.712,318.145,381.806,322.698,405.662z"/>
	<path fill="#000033" d="M322.086,403.109c2.361,22.988-20.896,45.994-53.523,52.225c-4.14,0.789-8.237,1.27-12.254,1.467
		l-6.802,5.352c6.447,0.287,13.203-0.182,20.072-1.488c33.897-6.473,57.69-31.057,53.135-54.912
		C322.545,404.855,322.331,403.976,322.086,403.109z"/>
	<g>
		<path fill="#666666" d="M177.177,476.587c-11.952,6.668-25.384,5.355-30.006-2.922c-4.619-8.285,1.323-20.402,13.276-27.072
			c11.951-6.666,25.384-5.357,30.005,2.924C195.073,457.8,189.131,469.919,177.177,476.587z"/>
		<path fill="#333333" d="M148.172,472.095c-3.386-9.734,5.256-21.594,19.305-26.486c8.023-2.791,16.074-2.701,22.135-0.305
			c-6.213-4.076-15.984-4.922-25.717-1.535c-14.051,4.895-22.689,16.75-19.306,26.486c1.455,4.172,4.888,7.277,9.44,9.076
			C151.272,477.527,149.215,475.085,148.172,472.095z"/>
	</g>
	<path fill="#003366" d="M211.77,494.98l23.013-38.492l-55.266-16.047c0,0-9.674,9.225-12.827,22.779
		c-2.68,11.529-1.054,20.451-0.505,22.863L211.77,494.98z"/>
	<path fill="#336600" d="M128.004,374.474l20.967,28.311c0.784-17.307,9.06-34.127,24.069-45.244
		c21.534-15.943,51.505-8.908,72.375-1.588c-1.933-5.496-6.296-9.359-9.942-14.287c-19.599-26.459-56.933-32.023-83.396-12.426
		C137.075,340.351,128.79,357.169,128.004,374.474z"/>
	<g>
		
			<radialGradient id="SVGID_1_" cx="-3365.0137" cy="-3015.71" r="33.6405" gradientTransform="matrix(0.0932 0.9957 0.9957 -0.0932 3446.9207 3473.1467)" gradientUnits="userSpaceOnUse">
			<stop  offset="0" style="stop-color:#F9D8B7"/>
			<stop  offset="1" style="stop-color:#FFCC99"/>
		</radialGradient>
		<path fill="url(#SVGID_1_)" d="M136.529,436.888c8.696-0.811,15.337-8.102,16.258-17.074c0.479,0.064,0.963,0.078,1.452,0.033
			c6.457-0.604,10.773-10.893,9.642-22.982c-0.482-5.137-1.869-9.77-3.801-13.355c-1.692-8.775-11.996-14.855-23.779-13.752
			c-0.897,0.082-1.776,0.209-2.637,0.371c-0.721-0.014-1.449,0.008-2.185,0.08c-9.627,0.9-16.867,8.574-16.793,17.467
			c-10.752,1.355-18.626,10.205-17.704,20.084c0.662,7.051,5.64,12.758,12.372,15.203c-0.145,0.951-0.181,1.939-0.086,2.939
			c0.632,6.756,6.747,11.713,13.657,11.062c1.808-0.17,3.492-0.705,4.98-1.529C130.552,436.626,133.489,437.171,136.529,436.888z"/>
		<path fill="#CC9966" d="M118.441,436.615c-6.544-2.375-9.208-11.576-5.948-20.549c2.755-7.584,8.859-12.578,14.634-12.508
			c-6.456-1.992-14.124,3.312-17.312,12.086c-3.26,8.973-0.598,18.174,5.946,20.553c1.014,0.365,2.058,0.549,3.116,0.561
			C118.731,436.716,118.585,436.669,118.441,436.615z"/>
		<path fill="#CC9966" d="M133.149,436.593c-6.598-2.221-9.476-11.354-6.427-20.402c1.186-3.521,3.101-6.504,5.379-8.709
			c-0.67-0.33-1.311-0.689-1.925-1.064c-2.616,2.252-4.827,5.504-6.145,9.414c-3.046,9.049-0.169,18.186,6.429,20.408
			c1.02,0.342,2.071,0.502,3.127,0.488C133.442,436.687,133.295,436.644,133.149,436.593z"/>
		<path fill="#CC9966" d="M100.706,400.531c0.979-2.797,2.406-5.254,4.098-7.275c-0.001,0.021-0.006,0.047-0.008,0.07
			c0.012-0.035,0.026-0.066,0.037-0.107c1.52-1.803,3.252-3.25,5.083-4.256c2.255-0.582,4.963-0.451,7.637,0.545
			c2.894,1.078,5.162,2.947,6.445,5.062c0.092-0.418,0.208-0.824,0.375-1.225c0.018-0.047,0.045-0.086,0.066-0.133
			c-1.248-2.229-3.59-4.223-6.615-5.352c-1.094-0.408-2.194-0.666-3.267-0.795c-1.484-0.236-3.004-0.129-4.504,0.281
			c-0.025,0.008-0.053,0.016-0.079,0.02c-4.996,1.404-9.747,6.154-12.065,12.756c-3.292,9.375-0.415,18.922,6.421,21.324
			c1.06,0.371,2.148,0.549,3.25,0.551c-0.151-0.045-0.304-0.09-0.456-0.139C100.287,419.457,97.41,409.906,100.706,400.531z"/>
		<path fill="#CC9966" d="M156.51,418.857l-20.874-11.643l-0.081-0.047c-0.889-0.418-1.749-0.896-2.558-1.422l-0.683-0.465
			c-3.483-2.477-5.731-5.746-6.013-8.752c-0.096-1.041,0.045-2.027,0.422-2.926c0.899-2.154,3.079-3.664,6.134-4.256
			c3.255-0.627,7.057-0.135,10.703,1.391c2.456,1.027,4.653,2.461,6.402,4.156l-0.36-3.85c-1.508-1.105-3.193-2.057-4.995-2.809
			c-4.133-1.729-8.488-2.279-12.263-1.553c-3.975,0.768-6.86,2.852-8.122,5.871c-0.55,1.316-0.759,2.736-0.62,4.227
			c0.331,3.523,2.554,7.102,6.154,9.965l-0.126,0.219l1.927,1.078c0.888,0.574,1.826,1.096,2.797,1.555l18.089,10.094
			c0.457,0.059,0.92,0.074,1.383,0.031C154.771,419.634,155.667,419.333,156.51,418.857z"/>
		<path fill="#CC9966" d="M146.168,413.929l-3.286-0.674c3.598,6.395,3.806,13.473,0.655,17.889
			C148.006,427.644,148.899,420.671,146.168,413.929z"/>
		<path fill="#CC9966" d="M128.966,390.4c1.601-8.066,5.887-13.896,10.278-14.539c-5.082-1.244-10.577,5.178-12.396,14.617
			c-0.008,0.041-0.016,0.078-0.023,0.121L128.966,390.4z"/>
	</g>
	<path fill="#009933" d="M290.055,305.875c-8.015-11.022-18.127-16.883-35.186-13.627c-1.027,0.195-2.03,0.438-3.026,0.697
		c-9.677-6.757-21.813-9.761-34.138-7.406c-14.896,2.844-26.65,12.857-32.581,25.939c-23.738,5.627-20.375,29.545-14.82,58.643
		c5.683,29.771,13.229,58.176,37.942,53.455c2.486-0.473,19.518-4.756,26.764-6.143c19.113-3.648,32.623-17.824,31.318-32.293
		c2.031-0.104,4.081-0.344,6.136-0.736c0.415-0.078,0.822-0.178,1.233-0.268c4.164,10.447,15.188,18.994,26.025,16.807
		c17.09-3.455,24.734-11.012,11.688-42.193C311.41,358.75,298.07,316.898,290.055,305.875z"/>
	<path fill="#CCCCCC" d="M150.611,431.273"/>
	<path fill="#333333" d="M192.902,338.265"/>
	<path fill="#3399CC" d="M258.352,360.615c0.362,1.9-0.885,3.736-2.783,4.1c-1.899,0.361-3.735-0.883-4.098-2.785
		c-0.361-1.896,0.883-3.732,2.781-4.096C256.154,357.468,257.989,358.716,258.352,360.615z"/>
	<path fill="#3399CC" d="M266.257,383.951c0.359,1.9-0.885,3.736-2.784,4.1c-1.899,0.361-3.734-0.885-4.099-2.785
		c-0.36-1.898,0.885-3.732,2.784-4.094C264.061,380.806,265.893,382.052,266.257,383.951z"/>
	<path fill="#336600" d="M300.322,359.251l-12.262-33.75c-7.129,17.166-22.131,31.936-42.3,39.262
		c-28.938,10.516-59.567,2.473-76.15-17.893c0.082,6.008,1.141,12.037,3.273,17.908c11.461,31.549,49.576,46.648,85.136,33.727
		C278.184,391.181,293.191,376.417,300.322,359.251z"/>
	<path fill="#336600" d="M298.529,336.994l-15.383-32.449c-5.482,17.758-19.026,33.873-38.414,43.066
		c-27.822,13.188-59.074,8.062-77.498-10.648c0.647,5.969,2.267,11.875,4.944,17.521c14.379,30.328,53.744,41.773,87.932,25.566
		C279.496,370.861,293.047,354.748,298.529,336.994z"/>
	<path fill="#009933" d="M294.212,352.515l-13.2-36.328c-6.238,17.953-20.195,33.059-39.451,40.053
		c-27.635,10.041-57.63,0.305-74.493-21.973c0.314,6.383,1.574,12.828,3.87,19.15c12.336,33.953,49.861,51.477,83.813,39.143
		C274.006,385.566,287.973,370.466,294.212,352.515z"/>
	<g>
		
			<radialGradient id="SVGID_2_" cx="2495.7861" cy="-3276.7563" r="38.3441" gradientTransform="matrix(0.0349 -0.9994 -0.9994 -0.0349 -3056.5569 2698.6052)" gradientUnits="userSpaceOnUse">
			<stop  offset="0" style="stop-color:#F9D8B7"/>
			<stop  offset="1" style="stop-color:#FFCC99"/>
		</radialGradient>
		<path fill="url(#SVGID_2_)" d="M301.426,292.071c-0.179,0.548-0.33,1.097-0.458,1.646c-1.707-2.45-3.964-4.262-6.692-5.163
			c-3.885-1.29-8.105-0.525-12.012,1.797c-4.854,1.817-8.896,5.772-10.668,11.128c-0.263,0.793-4.123,16.721-3.33,21.492
			c-2.923,14.451,16.668,32.586,17.975,32.725c7.008,3.83,19.408,3.242,31.793-2.203c6.361-2.791,11.783-6.461,15.812-10.42
			c3.34-2.129,6.01-5.4,7.359-9.484c2.354-7.1,0.04-14.604-5.256-19.111c-0.272-2.916-1.264-5.697-2.846-8.1
			c0.598-1.035,1.096-2.144,1.487-3.32c3.081-9.309-1.846-19.314-11.001-22.348C314.432,277.678,304.508,282.764,301.426,292.071z"
			/>
		<path fill="#CC9966" d="M327.288,286c4.293,5.629,8.812,9.808,3.56,19.838c-0.236,0.361-0.229,0.656-0.695,1.258
			c-1.537,2.672-3.728,5.734-6.744,9.322c7.336-5.645,3.301-2.598,8.189-6.328c0.36-0.271,0.692-0.562,1.016-0.857
			c1.259,1.205,2.209,2.535,2.31,4.588c0.374,1.486-0.356,3.01-0.588,3.754c-0.508,1.646-1.367,3.605-2.694,6.01
			c3.23-3.686,1.448-1.689,3.604-4.125c0.104-0.115,0.188-0.238,0.282-0.357c4.748,6.199,7.605,12.266-5.512,28.143
			c7.236-5.578,3.312-2.783,8.135-6.465c7.199-5.496,6.558-15.604,0.838-23.096c-0.604-0.787-1.26-1.51-1.959-2.166
			c0.32-2.699-0.877-5.553-3.072-7.68c4.747-5.737,3.811-14.184-1.066-20.575c-3.091-4.054-7.685-6.282-12.404-6.513
			C323.086,281.833,325.453,283.591,327.288,286z"/>
		<path fill="#CC9966" d="M298.199,298.822c-1.752,0.26-3.399,0.617-4.823,1.358c1.29,0.18,2.897,0.276,4.42,0.231
			c-0.793,3.068-1.696,5.955-1.431,8.684c1.041-1.812,2.191-4.397,2.691-6.504c0.189-0.795,0.393-1.573,0.631-2.332
			c0.053-0.008,0.301-0.94,0.625-1.721c1.852-4.48,5.416-7.892,14.297-8.768c-4.197-0.966-1.91-0.406-4.693-1.066
			C305.834,287.742,299.837,292.583,298.199,298.822z"/>
		<path fill="#CC9966" d="M292.833,358.763c5.199,0.645,18.431-0.207,21.976-3.363c-2.66,1.076-13.93,0.01-17.012-0.371
			c-9.354-1.156-18.02-6.502-26.908-17.441C272.453,347.818,283.479,357.607,292.833,358.763z"/>
	</g>
	<g>
		<path fill="#FFCC99" d="M342.947,105.438c7.49,14.662,13.104,28.41,5.996,32.045c-7.11,3.634-20.938-4.898-28.43-19.56
			c-7.494-14.661-2.248-32.695,4.859-36.33C332.482,77.96,335.451,90.779,342.947,105.438z"/>
	</g>
	<g>
		<path fill="#CC9966" d="M339.496,108.197c-1.471-6.835-3.312-12.863-6.627-12.152c-3.312,0.712-9.852,10.084-4.104,14.066
			c8.625,5.976,7.439,4.543,11.351,10.646C341.939,123.612,340.963,115.032,339.496,108.197z"/>
	</g>
	
		<radialGradient id="SVGID_3_" cx="-1611.6816" cy="144.814" r="52.8801" gradientTransform="matrix(0.9805 -0.1964 -0.1964 -0.9805 1651.7822 129.9999)" gradientUnits="userSpaceOnUse">
		<stop  offset="0" style="stop-color:#DD4B24"/>
		<stop  offset="1" style="stop-color:#CC3300"/>
	</radialGradient>
	<path fill="url(#SVGID_3_)" d="M55.677,233.611c-17.747,11.048-32.838,35.811-38.263,66.378
		c-5.426,30.562,0.222,59.005,13.084,75.487c17.746-11.049,32.836-35.811,38.263-66.375
		C74.187,278.537,68.538,250.091,55.677,233.611z"/>
	
		<radialGradient id="SVGID_4_" cx="127.9121" cy="320.7476" r="155.8967" gradientTransform="matrix(0.9798 -0.2 -0.2 -0.9798 113.8458 505.1596)" gradientUnits="userSpaceOnUse">
		<stop  offset="0" style="stop-color:#F9D8B7"/>
		<stop  offset="1" style="stop-color:#FFCC99"/>
	</radialGradient>
	<path fill="url(#SVGID_4_)" d="M133.66,23.48c-58.047,22.47-94.042,77.243-95.417,135.823c-3.135-3.671-6.72-5.547-10.734-4.944
		c-12.07,1.812-14.218,21.672-10.482,46.561c3.736,24.889,11.941,45.381,24.01,43.569c6.742-1.009,10.386-7.658,11.639-17.664
		c33.188,70.057,115.358,103.622,188.807,75.189c76.916-29.772,115.132-116.262,85.358-193.178
		C297.064,31.922,210.577-6.293,133.66,23.48z"/>
	<path fill="#CC9966" d="M24.584,196.825c-0.604-12.061-0.685-22.958,2.218-23.331c2.904-0.37,10.732,12.153,7.078,21.476
		c-5.488,13.995-4.896,11.055-6.484,23.046C26.655,223.623,25.188,208.886,24.584,196.825z"/>
	<path fill="#CC9966" d="M271.381,170.526c1.12,5.489-2.422,10.847-7.91,11.967c-5.488,1.12-10.844-2.422-11.964-7.911
		c-1.123-5.487,2.418-10.845,7.909-11.965C264.902,161.497,270.259,165.038,271.381,170.526z"/>
	<path fill="#CC9966" d="M192.491,191.624c1.711,8.379-3.697,16.559-12.08,18.27c-8.376,1.71-16.557-3.697-18.268-12.077
		c-1.71-8.379,3.697-16.56,12.076-18.269C182.601,177.838,190.78,183.245,192.491,191.624z"/>
	<circle cx="173.944" cy="191.367" r="12.816"/>
	<circle fill="#FFFFFF" cx="175.312" cy="187.025" r="5.742"/>
	<g>
		<path fill="#CC9966" d="M229.018,214.946c-3.006,0.613-7.57-0.845-8.576-1.186l0.873-2.56c2.344,0.794,6.397,1.638,7.656,0.935
			c0.149-0.083,0.163-0.143,0.176-0.199c0.371-1.64-2.785-4.951-5.028-6.67l1.642-2.15c1.162,0.888,6.905,5.51,6.025,9.415
			c-0.191,0.844-0.707,1.524-1.493,1.964C229.918,214.705,229.484,214.85,229.018,214.946z"/>
	</g>
	<path d="M164.308,186.189c1.131,0.065,0.747,6.639-2.052,6.867c-2.8,0.227-9.312-15.612-9.312-15.612
		S159.178,185.349,164.308,186.189z"/>
	<path d="M168.798,181.08c0.984,0.296-0.742,6.031-3.268,5.64c-2.523-0.391-4.939-15.775-4.939-15.775
		S164.436,179.253,168.798,181.08z"/>
	<path d="M173.739,178.819c0.621,0.476-2.148,4.084-3.835,3.127c-1.688-0.956,0.728-12.531,0.728-12.531
		S171.133,176.351,173.739,178.819z"/>
	<polygon fill="#CC3333" points="190.466,167.095 197.062,164.387 175.828,146.139 155.619,150.335 158.094,154.398 174.909,151.24 
			"/>
	<polygon fill="#CC3333" points="241.564,154.4 236.199,155.705 241.203,134.591 255.788,128.021 256.085,131.696 244.104,137.373 	
		"/>
	<path d="M261.105,163.887c-0.504,0.688,3.492,3.612,4.968,2.096c1.472-1.516-4.601-12.875-4.601-12.875
		S263.076,160.51,261.105,163.887z"/>
	<path d="M255.993,164.046c-0.3,0.713,3.854,2.457,4.835,0.805c0.982-1.652-6.786-10.417-6.786-10.417
		S257.021,160.642,255.993,164.046z"/>
	<path d="M252.451,166.493c-0.021,0.588,3.396,0.709,3.65-0.727c0.252-1.438-7.617-5.576-7.617-5.576
		S252.268,163.799,252.451,166.493z"/>
	<circle cx="259.672" cy="171.766" r="9.015"/>
	<circle fill="#FFFFFF" cx="258.82" cy="168.719" r="4.058"/>
	<path d="M228.125,249.676c-46.779,12.093-91.082-0.354-103.47-27.853c-4.48,9.623-5.847,19.6-3.375,29.168
		c8.206,31.738,55.5,46.961,105.639,34c50.136-12.963,84.129-49.201,75.922-80.939c-0.55-2.126-1.278-4.176-2.171-6.149
		C290.285,220.207,263.146,240.621,228.125,249.676z"/>
	<path fill="#CC9999" d="M214.236,260.333c-21.053,5.442-35.875,18.569-33.172,29.357c14.23,1.217,29.915-0.047,45.896-4.178
		c11.177-2.891,21.546-6.938,30.83-11.831c0.108-1.245,0.026-2.476-0.28-3.673C254.717,259.21,235.346,254.877,214.236,260.333z"/>
	<polygon fill="none" stroke="#000000" stroke-width="10" stroke-miterlimit="10" points="200.288,228.513 129.019,214.071 
		128.289,163.152 209.82,156.866 	"/>
	<polygon fill="none" stroke="#000000" stroke-width="10" stroke-miterlimit="10" points="251.219,211.56 302.95,180.99 
		286.552,124.296 223.951,155.706 	"/>
	<polygon points="229.766,164.208 208.047,168.641 209.539,159.037 225.294,155.822 	"/>
	<path fill="#CC9966" d="M221.518,302.555c-83.546,17.05-165.097-36.856-182.146-120.403c-2.108-10.328-3.128-20.625-3.145-30.773
		c-1.349,14.347-0.641,29.131,2.39,43.982c16.52,80.954,95.541,133.188,176.496,116.67c37.475-7.648,68.787-28.695,89.979-57.12
		C283.785,278.484,255.041,295.712,221.518,302.555z"/>
	<polygon points="128.144,183.301 36.848,164.666 35.162,156.402 125.606,160.717 	"/>
	
		<radialGradient id="SVGID_5_" cx="138.6948" cy="410.2769" r="111.7482" gradientTransform="matrix(0.9798 -0.2 -0.2 -0.9798 113.8458 505.1596)" gradientUnits="userSpaceOnUse">
		<stop  offset="0" style="stop-color:#DD4B24"/>
		<stop  offset="1" style="stop-color:#CC3300"/>
	</radialGradient>
	<path fill="url(#SVGID_5_)" d="M319.898,89.545C282.87,25.596,203.801-3.682,132.722,23.833
		c-57.99,22.448-94.449,76.429-97.398,134.762c3.251,1.31,6.657,2.032,10.17,2.082c23.978,0.334,43.851-30.593,44.388-69.079
		c0.043-3.048-0.038-6.052-0.234-9c34.71,28.523,100.345,39.844,170.892,25.447C281.846,103.698,301.82,97.364,319.898,89.545z"/>
</g>
</svg>
