<?xml version="1.0" encoding="utf-8"?>
<!-- Generator: Adobe Illustrator 16.0.0, SVG Export Plug-In . SVG Version: 6.00 Build 0)  -->
<!DOCTYPE svg PUBLIC "-//W3C//DTD SVG 1.1//EN" "http://www.w3.org/Graphics/SVG/1.1/DTD/svg11.dtd">
<svg version="1.1" xmlns="http://www.w3.org/2000/svg" xmlns:xlink="http://www.w3.org/1999/xlink" x="0px" y="0px"
	 width="573.975px" height="486px" viewBox="0 0 573.975 486" enable-background="new 0 0 573.975 486" xml:space="preserve">
<g id="BG">
</g>
<g id="Type">
	<rect x="3.072" y="1.17" fill="none" width="554.622" height="46.462"/>
	<text transform="matrix(1 0 0 1 163.6504 44.46)" fill="#FFFFFF" font-family="'Futura-Medium'" font-size="52.4734">YOU ARE</text>
	<rect x="419.975" y="32" fill="#FFFFFF" width="141" height="3"/>
	<rect x="3.975" y="24" fill="#FFFFFF" width="145" height="5"/>
	<g>
		<path fill="#FFFFFF" d="M55.669,187.723c-6.692,0-12.548-0.783-17.566-2.352c-5.019-1.57-9.289-3.738-12.819-6.51
			c-3.528-2.77-6.324-6.062-8.389-9.879c-2.067-3.815-3.49-7.999-4.273-12.545h18.973c0.683,2.77,1.649,5.37,2.904,7.798
			c1.253,2.435,2.847,4.539,4.783,6.315c1.932,1.777,4.229,3.177,6.9,4.194c2.664,1.02,5.748,1.529,9.251,1.529
			c2.356,0,4.665-0.248,6.941-0.746c2.271-0.496,4.31-1.293,6.117-2.39c1.801-1.1,3.251-2.55,4.352-4.354
			c1.097-1.802,1.646-4.01,1.646-6.626c0-3.343-0.852-6.298-2.549-8.858c-1.701-2.562-3.949-4.903-6.744-7.018
			c-2.796-2.12-5.986-4.092-9.563-5.922c-3.585-1.831-7.228-3.673-10.944-5.527c-3.709-1.856-7.354-3.792-10.936-5.802
			c-3.582-2.014-6.77-4.273-9.568-6.784c-2.795-2.51-5.044-5.331-6.742-8.47c-1.699-3.135-2.548-6.741-2.548-10.821
			c0-4.441,0.967-8.56,2.898-12.349c1.938-3.79,4.747-7.069,8.432-9.841c3.688-2.771,8.194-4.939,13.525-6.51
			c5.333-1.568,11.398-2.352,18.19-2.352c5.648,0,10.745,0.783,15.291,2.352c4.55,1.57,8.562,3.7,12.041,6.391
			c3.475,2.693,6.4,5.87,8.78,9.529c2.378,3.659,4.197,7.604,5.452,11.84H82.252c-0.996-2.666-2.145-5.201-3.45-7.606
			c-1.309-2.404-2.927-4.521-4.862-6.351c-1.937-1.831-4.264-3.281-6.979-4.353c-2.717-1.071-5.986-1.608-9.802-1.608
			c-3.555,0-6.562,0.472-9.019,1.411c-2.457,0.941-4.443,2.13-5.961,3.568c-1.514,1.439-2.601,3.046-3.253,4.824
			c-0.655,1.776-0.979,3.528-0.979,5.254c0,2.979,0.873,5.684,2.628,8.112c1.751,2.434,4.076,4.68,6.977,6.746
			c2.903,2.064,6.183,4.051,9.843,5.959c3.656,1.907,7.407,3.83,11.252,5.765c3.84,1.933,7.604,3.946,11.291,6.037
			c3.686,2.091,6.977,4.403,9.88,6.939c2.899,2.534,5.228,5.345,6.978,8.429c1.75,3.086,2.628,6.562,2.628,10.429
			c0,4.548-0.94,8.771-2.824,12.665c-1.878,3.892-4.664,7.29-8.35,10.193c-3.687,2.899-8.261,5.176-13.724,6.821
			C69.063,186.901,62.777,187.723,55.669,187.723z"/>
		<path fill="#FFFFFF" d="M215.869,74.338v9.487h-38.662v102.173h-27.364V83.825h-38.655v-9.487H215.869z"/>
		<path fill="#FFFFFF" d="M280.252,188.508c-6.01,0-11.761-0.667-17.25-2.001c-5.488-1.329-10.584-3.228-15.289-5.685
			c-4.705-2.456-8.994-5.436-12.86-8.938c-3.868-3.502-7.163-7.45-9.885-11.84c-2.714-4.393-4.817-9.163-6.31-14.312
			c-1.486-5.148-2.232-10.597-2.232-16.349c0-5.644,0.746-10.99,2.232-16.034c1.492-5.046,3.596-9.686,6.31-13.918
			c2.722-4.234,6.017-8.063,9.885-11.488c3.866-3.423,8.155-6.313,12.86-8.665c4.705-2.354,9.801-4.168,15.289-5.449
			c5.489-1.282,11.24-1.922,17.25-1.922c6.012,0,11.764,0.64,17.252,1.922c5.488,1.281,10.584,3.109,15.289,5.49
			c4.706,2.377,8.993,5.266,12.858,8.664c3.87,3.398,7.164,7.214,9.882,11.448c2.719,4.232,4.824,8.861,6.316,13.879
			c1.487,5.019,2.233,10.325,2.233,15.917c0,5.908-0.746,11.478-2.233,16.702c-1.492,5.229-3.598,10.037-6.316,14.429
			c-2.718,4.392-6.012,8.325-9.882,11.802c-3.865,3.476-8.152,6.429-12.858,8.858c-4.705,2.434-9.801,4.287-15.289,5.569
			C292.016,187.867,286.264,188.508,280.252,188.508z M280.252,179.021c5.439,0,10.232-1.243,14.391-3.725
			c4.154-2.485,7.646-5.933,10.469-10.352c2.822-4.418,4.952-9.657,6.39-15.723c1.436-6.062,2.155-12.677,2.155-19.839
			c0-7.057-0.72-13.524-2.155-19.408c-1.438-5.879-3.567-10.938-6.39-15.17c-2.822-4.234-6.314-7.529-10.469-9.881
			c-4.158-2.353-8.951-3.528-14.391-3.528c-5.487,0-10.323,1.176-14.508,3.528c-4.179,2.352-7.67,5.646-10.465,9.881
			c-2.798,4.231-4.916,9.291-6.354,15.17c-1.438,5.884-2.152,12.352-2.152,19.408c0,7.162,0.715,13.776,2.152,19.839
			c1.438,6.065,3.556,11.305,6.354,15.723c2.795,4.419,6.286,7.866,10.465,10.352C269.929,177.777,274.765,179.021,280.252,179.021z
			"/>
		<path fill="#FFFFFF" d="M359.224,74.338h17.483l63.674,71.041V74.338h17.168v113.385h-11.838l-69.161-78.412v76.688h-17.326
			V74.338z"/>
		<path fill="#FFFFFF" d="M561.927,74.338v9.487H505.94v36.854h46.495v9.565H505.94v44.305h55.986v11.448h-83.351V74.338H561.927z"
			/>
		<path fill="#FFFFFF" d="M38.124,271.549c0,8.246,1.253,15.535,3.763,21.867c2.51,6.334,5.838,11.649,9.991,15.952
			c4.153,4.301,8.931,7.559,14.339,9.768c5.406,2.211,11.005,3.316,16.805,3.316c4.48,0,8.647-0.777,12.501-2.331
			c3.853-1.552,7.465-3.63,10.843-6.227c3.373-2.6,6.525-5.616,9.453-9.053c2.928-3.435,5.734-7.062,8.424-10.889l13.086,9.588
			c-2.812,4.544-6.2,8.903-10.172,13.084c-3.979,4.185-8.441,7.888-13.396,11.115c-4.961,3.225-10.369,5.795-16.222,7.704
			c-5.858,1.911-12.038,2.869-18.552,2.869c-10.993,0-21.102-1.6-30.332-4.796c-9.232-3.195-17.206-7.721-23.928-13.575
			c-6.721-5.854-11.965-12.874-15.73-21.061c-3.762-8.183-5.642-17.295-5.642-27.333c0-6.452,0.805-12.59,2.417-18.415
			c1.613-5.825,3.928-11.216,6.948-16.175c3.013-4.959,6.698-9.426,11.063-13.399c4.36-3.971,9.277-7.361,14.74-10.17
			c5.472-2.807,11.456-4.957,17.971-6.451c6.511-1.493,13.408-2.241,20.701-2.241c7.349,0,14.082,0.851,20.205,2.554
			c6.125,1.703,11.682,4.095,16.672,7.17c4.986,3.078,9.437,6.735,13.354,10.979c3.911,4.24,7.359,8.871,10.35,13.89l-13.264,9.23
			c-2.688-3.825-5.602-7.424-8.738-10.799c-3.135-3.375-6.495-6.333-10.081-8.873c-3.584-2.538-7.347-4.555-11.291-6.049
			c-3.943-1.491-8.066-2.24-12.367-2.24c-5.858,0-11.443,1.105-16.759,3.316c-5.319,2.211-9.992,5.466-14.022,9.768
			c-4.034,4.303-7.233,9.62-9.59,15.951C39.301,255.927,38.124,263.246,38.124,271.549z"/>
		<path fill="#FFFFFF" d="M222.198,338.313c-6.872,0-13.442-0.763-19.717-2.285c-6.269-1.524-12.097-3.688-17.474-6.498
			c-5.376-2.807-10.277-6.213-14.697-10.215c-4.423-4.003-8.188-8.516-11.291-13.532c-3.109-5.019-5.512-10.469-7.213-16.354
			c-1.705-5.885-2.556-12.112-2.556-18.686c0-6.452,0.851-12.561,2.556-18.325c1.701-5.765,4.104-11.069,7.213-15.908
			c3.104-4.837,6.868-9.215,11.291-13.126c4.42-3.917,9.321-7.216,14.697-9.903c5.377-2.69,11.205-4.765,17.474-6.229
			c6.274-1.464,12.845-2.195,19.717-2.195c6.869,0,13.442,0.731,19.717,2.195c6.271,1.465,12.096,3.556,17.473,6.273
			c5.378,2.72,10.274,6.02,14.699,9.902c4.419,3.882,8.183,8.246,11.292,13.083c3.104,4.839,5.511,10.128,7.212,15.861
			c1.704,5.736,2.554,11.801,2.554,18.193c0,6.752-0.85,13.114-2.554,19.088c-1.701,5.975-4.108,11.471-7.212,16.489
			c-3.109,5.017-6.873,9.515-11.292,13.486c-4.425,3.974-9.321,7.35-14.699,10.128c-5.377,2.777-11.201,4.9-17.473,6.36
			C235.641,337.58,229.067,338.313,222.198,338.313z M222.198,327.47c6.211,0,11.694-1.419,16.445-4.257
			c4.749-2.839,8.737-6.78,11.964-11.828c3.225-5.049,5.658-11.039,7.301-17.969c1.644-6.929,2.469-14.486,2.469-22.673
			c0-8.065-0.825-15.46-2.469-22.18c-1.643-6.722-4.076-12.501-7.301-17.34c-3.227-4.838-7.215-8.604-11.964-11.292
			c-4.751-2.688-10.234-4.032-16.445-4.032c-6.273,0-11.799,1.344-16.579,4.032c-4.781,2.688-8.77,6.454-11.964,11.292
			c-3.196,4.839-5.617,10.618-7.259,17.34c-1.645,6.72-2.464,14.114-2.464,22.18c0,8.187,0.819,15.744,2.464,22.673
			c1.642,6.93,4.062,12.92,7.259,17.969c3.194,5.048,7.183,8.989,11.964,11.828C210.399,326.051,215.925,327.47,222.198,327.47z"/>
		<path fill="#FFFFFF" d="M316.118,207.833h31.274v114.526h65.151v13.085h-96.426V207.833z"/>
		<path fill="#FFFFFF" d="M432.708,207.833h46.329c11.888,0,22.821,1.39,32.799,4.168c9.976,2.778,18.564,6.842,25.766,12.188
			c7.196,5.348,12.801,11.904,16.803,19.67c3.999,7.768,6.003,16.64,6.003,26.617c0,8.961-1.688,17.4-5.061,25.313
			c-3.377,7.918-8.321,14.805-14.836,20.658c-6.509,5.855-14.502,10.484-23.97,13.889c-9.469,3.407-20.328,5.108-32.576,5.108
			h-51.257V207.833z M463.984,322.359h16.668c6.152,0,11.946-1.132,17.383-3.403c5.436-2.269,10.184-5.602,14.253-9.991
			c4.057-4.393,7.269-9.783,9.63-16.176c2.359-6.392,3.54-13.74,3.54-22.046c0-7.17-1.104-13.801-3.313-19.895
			c-2.211-6.095-5.303-11.381-9.275-15.861c-3.977-4.482-8.71-7.977-14.208-10.485c-5.496-2.509-11.499-3.764-18.009-3.764h-16.668
			V322.359z"/>
		<path fill="#FFFFFF" d="M46.964,480.097c-6.831,0-12.804-0.8-17.924-2.399c-5.122-1.599-9.479-3.812-13.082-6.641
			c-3.601-2.827-6.453-6.188-8.56-10.082c-2.108-3.893-3.562-8.158-4.363-12.802h19.364c0.691,2.826,1.68,5.481,2.96,7.963
			c1.279,2.479,2.904,4.626,4.882,6.438c1.97,1.816,4.318,3.243,7.04,4.281c2.721,1.042,5.867,1.561,9.443,1.561
			c2.402,0,4.757-0.251,7.081-0.76c2.317-0.505,4.398-1.319,6.241-2.44c1.836-1.12,3.318-2.601,4.439-4.439
			c1.121-1.84,1.682-4.095,1.682-6.762c0-3.412-0.869-6.427-2.6-9.043c-1.735-2.609-4.031-4.998-6.882-7.161
			c-2.854-2.157-6.111-4.171-9.763-6.04c-3.656-1.865-7.377-3.746-11.164-5.64c-3.787-1.895-7.507-3.866-11.162-5.92
			c-3.65-2.056-6.908-4.361-9.764-6.923c-2.848-2.56-5.145-5.441-6.878-8.642s-2.599-6.88-2.599-11.041
			c0-4.533,0.984-8.734,2.961-12.604c1.972-3.864,4.84-7.213,8.6-10.041c3.762-2.826,8.363-5.041,13.803-6.642
			c5.439-1.6,11.629-2.398,18.562-2.398c5.764,0,10.964,0.799,15.605,2.398c4.638,1.601,8.733,3.776,12.281,6.521
			c3.55,2.747,6.535,5.987,8.963,9.721c2.425,3.737,4.277,7.762,5.558,12.083H74.088c-1.014-2.721-2.189-5.307-3.521-7.761
			c-1.334-2.453-2.987-4.615-4.96-6.481c-1.975-1.865-4.352-3.348-7.125-4.44c-2.772-1.093-6.107-1.64-9.998-1.64
			c-3.629,0-6.697,0.48-9.203,1.439c-2.508,0.96-4.535,2.175-6.08,3.64c-1.549,1.469-2.656,3.108-3.322,4.922
			c-0.667,1.814-1,3.602-1,5.36c0,3.042,0.892,5.801,2.682,8.28c1.786,2.48,4.161,4.775,7.12,6.882
			c2.962,2.107,6.306,4.134,10.043,6.082c3.729,1.948,7.559,3.908,11.48,5.88c3.919,1.975,7.76,4.029,11.524,6.162
			c3.757,2.133,7.118,4.494,10.083,7.08c2.955,2.588,5.329,5.458,7.117,8.604c1.787,3.145,2.68,6.694,2.68,10.64
			c0,4.641-0.96,8.95-2.878,12.922c-1.922,3.975-4.764,7.441-8.519,10.403c-3.765,2.961-8.433,5.279-14.009,6.959
			C60.633,479.259,54.213,480.097,46.964,480.097z"/>
		<path fill="#FFFFFF" d="M167.469,480.897c-6.135,0-12-0.68-17.603-2.039c-5.603-1.362-10.802-3.295-15.603-5.802
			c-4.801-2.505-9.176-5.547-13.123-9.119c-3.948-3.575-7.309-7.604-10.08-12.086c-2.775-4.479-4.92-9.347-6.443-14.601
			c-1.518-5.252-2.277-10.813-2.277-16.684c0-5.761,0.76-11.215,2.277-16.362c1.523-5.146,3.668-9.881,6.443-14.202
			c2.771-4.32,6.132-8.228,10.08-11.722c3.947-3.493,8.322-6.44,13.123-8.841c4.801-2.401,10-4.255,15.603-5.561
			s11.468-1.96,17.603-1.96s12.002,0.654,17.603,1.96c5.603,1.306,10.804,3.175,15.604,5.601c4.801,2.427,9.173,5.373,13.122,8.841
			c3.945,3.47,7.307,7.361,10.082,11.682c2.771,4.321,4.918,9.041,6.442,14.163c1.518,5.119,2.279,10.535,2.279,16.242
			c0,6.029-0.762,11.709-2.279,17.042c-1.524,5.336-3.671,10.241-6.442,14.725c-2.775,4.479-6.137,8.495-10.082,12.041
			c-3.949,3.547-8.321,6.56-13.122,9.04c-4.8,2.479-10.001,4.376-15.604,5.683C179.471,480.245,173.604,480.897,167.469,480.897z
			 M167.469,471.219c5.548,0,10.441-1.269,14.684-3.803c4.237-2.531,7.802-6.054,10.683-10.562
			c2.879-4.506,5.052-9.853,6.519-16.043c1.468-6.187,2.201-12.935,2.201-20.244c0-7.202-0.733-13.802-2.201-19.801
			c-1.467-6.002-3.64-11.162-6.519-15.485c-2.881-4.319-6.445-7.681-10.683-10.08c-4.242-2.399-9.136-3.601-14.684-3.601
			c-5.602,0-10.535,1.201-14.801,3.601c-4.27,2.399-7.83,5.761-10.68,10.08c-2.855,4.323-5.018,9.483-6.483,15.485
			c-1.469,5.999-2.199,12.599-2.199,19.801c0,7.31,0.73,14.058,2.199,20.244c1.466,6.19,3.628,11.537,6.483,16.043
			c2.85,4.508,6.41,8.03,10.68,10.562C156.934,469.95,161.867,471.219,167.469,471.219z"/>
		<path fill="#FFFFFF" d="M248.051,364.398h48.885c6.562,0,12.576,0.694,18.045,2.08c5.469,1.389,10.161,3.361,14.083,5.923
			c3.918,2.561,6.972,5.627,9.159,9.199c2.189,3.576,3.283,7.55,3.283,11.923c0,2.722-0.296,5.216-0.881,7.481
			c-0.59,2.268-1.552,4.416-2.881,6.44c-1.334,2.029-3.121,3.976-5.359,5.842c-2.244,1.868-4.99,3.735-8.243,5.601
			c3.361,1.067,6.438,2.496,9.244,4.283c2.795,1.785,5.227,3.854,7.276,6.2c2.056,2.346,3.656,4.96,4.801,7.84
			c1.148,2.881,1.723,5.947,1.723,9.201c0,4.479-1.026,8.656-3.078,12.523c-2.057,3.868-4.963,7.24-8.726,10.12
			c-3.757,2.881-8.292,5.148-13.604,6.801c-5.306,1.655-11.187,2.479-17.639,2.479h-56.089V364.398z M275.972,413.769h18.484
			c2.933,0,5.561-0.467,7.884-1.402c2.316-0.934,4.279-2.226,5.881-3.88c1.601-1.652,2.824-3.614,3.68-5.881
			c0.852-2.267,1.28-4.762,1.28-7.482c0-2.931-0.522-5.639-1.562-8.119c-1.041-2.481-2.653-4.601-4.84-6.363
			c-2.188-1.76-4.962-3.133-8.321-4.12c-3.36-0.984-7.362-1.479-12.002-1.479h-10.484V413.769z M275.972,466.656h15.444
			c4.533,0,8.454-0.492,11.763-1.481c3.308-0.986,6.043-2.332,8.2-4.04c2.163-1.705,3.763-3.745,4.8-6.121
			c1.044-2.373,1.562-4.974,1.562-7.801c0-3.2-0.481-6.163-1.44-8.883c-0.959-2.717-2.508-5.08-4.642-7.079
			c-2.133-2.002-4.945-3.574-8.441-4.724c-3.492-1.145-7.748-1.719-12.76-1.719h-14.485V466.656z"/>
		<path fill="#FFFFFF" d="M448.889,364.398v9.68H391.76v37.608h47.449v9.763H391.76v45.207h57.129v11.68h-85.053V364.398H448.889z"
			/>
		<path fill="#FFFFFF" d="M468.814,364.398h42.809c7.361,0,13.812,0.774,19.365,2.32c5.543,1.548,10.158,3.708,13.84,6.48
			c3.682,2.776,6.441,6.056,8.28,9.844c1.843,3.787,2.763,7.919,2.763,12.4c0,3.202-0.628,6.257-1.88,9.161
			c-1.253,2.907-3.03,5.577-5.322,8.003c-2.293,2.427-5.041,4.587-8.241,6.481c-3.201,1.893-6.751,3.454-10.641,4.679l40.563,54.568
			h-30.325l-38.322-51.607h-4.961v51.607h-27.928V364.398z M496.742,416.889h6.08c3.412,0,6.571-0.482,9.48-1.441
			c2.906-0.961,5.426-2.332,7.562-4.12c2.13-1.785,3.812-3.973,5.04-6.561c1.229-2.587,1.843-5.509,1.843-8.763
			c0-2.986-0.47-5.733-1.4-8.241c-0.935-2.506-2.231-4.683-3.882-6.521c-1.652-1.841-3.614-3.268-5.88-4.28
			c-2.271-1.014-4.762-1.521-7.482-1.521h-11.36V416.889z"/>
	</g>
</g>
<g id="Face">
</g>
<g id="Beer_Gauge_1_">
</g>
<g id="Beer_Gauge">
</g>
<g id="Tweet_x2F_Share">
</g>
<g id="Replay_x2F_Select">
</g>
<g id="Time_Alotted">
</g>
</svg>
