<?xml version="1.0" encoding="utf-8"?>
<!-- Generator: Adobe Illustrator 16.0.1, SVG Export Plug-In . SVG Version: 6.00 Build 0)  -->
<!DOCTYPE svg PUBLIC "-//W3C//DTD SVG 1.1//EN" "http://www.w3.org/Graphics/SVG/1.1/DTD/svg11.dtd">
<svg version="1.1" id="Layer_1" xmlns="http://www.w3.org/2000/svg" xmlns:xlink="http://www.w3.org/1999/xlink" x="0px" y="0px"
	 width="684.146px" height="146px" viewBox="0 0 684.146 146" enable-background="new 0 0 684.146 146" xml:space="preserve">
<g>
	<path fill="#FFFFFF" d="M0.469,75.446c0.375-0.732,7.675-1.863,21.9-3.393c12.599-1.37,20.524-2.055,23.775-2.055
		c0.406,0,0.75,0.017,1.032,0.048c1.719,0.064,3.33,4.795,4.83,14.194c1.375,8.667,2.063,14.481,2.063,17.444
		c0,0.258,0,0.484,0,0.677c0,1.56-1.282,4.487-3.845,8.784c3.47,0.445,5.423,1.465,5.862,3.058c0.562,1.753,1.297,5.94,2.204,12.565
		c0.531,4.045,0.812,7.136,0.844,9.27c0,1.402-0.125,2.405-0.375,3.01h-0.094H2.767c-0.438-5.797-1-17.68-1.688-35.647
		c-0.469-12.36-0.72-20.627-0.75-24.8C0.328,76.688,0.375,75.638,0.469,75.446z M16.976,98.106c0.312,4.481,0.61,6.915,0.891,7.301
		c0.062,0.064,0.171,0.098,0.329,0.098c0.844,0,3.001-0.629,6.471-1.887c4.221-1.547,6.472-2.658,6.753-3.336
		c0.188-0.58-0.04-1.289-0.68-2.127c-0.641-0.838-1.259-1.418-1.852-1.741c-0.157-0.097-0.532-0.146-1.125-0.146
		c-1.032,0-2.736,0.146-5.112,0.436C18.929,97.188,17.038,97.655,16.976,98.106z M19.32,115.829
		c-0.094,0.154-0.157,0.494-0.188,1.018c0,0.741,0.109,1.836,0.329,3.285c0.343,2.499,0.672,3.748,0.984,3.748
		c0.563,0,2.58-0.494,6.05-1.48c3.47-0.987,5.205-1.696,5.205-2.129c0-0.432-0.243-1.232-0.727-2.405
		c-0.485-1.173-0.852-1.79-1.102-1.851c-0.844-0.123-2.626-0.263-5.346-0.416c-0.907-0.062-1.705-0.094-2.392-0.094
		C20.758,115.505,19.82,115.614,19.32,115.829z"/>
	<path fill="#FFFFFF" d="M60.522,69.736c0-0.271,8.427-1.237,25.281-2.897c16.853-1.66,25.795-2.49,26.823-2.49
		c0.531,0,0.846,5.205,0.946,15.615c0.033,2.408,0.05,4.545,0.05,6.409c0,6.205-0.133,9.409-0.398,9.612
		c-0.531,0.271-5.997,0.736-16.397,1.396s-16.083,0.99-17.045,0.99c-0.266,0.34-0.398,0.855-0.398,1.549
		c0,0.695,0.132,1.193,0.398,1.498c0.132,0,3.666-0.295,10.6-0.889c6.934-0.592,10.65-0.889,11.147-0.889
		c0.265,0,0.514,2.463,0.747,7.389c0.232,4.926,0.349,8.049,0.349,9.369c0,0.137-1.85,0.355-5.549,0.66
		c-3.7,0.305-7.473,0.609-11.321,0.914c-3.849,0.305-5.84,0.543-5.972,0.711c0,2.438,0.215,3.859,0.647,4.266
		c0.066,0,1.369-0.092,3.907-0.279c2.538-0.186,5.457-0.363,8.759-0.533c3.301-0.168,6.768-0.338,10.401-0.508
		c3.633-0.168,6.552-0.254,8.759-0.254c2.206,0,3.475,0.102,3.807,0.305c0.331,0.678,0.597,3.133,0.796,7.363
		c0.066,1.625,0.099,3.133,0.099,4.52c0,2.168-0.083,3.996-0.249,5.484h-50.86c-0.83,0-1.443-0.203-1.841-0.609
		c-0.266-0.338-0.979-11.807-2.14-34.402c-0.929-18.294-1.394-29.27-1.394-32.928C60.439,70.261,60.456,69.804,60.522,69.736z"/>
	<path fill="#FFFFFF" d="M118.783,71.461c0.728-0.514,10.71-0.772,29.947-0.772s29.062,0.097,29.478,0.291
		c0.255,0.065,0.709,6.9,1.364,20.506c0.653,13.605,0.981,21.104,0.981,22.492c0,0.39-6.827,1.401-20.48,3.037
		c-13.654,1.636-20.943,2.453-21.868,2.453c-0.128,0.088-0.175,0.326-0.141,0.715c0.034,0.39,0.13,0.832,0.29,1.324
		c0.159,0.494,0.335,0.774,0.526,0.842c0.255,0,6.316-0.553,18.184-1.66c11.867-1.105,17.928-1.66,18.184-1.66
		c0.255,0,0.742,2.385,1.459,7.154c0.718,4.769,1.316,9.057,1.794,12.865h-56.666c-0.226-3.771-0.671-11.199-1.336-22.287
		c-0.666-11.086-1.173-21.359-1.524-30.82c-0.191-5.92-0.287-10.022-0.287-12.307C118.687,72.25,118.718,71.526,118.783,71.461z
		 M136.742,101.257c-0.096,0.098-0.128,0.458-0.096,1.08c0,0.721,0.048,1.803,0.144,3.242c0.223,2.684,0.479,4.123,0.766,4.318
		c0.063,0.033,0.207,0.049,0.431,0.049c1.084,0,4.035-0.424,8.853-1.275c5.806-1.016,8.725-1.652,8.757-1.916
		c0-0.588-0.12-1.555-0.359-2.896s-0.487-2.014-0.742-2.014c-0.064,0-1.699-0.098-4.905-0.294s-5.974-0.327-8.302-0.394
		c-0.798-0.031-1.5-0.049-2.105-0.049C138.002,101.108,137.188,101.159,136.742,101.257z"/>
	<path fill="#FFFFFF" d="M181.744,71.515c0.318-0.325,9.203-0.959,26.653-1.902c13.558-0.715,22.091-1.089,25.601-1.122
		c0.988,0,1.579,0.033,1.771,0.098c0.861,0.26,3.461,8.651,7.8,25.171c3.828,14.538,5.726,22.913,5.694,25.124
		c0,0.293-0.032,0.487-0.096,0.585c-0.319,0.195-1.261,0.439-2.823,0.732c-1.563,0.293-3.031,0.537-4.402,0.73l-2.058,0.293
		c4.625,7.943,7.927,13.885,9.905,17.822h-27.371c-0.447-0.52-1.148-1.334-2.105-2.441c-0.957-1.105-1.779-2.042-2.464-2.807
		c-0.687-0.766-1.468-1.668-2.345-2.711c-0.878-1.041-1.627-1.912-2.249-2.611c-0.622-0.7-1.229-1.359-1.818-1.979
		c-0.591-0.617-1.029-1.065-1.316-1.342c-0.287-0.277-0.431-0.383-0.431-0.318c-0.064,0-0.096,0.082-0.096,0.244
		c0,0.521,0.335,1.904,1.005,4.15c0.893,2.93,1.93,6.201,3.11,9.814h-28.998c-0.574-8.002-1.276-21.193-2.105-39.573
		c-0.606-13.923-0.926-22.657-0.957-26.203C181.648,72.165,181.68,71.58,181.744,71.515z M205.431,107.896
		c0.159,2.637,0.398,4.119,0.718,4.443c0.191,0.098,0.638,0.146,1.34,0.146c1.531,0,4.242-0.195,8.135-0.586
		c5.71-0.553,8.565-1.008,8.565-1.367c0.063-0.064,0.096-0.195,0.096-0.391c0-0.52-0.271-1.529-0.813-3.027
		c-0.766-2.018-1.309-3.043-1.627-3.076c-0.191,0-1.779-0.098-4.761-0.293c-2.983-0.195-5.496-0.324-7.537-0.391
		c-0.702-0.031-1.309-0.049-1.818-0.049c-1.053,0-1.771,0.049-2.153,0.146c-0.16,0.195-0.239,0.83-0.239,1.904
		C205.335,106.04,205.366,106.888,205.431,107.896z"/>
	<path fill="#FFFFFF" d="M251.146,92.868c0.135-6.783,0.38-13.135,0.735-19.056c0.354-5.921,0.634-8.985,0.837-9.192
		c0.304-0.207,2.012-0.311,5.123-0.311c5.004,0,13.645,0.207,25.919,0.621c19.951,0.552,30.196,1.223,30.738,2.014
		c0.27,0.861,1.31,7.902,3.119,21.121c1.809,13.219,2.714,20.174,2.714,20.861c0,0.345-3.822,0.551-11.464,0.619
		c-1.927,0-3.821,0-5.681,0c-5.579,0-10.872-0.033-15.876-0.104c-2.231-0.033-4.177-0.051-5.833-0.051
		c-3.314,0-5.462,0.068-6.442,0.207c-0.169,0.207-0.253,0.742-0.253,1.604c0,0.553,0.033,1.226,0.102,2.02
		c0.168,2.07,0.422,3.467,0.761,4.191c0,0.277,2.112,0.414,6.34,0.414c1.251,0,2.705-0.017,4.362-0.051
		c7.135-0.104,13.813-0.242,20.035-0.414c2.807-0.069,5.105-0.104,6.898-0.104c2.164,0,3.584,0.051,4.261,0.154
		c0.102,0.174,0.135,0.57,0.102,1.191c0,1.414-0.203,3.951-0.608,7.607c-0.609,5.314-1.235,9.594-1.877,12.836h-60.056
		c-1.793-7.689-3.01-17.086-3.652-28.189c-0.236-3.724-0.354-7.845-0.354-12.362C251.096,96.671,251.112,94.796,251.146,92.868z"/>
	<path fill="#FFFFFF" d="M321.447,139.048c0.338-3.312,1.149-10.256,2.435-20.832s2.468-20.35,3.551-29.32
		c1.082-8.972,1.623-13.803,1.623-14.492c0.271-1.208,8.843-3.744,25.717-7.609c13.627-3.105,21.878-4.658,24.752-4.658
		c0.677,0,1.048,0.086,1.116,0.259c0.676,1.691,3.896,13.949,9.663,36.774c5.765,22.825,8.816,36.119,9.155,39.879h-30.535
		c-0.271-0.896-0.583-2.018-0.938-3.363s-0.651-2.234-0.888-2.666c-0.237-0.432-0.423-0.646-0.558-0.646
		c-0.406,0-3.94,0.215-10.602,0.646c-6.662,0.432-10.195,0.646-10.601,0.646c-0.271,0-0.829,1.795-1.674,5.383H321.447z
		 M344.83,114.774c0.643,0.068,1.522,0.104,2.638,0.104c0.845,0,1.826-0.018,2.942-0.053c2.638-0.104,5.739-0.24,9.308-0.414
		c3.567-0.172,5.418-0.258,5.554-0.258c0.135,0,0.203-0.069,0.203-0.207c0-0.311-0.322-0.949-0.964-1.916
		c-0.947-1.414-2.021-2.828-3.221-4.244c-1.201-1.414-1.987-2.121-2.358-2.121c-0.677,0-2.833,0.154-6.468,0.465
		s-5.588,0.588-5.858,0.828c-0.338,0.795-0.778,2.295-1.318,4.504c-0.373,1.587-0.559,2.605-0.559,3.053
		C344.729,114.688,344.763,114.774,344.83,114.774z"/>
	<path fill="#FFFFFF" d="M399.985,65.035c0.034,0,0.087-0.018,0.158-0.054c1.192,0,6.843,2.489,16.948,7.466
		c10.527,5.156,15.932,7.664,16.213,7.519c0.49,0,3.886-1.834,10.185-5.505c6.299-3.67,12.483-7.188,18.555-10.554
		c5.264-2.936,8.299-4.404,9.106-4.404c0.105,0,0.175,0.036,0.21,0.107c0.281,0.896,2.991,14.198,8.133,39.907
		c5.141,25.711,7.711,38.887,7.711,39.531h-0.632h-9.948H454.99c-0.21,0-1.184-3.284-2.921-9.855
		c-1.737-6.57-2.711-9.855-2.921-9.855c-0.141,0-2.079,1.799-5.816,5.397s-5.711,5.397-5.922,5.397
		c-0.421,0-2.036-1.101-4.843-3.303c-2.808-2.202-4.281-3.303-4.422-3.303c-0.281,0.18-0.421,0.932-0.421,2.256
		c0,0.395,0.018,0.859,0.053,1.396c0.105,2.184,0.228,4.672,0.368,7.465c0.07,1.396,0.105,2.463,0.105,3.196
		c0,0.734-0.035,1.138-0.105,1.208h-1.21h-24.003c-0.562-4.547-1.263-17.957-2.105-40.229c-0.597-16.508-0.912-26.963-0.947-31.368
		C399.88,65.913,399.915,65.107,399.985,65.035z"/>
	<path fill="#FFFFFF" d="M487.855,59.95c0.799-0.705,8.146-1.058,22.038-1.058c1.382,0,2.837,0,4.364,0
		c16.692,0.075,25.548,0.576,26.566,1.503c1.127,0.52,3.682,10.373,7.664,29.557c3.982,19.187,5.791,29.317,5.428,30.393
		c-0.218,1.002-6.638,2.524-19.257,4.564l-18.874,3.174c-0.146,0.594-0.183,1.391-0.109,2.393c0.072,1.002,0.182,2.469,0.327,4.398
		s0.219,3.321,0.219,4.174h-27.003c-0.291-5.64-0.673-20.168-1.146-43.584c-0.255-14.064-0.382-23.954-0.382-29.669
		C487.691,61.973,487.746,60.024,487.855,59.95z M512.621,108.878c0.109,2.858,0.309,4.436,0.6,4.732
		c0.146,0.111,0.51,0.166,1.092,0.166c1.527,0,4.527-0.352,9.001-1.057c6.219-1.002,9.328-1.651,9.328-1.949
		c0.108-0.111,0.163-0.296,0.163-0.557c0-0.481-0.2-1.225-0.6-2.227c-0.582-1.483-1.164-2.374-1.746-2.672
		c-0.728-0.296-3.654-0.648-8.782-1.057c-2.837-0.223-4.964-0.315-6.383-0.279c-1.128,0-1.818,0.057-2.073,0.168
		c-0.436,0.26-0.654,1.373-0.654,3.34C512.566,107.896,512.585,108.359,512.621,108.878z"/>
</g>
<g>
	
		<rect x="529.756" y="32.752" transform="matrix(0.8386 0.5447 -0.5447 0.8386 136.8984 -316.0498)" width="144.095" height="80.496"/>
	<g>
		<path fill="#FFFFFF" d="M552.706,57.262c0.99-0.08,2.292-0.177,3.904-0.291c1.612-0.115,4.24-0.469,7.88-1.062
			c3.642-0.593,6.515-1.28,8.621-2.06c2.315-0.859,4.112-2.104,5.392-3.733s1.857-3.344,1.735-5.141
			c-0.12-1.796-0.96-3.387-2.519-4.771c-1.048-1.032-2.069-1.773-3.064-2.226c-0.994-0.451-1.954-0.673-2.877-0.667
			s-1.729,0.103-2.42,0.288c-0.69,0.187-1.238,0.393-1.644,0.617l-0.643,0.344l-0.088-3.279c0.174-0.082,0.415-0.185,0.724-0.307
			c0.309-0.122,0.922-0.274,1.842-0.459c0.918-0.184,1.832-0.269,2.742-0.254c0.908,0.015,1.967,0.223,3.173,0.626
			c1.208,0.403,2.327,1.038,3.362,1.906c1.98,1.287,3.417,2.859,4.308,4.717c0.89,1.857,1.222,3.684,0.995,5.479
			c-0.228,1.795-0.875,3.513-1.94,5.154c-1.066,1.642-2.454,2.952-4.161,3.933c-2.239,0.986-5.127,1.888-8.664,2.705
			c-3.538,0.817-6.514,1.378-8.929,1.684l-3.665,0.52l12.707,8.254l2.311-3.558l4.264,1.648l-5.439,6.835l-19.451-12.634
			L552.706,57.262z"/>
		<path fill="#FFFFFF" d="M580.216,62.213c1.419-2.554,3.197-4.693,5.338-6.419c2.139-1.725,4.262-2.903,6.372-3.535
			c2.107-0.632,4.112-0.912,6.014-0.839c1.899,0.072,3.44,0.492,4.62,1.259c3.761,1.837,6.252,4.866,7.476,9.089
			c1.223,4.222,0.55,8.31-2.02,12.265c-1.497,2.797-3.666,5.23-6.505,7.302c-2.84,2.071-5.771,3.395-8.794,3.969
			c-3.023,0.575-5.515,0.227-7.476-1.048c-3.727-2.42-6.139-5.505-7.237-9.256C576.905,71.249,577.642,66.987,580.216,62.213z
			 M583.652,63.333c-1.854,4.947-2.615,8.29-2.284,10.028l24.071-13.598c-0.585-0.731-1.048-1.296-1.39-1.694
			c-0.342-0.397-0.778-0.862-1.312-1.395c-0.535-0.533-1.037-0.922-1.506-1.168c-0.471-0.247-0.939-0.395-1.406-0.444
			c-0.73-0.201-1.742-0.205-3.037-0.011c-1.297,0.193-2.715,0.57-4.26,1.129c-1.543,0.56-3.131,1.462-4.758,2.709
			C586.14,60.135,584.767,61.617,583.652,63.333z M582.954,77.614c0.254,0.164,0.689,0.609,1.31,1.334
			c0.619,0.725,1.049,1.164,1.288,1.319c0.956,0.621,2.344,0.864,4.163,0.728s3.716-0.584,5.689-1.344
			c1.972-0.758,3.891-1.88,5.756-3.363c1.864-1.484,3.277-3.154,4.239-5.009c1.05-3.126,1.326-5.768,0.83-7.927L582.954,77.614z"/>
		<path fill="#FFFFFF" d="M614.169,66.313l1.612-0.037c1.088-0.016,2.301-0.106,3.638-0.273c1.337-0.167,2.256-0.389,2.757-0.67
			l2.93,1.903l-15.895,27.697l4.446,2.888l-2.329,3.585l-12.814-9.379l2.328-3.585l3.965,3.63l13.582-20.909l-5.184-3.367
			L614.169,66.313z"/>
		<path fill="#FFFFFF" d="M616.753,94.531l2.598,0.75c0.032,0.138,0.159,0.787,0.384,1.948c0.224,1.161,0.416,2.042,0.575,2.644
			c0.158,0.601,0.455,1.375,0.889,2.32c0.435,0.946,0.938,1.702,1.508,2.269c1.359,1.567,3.115,2.517,5.267,2.85
			c2.149,0.333,4.155,0.015,6.014-0.956c1.858-0.97,3.051-2.397,3.576-4.282c0.582-3.294-1.22-6.749-5.402-10.364l-2.231-1.685
			l14.195-5.894l-13.023-8.46l1.177-3.424l18.901,12.279l-14.01,7.128c0.151,0.137,0.328,0.334,0.53,0.593
			c0.2,0.258,0.554,0.799,1.057,1.624c0.503,0.824,0.916,1.649,1.239,2.475s0.537,1.833,0.643,3.024
			c0.104,1.191-0.013,2.34-0.353,3.447c-0.318,0.984-0.766,1.949-1.34,2.894c-0.573,0.945-1.274,1.823-2.1,2.635
			c-0.827,0.811-1.775,1.454-2.844,1.932c-1.069,0.477-2.201,0.768-3.396,0.869c-1.195,0.103-2.511-0.078-3.947-0.543
			c-1.437-0.464-2.873-1.251-4.31-2.359c-1.265-0.822-2.314-1.742-3.149-2.764s-1.438-1.939-1.806-2.756
			c-0.37-0.815-0.607-1.818-0.712-3.01c-0.105-1.191-0.143-2.079-0.111-2.665C616.601,96.464,616.661,95.624,616.753,94.531z"/>
	</g>
</g>
<g>
</g>
<g>
</g>
<g>
</g>
<g>
</g>
<g>
</g>
<g>
</g>
<g>
</g>
<g>
</g>
<g>
</g>
<g>
</g>
<g>
</g>
<g>
</g>
<g>
</g>
<g>
</g>
<g>
</g>
</svg>
