<?xml version="1.0" encoding="utf-8"?>
<!-- Generator: Adobe Illustrator 16.0.0, SVG Export Plug-In . SVG Version: 6.00 Build 0)  -->
<!DOCTYPE svg PUBLIC "-//W3C//DTD SVG 1.1//EN" "http://www.w3.org/Graphics/SVG/1.1/DTD/svg11.dtd">
<svg version="1.1" xmlns="http://www.w3.org/2000/svg" xmlns:xlink="http://www.w3.org/1999/xlink" x="0px" y="0px"
	 width="254.271px" height="127.411px" viewBox="0 0 254.271 127.411" enable-background="new 0 0 254.271 127.411"
	 xml:space="preserve">
<g id="BG">
</g>
<g id="Type">
</g>
<g id="Face">
</g>
<g id="Beer_Gauge_1_">
</g>
<g id="Beer_Gauge">
</g>
<g id="Tweet_x2F_Share">
	<polygon fill="#49639E" points="204.164,97.005 242.938,95.52 250.469,14.439 5.588,14.439 19.289,96 173.771,97.553 
		210.264,126.436 	"/>
	<path fill="#FFFFFF" d="M67.76,41.306c-1.52,0.675-3.156,1.132-4.869,1.335c1.75-1.049,3.094-2.71,3.729-4.692
		c-1.641,0.973-3.455,1.679-5.387,2.06c-1.545-1.647-3.75-2.678-6.188-2.678c-4.684,0-8.479,3.797-8.479,8.479
		c0,0.663,0.074,1.312,0.219,1.934c-7.047-0.354-13.297-3.73-17.479-8.861c-0.73,1.252-1.146,2.708-1.146,4.264
		c0,2.941,1.496,5.537,3.77,7.057c-1.389-0.043-2.695-0.424-3.838-1.061c-0.002,0.034-0.002,0.071-0.002,0.106
		c0,4.107,2.922,7.536,6.801,8.313c-0.711,0.193-1.459,0.301-2.232,0.301c-0.547,0-1.078-0.056-1.598-0.153
		c1.082,3.368,4.211,5.819,7.922,5.887c-2.902,2.275-6.557,3.633-10.529,3.633c-0.686,0-1.359-0.041-2.023-0.12
		c3.754,2.407,8.209,3.809,12.996,3.809c15.598,0,24.125-12.919,24.125-24.126c0-0.366-0.004-0.732-0.023-1.096
		C65.184,44.5,66.623,43.006,67.76,41.306z"/>
	<g>
		<path fill="#FFFFFF" d="M76.916,32.421v-1.096h6.574h6.578v1.096v1.096h-2.193h-2.191v6.577v6.576H83.49h-2.191v-6.576v-6.577
			h-2.191h-2.191V32.421z"/>
		<path fill="#FFFFFF" d="M92.26,40.094V35.71h1.098h1.096v4.384v4.384h1.096h1.096v-4.384V35.71h2.193h2.189v4.384v4.384h1.096
			h1.098v-4.384V35.71h2.191h2.193v5.48v5.479h-6.578h-6.574v-1.097v-1.096h-1.096H92.26V40.094z"/>
		<path fill="#FFFFFF" d="M111.99,36.806V35.71h5.48h5.48v1.096v1.096h1.096h1.096v2.192v2.19h-5.48h-5.48v1.097v1.097h4.383h4.387
			v1.096v1.097h-5.48h-5.48v-1.097v-1.096h-1.098h-1.096V41.19v-3.289h1.096h1.098V36.806z M120.758,38.998v-1.097h-3.287h-3.289
			v1.097v1.096h3.289h3.287V38.998z"/>
		<path fill="#FFFFFF" d="M129.527,36.806V35.71h5.48h5.479v1.096v1.096h1.096h1.096v2.192v2.19h-5.48h-5.479v1.097v1.097h4.383
			h4.385v1.096v1.097h-5.479h-5.48v-1.097v-1.096h-1.096h-1.098V41.19v-3.289h1.098h1.096V36.806z M138.295,38.998v-1.097h-3.287
			h-3.289v1.097v1.096h3.289h3.287V38.998z"/>
		<path fill="#FFFFFF" d="M151.447,33.517v-2.191h2.191h2.193v2.191v2.193h2.191h2.193v1.096v1.096h-2.193h-2.191v4.383v4.386
			h-2.193h-2.191v-4.386v-4.383h-2.191h-2.191v-1.096V35.71h2.191h2.191V33.517z"/>
		<path fill="#FFFFFF" d="M172.316,32.421v-1.096h6.574h6.578v1.096v1.096h-2.191h-2.193v6.577v6.576h-2.193h-2.191v-6.576v-6.577
			h-2.189h-2.193V32.421z"/>
		<path fill="#FFFFFF" d="M187.66,38.998v-7.673h2.193h2.191v2.191v2.193h4.385h4.385v1.096v1.096h1.096h1.096v4.383v4.386h-2.191
			h-2.193v-4.386v-4.383h-3.287h-3.289v4.383v4.386h-2.191h-2.193V38.998z"/>
		<path fill="#FFFFFF" d="M209.584,36.806V35.71h3.287h3.287v4.384v4.384h2.193h2.191v1.096v1.097h-6.576h-6.576v-1.097v-1.096
			h2.193h2.189V41.19v-3.289h-1.094h-1.096V36.806z M211.773,32.421v-1.096h2.193h2.191v1.096v1.096h-2.191h-2.193V32.421z"/>
		<path fill="#FFFFFF" d="M224.928,36.806V35.71h5.48h5.48v1.096v1.096h-4.385h-4.385v1.097v1.096h4.385h4.385v1.097v1.094h1.096
			h1.096v1.097v1.097h-1.096h-1.096v1.096v1.097h-6.578h-6.576v-1.097v-1.096h5.482h5.479v-1.097v-1.097h-4.385h-4.383V41.19v-1.097
			h-1.096h-1.098v-1.096v-1.097h1.098h1.096V36.806z"/>
		<path fill="#FFFFFF" d="M110,56.535v-1.826h1.828h1.828v1.826v1.826h3.652h3.654v1.826v1.828h-3.654h-3.652v1.826v1.826h3.652
			h3.654v1.827v1.826h1.826h1.826v1.826v1.828h-1.826h-1.826v1.827v1.826h-3.654h-3.652v1.828v1.826h-1.828H110v-1.826v-1.828
			h-5.479h-5.48v-1.826v-1.827h5.48H110v-1.828v-1.826h-3.652h-3.654v-1.826v-1.827h-1.824h-1.828v-1.826v-1.826h1.828h1.824v-1.828
			v-1.826h3.654H110V56.535z M110,63.842v-1.826h-1.824h-1.828v1.826v1.826h1.828H110V63.842z M117.309,71.147v-1.826h-1.828h-1.824
			v1.826v1.828h1.824h1.828V71.147z"/>
		<path fill="#FFFFFF" d="M150.189,56.535v-1.826h1.828h1.826v1.826v1.826h-1.826h-1.828v1.826v1.828h-1.826h-1.826v1.826v1.826
			h-1.826h-1.826v1.827v1.826h-1.828h-1.826v1.826v1.828h-1.826h-1.828v1.827v1.826h-1.826h-1.828v1.828v1.826h-1.826h-1.826v-1.826
			v-1.828h1.826h1.826v-1.826v-1.827h1.828h1.826v-1.828v-1.826h1.828h1.826v-1.826v-1.827h1.826h1.828v-1.826v-1.826h1.826h1.826
			v-1.828v-1.826h1.826h1.826V56.535z M131.922,56.535v-1.826h3.654h3.654v3.652v3.654h-1.826h-1.828v1.826v1.826h-3.654h-3.652
			v-3.652v-3.654h1.826h1.826V56.535z M135.576,60.188v-1.826h-1.826h-1.828v1.826v1.828h1.828h1.826V60.188z M146.537,71.147
			v-1.826h3.652h3.654v3.654v3.653h-1.826h-1.828v1.828v1.826h-3.652h-3.652v-3.654v-3.653h1.826h1.826V71.147z M150.189,74.803
			v-1.827h-1.826h-1.826v1.827v1.826h1.826h1.826V74.803z"/>
		<path fill="#FFFFFF" d="M161.152,60.188v-1.826h3.652h3.654v1.826v1.828h1.826h1.826v-1.828v-1.826h3.652h3.656v1.826v1.828
			h-1.828h-1.828v1.826v1.826h3.656h3.652v1.827v1.826h-3.652h-3.656v1.826v1.828h1.828h1.828v1.827v1.826h-3.656h-3.652v-1.826
			v-1.827h-1.826h-1.826v1.827v1.826h-3.654h-3.652v-1.826v-1.827h1.826h1.826v-1.828v-1.826h-3.652h-3.656v-1.826v-1.827h3.656
			h3.652v-1.826v-1.826h-1.826h-1.826V60.188z"/>
		<path fill="#FFFFFF" d="M190.381,56.535v-1.826h9.133h9.135v1.826v1.826h1.824h1.828v7.307v7.308h-9.133h-9.135v-5.48v-5.479h5.48
			h5.48v3.652v3.653h1.826h1.828v-5.479v-5.48h-9.135h-9.133v9.134v9.134h9.133h9.135v1.828v1.826h-9.135h-9.133v-1.826v-1.828
			h-1.828h-1.826v-9.134v-9.134h1.826h1.828V56.535z M201.34,67.495v-1.827h-1.826h-1.828v1.827v1.826h1.828h1.826V67.495z"/>
	</g>
</g>
<g id="Replay_x2F_Select">
</g>
<g id="Time_Alotted">
</g>
</svg>
