<?xml version="1.0" encoding="utf-8"?>
<!-- Generator: Adobe Illustrator 16.0.0, SVG Export Plug-In . SVG Version: 6.00 Build 0)  -->
<!DOCTYPE svg PUBLIC "-//W3C//DTD SVG 1.1//EN" "http://www.w3.org/Graphics/SVG/1.1/DTD/svg11.dtd">
<svg version="1.1" xmlns="http://www.w3.org/2000/svg" xmlns:xlink="http://www.w3.org/1999/xlink" x="0px" y="0px" width="200px"
	 height="200px" viewBox="0 0 200 200" enable-background="new 0 0 200 200" xml:space="preserve">
<g id="BG">
</g>
<g id="Type">
</g>
<g id="Face">
</g>
<g id="Beer_Gauge_1_">
</g>
<g id="Beer_Gauge">
	<polygon fill="#F7931E" points="12.546,148.236 20.321,131.543 3.086,125.076 14.769,110.844 -0.318,100.291 14.533,89.41 
		2.547,75.441 19.641,68.6 11.501,52.078 29.76,49.709 25.988,31.688 44.26,33.926 45.089,15.531 62.232,22.246 67.604,4.631 
		82.541,15.406 92.126,-0.318 103.915,13.824 117.106,0.984 125.013,17.617 140.98,8.457 144.498,26.527 162.25,21.623 
		161.161,40.012 179.576,39.678 173.944,57.211 191.863,61.471 182.055,77.051 198.342,85.629 184.97,98.283 198.615,110.643 
		182.509,119.57 192.656,134.939 174.84,139.586 180.846,156.99 162.43,157.061 163.918,175.414 146.065,170.896 142.938,189.047 
		126.771,180.232 119.231,197.031 105.765,184.477 94.289,198.871 84.363,183.367 69.663,194.455 63.908,176.963 46.915,184.049 
		45.692,165.674 27.464,168.311 30.852,150.211 	"/>
	<g>
		<path fill="#FFFFFF" d="M47.691,110.683c-0.541-3.29-0.863-6.274-0.969-8.948c-0.105-2.671-0.041-4.97,0.191-6.889
			c0.23-1.918,0.693-3.602,1.386-5.049c0.688-1.447,1.46-2.622,2.313-3.521c0.851-0.9,1.963-1.681,3.33-2.336
			c2.251-1.081,4.766-1.851,7.551-2.308c2.781-0.461,4.854-0.729,6.227-0.811c1.363-0.077,2.801-0.029,4.305,0.15
			c1.506,0.184,2.793,0.566,3.871,1.154c1.071,0.581,2.162,1.45,3.283,2.6c1.116,1.147,2.074,2.59,2.889,4.31
			c1.816,3.847,3.145,8.295,3.973,13.35c0.832,5.052,1.287,8.979,1.363,11.776c0.074,2.795-0.125,5.186-0.607,7.169
			c-0.48,1.983-1.115,3.646-1.895,4.989c-0.781,1.341-1.909,2.447-3.387,3.306c-2.467,1.5-5.904,2.614-10.31,3.341
			c-6.256,1.024-10.694,0.821-13.31-0.606c-2.662-1.417-4.695-3.655-6.103-6.712C50.086,121.933,48.721,116.942,47.691,110.683z
			 M51.051,94.379c-0.459,1.72-0.613,3.878-0.473,6.471c0.141,2.603,0.469,5.47,0.987,8.625c0.519,3.154,1.022,5.725,1.517,7.715
			c0.49,1.99,1.042,3.734,1.644,5.229c0.604,1.5,1.303,2.705,2.096,3.625c0.792,0.912,1.616,1.66,2.476,2.232
			c0.852,0.574,1.867,0.936,3.031,1.074c2.146,0.315,4.656,0.236,7.533-0.236c2.871-0.471,5.064-0.987,6.566-1.546
			c1.503-0.554,2.835-1.367,3.99-2.438c1.158-1.071,1.953-2.474,2.383-4.214c0.89-3.573,0.757-8.861-0.393-15.862
			c-1.195-7.278-2.633-12.261-4.308-14.937c-0.6-1.044-1.185-1.913-1.747-2.602c-0.57-0.697-1.264-1.237-2.09-1.625
			c-0.825-0.389-1.578-0.683-2.248-0.878c-0.68-0.201-1.54-0.286-2.584-0.257c-1.613,0.026-3.508,0.222-5.688,0.576
			c-2.184,0.359-3.794,0.67-4.85,0.936c-1.049,0.274-2.235,0.729-3.557,1.376c-1.324,0.644-2.254,1.5-2.795,2.566
			C52.004,91.272,51.508,92.663,51.051,94.379z"/>
		<path fill="#FFFFFF" d="M97.175,128.414l-8.364-50.912l3.967-0.651l3.837,23.368l7.306-1.199l12.438-26.039l4.798-0.79
			l-13.224,28.24l21.583,22.67l-4.8,0.79l-20.134-20.837l-7.235,1.188l3.859,23.51L97.175,128.414z"/>
		<path fill="#FFFFFF" d="M138.939,68.703c0.783-0.131,1.39-0.223,1.809-0.266c0.424-0.042,0.658-0.071,0.701-0.079
			c9.088-1.492,14.338,2.05,15.748,10.627l1.154,7.025c1.234,7.511-2.372,11.96-10.811,13.348c-1.436,0.232-3.057,0.384-4.854,0.438
			l1.15,7.025l-4.033,0.664l-1.688-10.296l8.968-1.471c2.591-0.473,4.573-1.454,5.95-2.943c1.367-1.486,1.847-3.529,1.424-6.125
			l-1.158-7.025c-0.522-3.2-1.709-5.337-3.555-6.418c-1.842-1.074-4.62-1.31-8.328-0.699l-18.43,3.025l-0.47-2.854
			C128.781,70.794,134.254,69.469,138.939,68.703z M141.051,119.85l-0.676-4.1c-0.158-0.976,0.224-1.542,1.153-1.693l2.851-0.467
			c0.88-0.146,1.402,0.271,1.561,1.244l0.676,4.103c0.144,0.884-0.226,1.395-1.107,1.539l-2.851,0.468
			c-0.37,0.062-0.714-0.016-1.033-0.223C141.301,120.516,141.113,120.225,141.051,119.85z"/>
	</g>
</g>
<g id="Tweet_x2F_Share">
</g>
<g id="Replay_x2F_Select">
</g>
<g id="Time_Alotted">
</g>
</svg>
