<?xml version="1.0" encoding="utf-8"?>
<!-- Generator: Adobe Illustrator 16.0.0, SVG Export Plug-In . SVG Version: 6.00 Build 0)  -->
<!DOCTYPE svg PUBLIC "-//W3C//DTD SVG 1.1//EN" "http://www.w3.org/Graphics/SVG/1.1/DTD/svg11.dtd">
<svg version="1.1" xmlns="http://www.w3.org/2000/svg" xmlns:xlink="http://www.w3.org/1999/xlink" x="0px" y="0px" width="200px"
	 height="200px" viewBox="0 0 200 200" enable-background="new 0 0 200 200" xml:space="preserve">
<g id="BG">
</g>
<g id="Type">
</g>
<g id="Face">
</g>
<g id="Beer_Gauge_1_">
</g>
<g id="Beer_Gauge">
	<polygon fill="#FFFF00" points="12.546,148.236 20.321,131.543 3.086,125.076 14.769,110.844 -0.318,100.291 14.533,89.41 
		2.547,75.441 19.641,68.6 11.501,52.078 29.76,49.709 25.988,31.688 44.26,33.926 45.089,15.531 62.232,22.246 67.604,4.631 
		82.541,15.406 92.126,-0.318 103.915,13.824 117.106,0.984 125.013,17.617 140.98,8.457 144.498,26.527 162.25,21.623 
		161.161,40.012 179.576,39.678 173.944,57.211 191.863,61.471 182.055,77.051 198.342,85.629 184.97,98.283 198.615,110.643 
		182.509,119.57 192.656,134.939 174.84,139.586 180.846,156.99 162.43,157.061 163.918,175.414 146.065,170.896 142.938,189.047 
		126.771,180.232 119.231,197.031 105.765,184.477 94.289,198.871 84.363,183.367 69.663,194.455 63.908,176.963 46.915,184.049 
		45.692,165.674 27.464,168.311 30.852,150.211 	"/>
	<g>
		<path d="M52.631,98.085l-4.676-31.737l11.489-1.691c2.396-0.355,4.44-0.108,6.131,0.735c1.724,0.868,3.047,2.017,3.965,3.446
			c1.068,1.644,1.803,3.114,2.198,4.414c0.635,2.094,1.072,3.947,1.311,5.564c0.238,1.623,0.341,3.162,0.305,4.63
			c-0.035,1.467-0.238,2.937-0.613,4.41c-0.373,1.471-0.902,2.791-1.588,3.954c-0.685,1.164-1.631,2.16-2.836,2.986
			c-1.205,0.829-2.605,1.359-4.195,1.595L52.631,98.085z M54.725,95.162l9.018-1.328c1.504-0.223,2.775-0.794,3.824-1.716
			c1.045-0.923,1.822-2.072,2.327-3.445c0.983-2.741,1.218-5.862,0.703-9.36c-1.329-8.989-4.924-13.052-10.79-12.188l-9.017,1.332
			L54.725,95.162z"/>
		<path d="M89.541,92.645l7.07-33.466l2.646-0.393l15.863,30.087l-2.907,0.431l-4.532-9.123l-13.266,1.956l-1.885,10.067
			L89.541,92.645z M94.963,79.532l11.486-1.695l-8.005-15.254L94.963,79.532z"/>
		<path d="M131.217,86.502l-3.845-26.101c-0.294-1.994-0.008-3.506,0.857-4.533c0.868-1.028,2.01-1.646,3.427-1.857
			c0.115-0.017,0.231-0.033,0.346-0.052l13.488-1.365l0.272,1.863l-13.396,1.975c-1.128,0.168-1.868,0.55-2.224,1.146
			c-0.354,0.601-0.453,1.42-0.3,2.459l1.335,9.062l14.704-1.812l0.279,1.909L131.562,71.7l2.128,14.439L131.217,86.502z"/>
		<path d="M71.819,148.631l-0.477,0.073c-3.41,0.503-5.704,0.471-6.879-0.096c-0.543-0.271-1.181-0.701-1.918-1.288
			c-0.733-0.586-1.335-1.349-1.8-2.279c-1.14-2.343-1.971-5.279-2.492-8.806l-2.634-17.86l2.475-0.365l2.632,17.863
			c0.719,4.884,1.807,7.944,3.257,9.174c0.544,0.482,1.025,0.841,1.444,1.072c0.74,0.423,1.967,0.538,3.679,0.343
			c0.468-0.034,1.179-0.127,2.132-0.267l0.219-0.033c2.11-0.311,3.443-0.626,4.004-0.945c0.555-0.315,1.04-0.646,1.447-0.987
			c0.406-0.342,0.719-0.726,0.937-1.159c0.216-0.43,0.435-0.962,0.65-1.599c0.216-0.639,0.356-1.347,0.417-2.122
			c0.119-1.791,0.014-3.826-0.324-6.109l-2.633-17.863l2.472-0.363l2.63,17.86c0.836,5.666,0.457,9.604-1.135,11.819
			c-0.564,0.791-1.085,1.399-1.57,1.825c-0.484,0.426-1.174,0.794-2.074,1.104C75.128,148.026,73.643,148.363,71.819,148.631z"/>
		<path d="M102.259,143.927l-4.677-31.735l2.47-0.368l2.147,14.569l4.555-0.67l7.994-16.062l2.992-0.442l-8.506,17.421
			l13.184,14.314l-2.99,0.44l-12.307-13.156l-4.508,0.664l2.161,14.65L102.259,143.927z"/>
		<path d="M143.089,105.129c0.487-0.073,0.866-0.12,1.13-0.145c0.262-0.022,0.407-0.039,0.436-0.043
			c5.666-0.836,8.893,1.421,9.681,6.768l0.646,4.38c0.691,4.682-1.594,7.411-6.854,8.187c-0.899,0.133-1.905,0.207-3.023,0.224
			l0.643,4.379l-2.514,0.372l-0.947-6.416l5.596-0.827c1.614-0.266,2.855-0.853,3.723-1.767c0.872-0.908,1.189-2.174,0.948-3.793
			l-0.643-4.379c-0.297-1.995-1.01-3.335-2.142-4.024c-1.14-0.69-2.862-0.862-5.175-0.525l-11.491,1.695l-0.259-1.778
			C136.754,106.329,140.166,105.56,143.089,105.129z M143.881,136.951l-0.378-2.559c-0.089-0.607,0.154-0.954,0.731-1.039
			l1.781-0.264c0.546-0.079,0.865,0.184,0.956,0.79l0.378,2.56c0.08,0.549-0.153,0.863-0.704,0.943l-1.778,0.262
			c-0.23,0.036-0.445-0.015-0.641-0.149C144.027,137.362,143.915,137.182,143.881,136.951z"/>
	</g>
</g>
<g id="Tweet_x2F_Share">
</g>
<g id="Replay_x2F_Select">
</g>
<g id="Time_Alotted">
</g>
</svg>
