<?xml version="1.0" encoding="utf-8"?>
<!-- Generator: Adobe Illustrator 16.0.0, SVG Export Plug-In . SVG Version: 6.00 Build 0)  -->
<!DOCTYPE svg PUBLIC "-//W3C//DTD SVG 1.1//EN" "http://www.w3.org/Graphics/SVG/1.1/DTD/svg11.dtd">
<svg version="1.1" xmlns="http://www.w3.org/2000/svg" xmlns:xlink="http://www.w3.org/1999/xlink" x="0px" y="0px" width="200px"
	 height="200px" viewBox="0 0 200 200" enable-background="new 0 0 200 200" xml:space="preserve">
<g id="BG">
</g>
<g id="Type">
</g>
<g id="Face">
</g>
<g id="Beer_Gauge_1_">
</g>
<g id="Beer_Gauge">
	<polygon fill="#C1272D" points="13.013,148.502 20.788,131.809 3.553,125.342 15.235,111.109 0.148,100.557 15,89.676 
		3.014,75.707 20.107,68.865 11.968,52.344 30.227,49.975 26.455,31.953 44.727,34.191 45.556,15.797 62.699,22.512 68.07,4.896 
		83.008,15.672 92.593,-0.053 104.382,14.09 117.573,1.25 125.479,17.883 141.447,8.723 144.965,26.793 162.717,21.889 
		161.628,40.277 180.043,39.943 174.411,57.477 192.33,61.736 182.521,77.316 198.809,85.895 185.437,98.549 199.082,110.908 
		182.976,119.836 193.123,135.205 175.307,139.852 181.312,157.256 162.896,157.326 164.385,175.68 146.532,171.162 
		143.405,189.312 127.238,180.498 119.698,197.297 106.231,184.742 94.756,199.137 84.83,183.633 70.13,194.721 64.375,177.229 
		47.382,184.314 46.159,165.939 27.931,168.576 31.318,150.477 	"/>
	<g>
		<path fill="#FFFFFF" d="M47.697,87.287c-0.516-5.426-0.013-9.148,1.508-11.174c1.234-1.619,3.19-2.555,5.877-2.809
			c0.924-0.09,2.235-0.127,3.938-0.113c1.703,0.027,3.182,0.09,4.428,0.203l0.147,1.52c-0.405,0.018-0.775,0.035-1.104,0.039
			c-0.335,0.006-0.72,0.02-1.161,0.041c-0.438,0.018-0.918,0.029-1.438,0.049c-0.521,0.01-1.033,0.027-1.53,0.053
			c-1.161,0.064-2.188,0.139-3.086,0.225c-1.631,0.152-2.872,0.584-3.735,1.283c-1.748,1.406-2.354,4.928-1.816,10.564
			c0.703,7.432,3.268,10.938,7.681,10.52c2.332-0.225,4.928-0.566,7.759-1.025l0.493-0.086l0.147,1.561
			c-1.158,0.326-2.567,0.646-4.229,0.959c-1.667,0.314-2.99,0.51-3.98,0.611C51.832,100.248,48.54,96.115,47.697,87.287z"/>
		<path fill="#FFFFFF" d="M72.111,85.184c-0.159-1.682-0.223-3.191-0.185-4.541c0.039-1.352,0.149-2.498,0.333-3.457
			c0.181-0.959,0.475-1.791,0.867-2.498c0.401-0.699,0.833-1.262,1.289-1.689c0.461-0.426,1.045-0.779,1.753-1.061
			c1.169-0.469,2.463-0.768,3.877-0.908c1.421-0.131,2.473-0.195,3.164-0.189c0.69,0.004,1.413,0.078,2.162,0.227
			c0.749,0.137,1.389,0.377,1.906,0.707c0.52,0.328,1.042,0.805,1.565,1.422c0.52,0.619,0.953,1.371,1.305,2.27
			c0.783,1.996,1.299,4.279,1.545,6.852c0.247,2.574,0.341,4.564,0.286,5.977c-0.062,1.406-0.241,2.602-0.552,3.582
			c-0.316,0.986-0.686,1.799-1.13,2.449c-0.435,0.652-1.045,1.168-1.816,1.543c-1.291,0.678-3.055,1.117-5.296,1.332
			c-3.188,0.301-5.412,0.047-6.684-0.758c-1.294-0.807-2.239-2.004-2.845-3.586C72.929,90.924,72.416,88.363,72.111,85.184z
			 M74.355,77.094c-0.287,0.846-0.44,1.93-0.457,3.238c-0.021,1.316,0.049,2.77,0.201,4.371c0.153,1.607,0.319,2.92,0.499,3.938
			c0.185,1.018,0.396,1.916,0.65,2.686c0.251,0.777,0.565,1.408,0.93,1.898c0.371,0.486,0.756,0.893,1.167,1.209
			c0.411,0.318,0.91,0.533,1.486,0.637c1.077,0.24,2.337,0.281,3.805,0.145c1.463-0.141,2.58-0.324,3.357-0.549
			c0.777-0.234,1.473-0.596,2.095-1.096c0.616-0.498,1.063-1.178,1.34-2.035c0.572-1.771,0.681-4.438,0.344-7.998
			c-0.353-3.705-0.904-6.262-1.653-7.664c-0.271-0.547-0.536-1-0.796-1.367c-0.258-0.373-0.597-0.664-0.997-0.895
			c-0.399-0.221-0.766-0.395-1.1-0.52c-0.335-0.121-0.763-0.189-1.288-0.217c-0.814-0.041-1.776-0.004-2.883,0.096
			c-1.11,0.105-1.936,0.209-2.469,0.309c-0.541,0.1-1.155,0.283-1.841,0.568c-0.691,0.279-1.188,0.676-1.497,1.195
			C74.941,75.562,74.646,76.24,74.355,77.094z"/>
		<path fill="#FFFFFF" d="M102.493,95.217l-2.465-25.906l2.054-0.197l16.503,20.752l-2.099-22.123l2.017-0.193l2.467,25.906
			l-2.014,0.201l-16.551-20.752l2.104,22.121L102.493,95.217z"/>
		<path fill="#FFFFFF" d="M129.683,85.344c-0.247-0.953-0.437-1.877-0.565-2.768c-0.138-0.889-0.267-2.018-0.394-3.379
			c-0.129-1.352-0.194-2.627-0.2-3.816c-0.011-1.188,0.098-2.389,0.336-3.6c0.227-1.213,0.592-2.225,1.099-3.035
			c0.506-0.805,1.234-1.494,2.185-2.062c0.943-0.564,1.985-0.902,3.132-1.014c1.145-0.107,2.677-0.152,4.6-0.135
			c1.914,0.023,3.495,0.09,4.747,0.207l0.149,1.596c-0.022,0.002-0.241,0.008-0.659,0.006c-0.416,0.01-0.95,0.018-1.601,0.033
			c-0.657,0.012-1.353,0.02-2.086,0.018c-1.807,0.051-3.283,0.135-4.43,0.242c-1.144,0.109-2.054,0.355-2.73,0.742
			c-0.682,0.383-1.22,0.885-1.626,1.492c-0.407,0.611-0.684,1.398-0.829,2.367c-0.312,1.695-0.303,4.346,0.041,7.943
			c0.347,3.592,1.046,6.193,2.099,7.779c1.081,1.588,2.815,2.27,5.194,2.047c0.806-0.086,1.796-0.316,2.967-0.717
			c1.173-0.393,2.166-0.775,2.965-1.135l1.196-0.547l-0.779-8.213l-6.516,0.621l-0.125-1.344c1.701-0.637,3.72-1.07,6.056-1.287
			c0.753-0.074,1.562-0.115,2.417-0.125l1.296,13.662l-1.483,0.139l-0.629-1.762c-1.188,0.801-2.444,1.428-3.765,1.881
			c-1.331,0.447-2.487,0.715-3.484,0.809c-0.022,0.006-0.296,0.033-0.812,0.082c-0.515,0.043-1.188-0.004-1.996-0.152
			c-0.814-0.146-1.521-0.395-2.138-0.744c-0.62-0.346-1.166-0.822-1.644-1.43c-0.476-0.617-0.866-1.256-1.165-1.943
			C130.202,87.115,129.926,86.295,129.683,85.344z"/>
		<path fill="#FFFFFF" d="M53.195,142.764l-2.463-25.912l10.615-1.008c4.031-0.377,6.293,1.938,6.772,6.963
			c0.114,1.277,0.096,2.396-0.058,3.371c-0.164,0.959-0.387,1.707-0.683,2.238c-0.291,0.527-0.676,0.969-1.142,1.318
			c-0.663,0.496-1.432,0.814-2.302,0.975l6.607,10.402l-2.201,0.215l-6.557-10.344c-0.331,0.031-1.681,0.088-4.057,0.176
			c-2.372,0.082-3.568,0.113-3.597,0.086l1.078,11.332L53.195,142.764z M66.046,122.861c-0.098-1.059-0.294-1.969-0.595-2.729
			c-0.301-0.756-0.668-1.295-1.1-1.609c-0.791-0.52-1.72-0.723-2.808-0.627l-8.604,0.82l1.033,10.832l8.6-0.816
			c1.605-0.156,2.621-0.68,3.066-1.578C66.098,126.229,66.232,124.805,66.046,122.861z"/>
		<path fill="#FFFFFF" d="M76.378,140.557l7.125-26.812l2.162-0.209l11.592,25.037l-2.366,0.221l-3.298-7.574l-10.827,1.029
			l-1.946,8.08L76.378,140.557z M81.32,130.162l9.374-0.895l-5.846-12.693L81.32,130.162z"/>
		<path fill="#FFFFFF" d="M97.223,114.467l-0.196-2.016l18.085-1.723l0.197,2.02l-8.144,0.777l2.271,23.889l-2.015,0.191
			l-2.274-23.891L97.223,114.467z"/>
		<path fill="#FFFFFF" d="M127.444,109.344c0.97-0.092,2.428-0.139,4.379-0.137c1.957,0.01,3.421,0.037,4.405,0.086l0.141,1.559
			l-8.552,0.492c-0.168,0.016-0.33,0.033-0.498,0.049c-1.392,0.131-2.452,0.502-3.179,1.125c-0.724,0.611-1.007,1.807-0.84,3.578
			l0.227,2.334c0.109,1.131,0.308,1.885,0.607,2.266c0.297,0.375,0.561,0.637,0.809,0.777c0.237,0.146,0.525,0.248,0.865,0.311
			c0.602,0.082,1.342,0.086,2.217,0.006l4.707-0.447c2.241-0.213,3.821,0.252,4.738,1.402c0.781,0.973,1.252,2.26,1.4,3.865
			l0.233,2.406c0.256,2.693-0.605,4.527-2.584,5.502c-1.022,0.494-2.151,0.809-3.377,0.924c-1.223,0.115-2.869,0.18-4.927,0.201
			c-2.058,0.02-3.521-0.016-4.385-0.1l-0.148-1.555c2.312-0.006,4.459-0.107,6.457-0.297c1.993-0.186,3.185-0.318,3.568-0.391
			c0.393-0.074,0.816-0.211,1.299-0.41c0.483-0.203,0.873-0.447,1.182-0.736c0.725-0.691,1.018-1.674,0.898-2.943l-0.225-2.412
			c-0.125-1.244-0.485-2.154-1.087-2.73c-0.604-0.58-1.554-0.801-2.852-0.68l-4.635,0.447c-2.995,0.283-4.962-0.373-5.901-1.977
			c-0.457-0.812-0.751-1.893-0.878-3.236l-0.225-2.34c-0.239-2.477,0.258-4.236,1.493-5.285
			C123.91,110.086,125.467,109.531,127.444,109.344z"/>
		<path fill="#FFFFFF" d="M147.491,133.109l-0.192-2.086c-0.047-0.494,0.166-0.766,0.641-0.809l1.411-0.135
			c0.447-0.043,0.693,0.182,0.746,0.672l0.196,2.094c0.041,0.449-0.163,0.691-0.611,0.736l-1.413,0.133
			c-0.213,0.021-0.391-0.027-0.534-0.146C147.594,133.457,147.514,133.301,147.491,133.109z M145.311,107.889l2.336-0.219
			l1.588,18.955l-1.908,0.178L145.311,107.889z"/>
	</g>
</g>
<g id="Tweet_x2F_Share">
</g>
<g id="Replay_x2F_Select">
</g>
<g id="Time_Alotted">
</g>
</svg>
