<?xml version="1.0" encoding="utf-8"?>
<!-- Generator: Adobe Illustrator 16.0.0, SVG Export Plug-In . SVG Version: 6.00 Build 0)  -->
<!DOCTYPE svg PUBLIC "-//W3C//DTD SVG 1.1//EN" "http://www.w3.org/Graphics/SVG/1.1/DTD/svg11.dtd">
<svg version="1.1" xmlns="http://www.w3.org/2000/svg" xmlns:xlink="http://www.w3.org/1999/xlink" x="0px" y="0px" width="200px"
	 height="200px" viewBox="0 0 200 200" enable-background="new 0 0 200 200" xml:space="preserve">
<g id="BG">
</g>
<g id="Type">
</g>
<g id="Face">
</g>
<g id="Beer_Gauge_1_">
</g>
<g id="Beer_Gauge">
	<polygon fill="#ED1C24" points="12.546,148.236 20.321,131.543 3.086,125.076 14.769,110.844 -0.318,100.291 14.533,89.41 
		2.547,75.441 19.641,68.6 11.501,52.078 29.76,49.709 25.988,31.688 44.26,33.926 45.089,15.531 62.232,22.246 67.604,4.631 
		82.541,15.406 92.126,-0.318 103.915,13.824 117.106,0.984 125.013,17.617 140.98,8.457 144.498,26.527 162.25,21.623 
		161.161,40.012 179.576,39.678 173.944,57.211 191.863,61.471 182.055,77.051 198.342,85.629 184.97,98.283 198.615,110.643 
		182.509,119.57 192.656,134.939 174.84,139.586 180.846,156.99 162.43,157.061 163.918,175.414 146.065,170.896 142.938,189.047 
		126.771,180.232 119.231,197.031 105.765,184.477 94.289,198.871 84.363,183.367 69.663,194.455 63.908,176.963 46.915,184.049 
		45.692,165.674 27.464,168.311 30.852,150.211 	"/>
	<g>
		<path fill="#FFFFFF" d="M56.326,63.302c1.17-0.107,2.936-0.153,5.301-0.141c2.36,0.017,4.133,0.056,5.323,0.12l0.171,1.883
			l-10.357,0.56c-0.201,0.017-0.402,0.034-0.601,0.055c-1.688,0.152-2.97,0.602-3.853,1.343c-0.881,0.745-1.225,2.188-1.027,4.326
			l0.258,2.829c0.128,1.37,0.367,2.283,0.729,2.739c0.355,0.458,0.682,0.774,0.968,0.948c0.29,0.174,0.642,0.302,1.054,0.378
			c0.729,0.108,1.62,0.112,2.675,0.016l5.698-0.523c2.715-0.245,4.626,0.329,5.727,1.723c0.943,1.184,1.503,2.743,1.681,4.685
			l0.267,2.914c0.298,3.253-0.75,5.465-3.147,6.635c-1.243,0.602-2.604,0.973-4.09,1.107c-1.482,0.138-3.47,0.209-5.959,0.222
			c-2.491,0.013-4.257-0.035-5.302-0.143l-0.175-1.883c2.793,0.004,5.396-0.104,7.809-0.327c2.413-0.22,3.853-0.373,4.318-0.459
			c0.468-0.087,0.991-0.247,1.577-0.488c0.578-0.24,1.055-0.537,1.43-0.89c0.872-0.826,1.239-2.011,1.101-3.552l-0.268-2.914
			c-0.142-1.515-0.571-2.617-1.296-3.313c-0.73-0.695-1.877-0.973-3.445-0.83l-5.607,0.512c-3.631,0.332-6.004-0.471-7.135-2.413
			c-0.551-0.987-0.898-2.292-1.048-3.919l-0.26-2.826c-0.272-3.001,0.34-5.129,1.835-6.387
			C52.042,64.181,53.926,63.521,56.326,63.302z"/>
		<path fill="#FFFFFF" d="M99.699,91.423l-0.469,0.042c-3.369,0.309-5.619,0.153-6.738-0.463c-0.519-0.299-1.12-0.756-1.81-1.368
			c-0.692-0.613-1.237-1.392-1.64-2.333c-0.994-2.359-1.648-5.275-1.967-8.76l-1.612-17.645l2.438-0.227l1.617,17.648
			c0.438,4.825,1.337,7.881,2.693,9.17c0.504,0.498,0.961,0.873,1.357,1.127c0.702,0.453,1.897,0.629,3.59,0.535
			c0.458-0.016,1.16-0.063,2.102-0.149l0.212-0.021c2.085-0.188,3.409-0.426,3.974-0.709c0.563-0.281,1.057-0.579,1.477-0.891
			c0.412-0.311,0.744-0.672,0.98-1.082c0.232-0.41,0.477-0.921,0.724-1.535c0.245-0.61,0.419-1.298,0.526-2.057
			c0.209-1.745,0.218-3.75,0.008-6.003l-1.611-17.646l2.44-0.226l1.612,17.648c0.514,5.597-0.069,9.436-1.751,11.517
			c-0.598,0.747-1.143,1.313-1.638,1.704c-0.497,0.394-1.199,0.715-2.095,0.97C102.971,91.006,101.497,91.257,99.699,91.423z"/>
		<path fill="#FFFFFF" d="M127.98,88.619l-2.865-31.35l12.549-1.147c2.656-0.24,4.668,0.393,6.047,1.907
			c1.242,1.354,2,3.463,2.262,6.316c0.48,5.252-0.799,8.408-3.844,9.463c-0.779,0.274-1.654,0.453-2.629,0.541
			c-0.969,0.092-2.906,0.158-5.808,0.209s-4.416,0.051-4.536,0.005l1.268,13.833L127.98,88.619z M128.994,72.806l10.112-0.925
			c1.423-0.127,2.547-0.605,3.366-1.428c0.941-1.008,1.284-2.926,1.026-5.753c-0.29-3.166-1.27-5.095-2.946-5.776
			c-0.748-0.304-1.636-0.411-2.663-0.317l-10.105,0.925L128.994,72.806z"/>
		<path fill="#FFFFFF" d="M55.979,141.714l-1.876-20.515c-0.18-1.968,0.184-3.434,1.093-4.396c0.901-0.96,2.054-1.504,3.455-1.631
			c0.113-0.012,0.229-0.021,0.339-0.033l13.289-0.608l0.17,1.839l-13.236,1.214c-1.107,0.099-1.857,0.435-2.236,1.001
			c-0.381,0.567-0.525,1.364-0.43,2.395l0.818,8.95l14.506-0.981l0.174,1.883l-14.446,1.67l0.823,8.992
			c0.124,1.342,0.571,2.166,1.349,2.468c0.594,0.205,1.36,0.264,2.307,0.179l12.803-1.173l0.165,1.8L62.3,146.578
			c-0.229,0.021-0.531,0.049-0.899,0.082c-0.376,0.034-0.838,0.025-1.387-0.024c-0.547-0.051-1.14-0.219-1.771-0.508
			C56.948,145.499,56.191,144.029,55.979,141.714z"/>
		<path fill="#FFFFFF" d="M93.457,143.599l-2.867-31.35l12.85-1.174c4.883-0.444,7.6,2.369,8.158,8.454
			c0.138,1.539,0.113,2.897-0.084,4.067c-0.193,1.166-0.47,2.071-0.829,2.71c-0.36,0.637-0.819,1.169-1.388,1.593
			c-0.809,0.591-1.74,0.98-2.789,1.161l7.937,12.62l-2.656,0.243l-7.884-12.536c-0.4,0.034-2.036,0.099-4.906,0.188
			c-2.872,0.089-4.321,0.122-4.353,0.097l1.253,13.704L93.457,143.599z M109.098,119.584c-0.117-1.285-0.354-2.387-0.713-3.305
			c-0.358-0.918-0.801-1.568-1.322-1.95c-0.952-0.633-2.082-0.89-3.395-0.771L93.26,114.51l1.199,13.108l10.404-0.952
			c1.94-0.181,3.18-0.809,3.715-1.895C109.142,123.655,109.312,121.923,109.098,119.584z"/>
		<path fill="#FFFFFF" d="M133.023,139.98l-2.865-31.348l11.646-1.067c4.113-0.376,6.839,1.103,8.182,4.437
			c0.362,0.859,0.596,1.816,0.693,2.873c0.16,1.77-0.092,3.32-0.766,4.646c-0.666,1.329-1.7,2.244-3.092,2.747
			c1.163,0.15,2.291,0.834,3.383,2.042c1.09,1.212,1.732,2.914,1.934,5.114c0.219,2.37-0.14,4.419-1.077,6.145
			c-1.089,1.942-3.218,3.058-6.389,3.347L133.023,139.98z M148.223,114.926c-0.334-3.624-2.395-5.264-6.193-4.92l-9.209,0.844
			l1.031,11.263l9.207-0.841c1.77-0.162,3.12-0.782,4.042-1.859C148.023,118.336,148.396,116.842,148.223,114.926z M135.242,137.317
			l9.209-0.841c3.881-0.354,5.629-2.661,5.241-6.913c-0.166-1.803-0.827-3.267-1.978-4.398c-1.157-1.132-2.618-1.618-4.391-1.455
			l-0.043,0.002l-9.21,0.846L135.242,137.317z"/>
	</g>
</g>
<g id="Tweet_x2F_Share">
</g>
<g id="Replay_x2F_Select">
</g>
<g id="Time_Alotted">
</g>
</svg>
