<?xml version="1.0" encoding="utf-8"?>
<!-- Generator: Adobe Illustrator 16.0.0, SVG Export Plug-In . SVG Version: 6.00 Build 0)  -->
<!DOCTYPE svg PUBLIC "-//W3C//DTD SVG 1.1//EN" "http://www.w3.org/Graphics/SVG/1.1/DTD/svg11.dtd">
<svg version="1.1" xmlns="http://www.w3.org/2000/svg" xmlns:xlink="http://www.w3.org/1999/xlink" x="0px" y="0px"
	 width="374.466px" height="308.631px" viewBox="0 0 374.466 308.631" enable-background="new 0 0 374.466 308.631"
	 xml:space="preserve">
<g id="BG">
</g>
<g id="Type">
	<rect x="2.003" fill="none" width="369.934" height="30.99"/>
	<text transform="matrix(1 0 0 1 147.9023 28.875)" fill="#FFFFFF" font-family="'Futura-Medium'" font-size="35">YOU</text>
	<rect x="236" y="15.631" fill="#FFFFFF" width="138" height="2"/>
	<rect x="2" y="15.631" fill="#FFFFFF" width="138" height="2"/>
	<g>
		<path fill="#FFFFFF" d="M38.535,43.736v35.682h-8.329V51.494l-8.002,14.941h-5.389L8.813,51.494l0.081,27.924H0.485V43.736h12.981
			l6.043,9.227l6.042-9.227H38.535z"/>
		<path fill="#FFFFFF" d="M69.971,79.418H49.476c-1.198,0-2.205-0.353-3.021-1.061c-0.815-0.707-1.225-1.605-1.225-2.695V43.654
			h8.492v28.17h12.003v-28.17h8.492v32.008c0,1.09-0.409,1.988-1.225,2.695C72.175,79.065,71.168,79.418,69.971,79.418z"/>
		<path fill="#FFFFFF" d="M105.733,51.248h-8.247v28.17h-8.41v-28.17h-8.247v-7.512h24.904V51.248z"/>
		<path fill="#FFFFFF" d="M138.966,43.736v35.682h-8.247V67.416h-11.595v12.002h-8.41V43.736h8.41v16.086h11.595V43.736H138.966z"/>
		<path fill="#FFFFFF" d="M172.197,79.418l-2.776-8.41h-13.227l-2.858,8.41h-8.655l11.676-35.6h12.819l11.676,35.6H172.197z
			 M162.807,51.33l-4.082,12.002h8.083L162.807,51.33z"/>
		<path fill="#FFFFFF" d="M202.98,58.107v6.858H187.63v-6.858H202.98z"/>
		<path fill="#FFFFFF" d="M222.577,51.412v6.531h10.206v7.512h-10.206v13.963h-8.248V43.736h26.783v7.676H222.577z"/>
		<path fill="#FFFFFF" d="M258.667,46.92l-1.961,2.858l-2.121-1.388v2.857h-3.512v-2.857l-2.123,1.388l-2.042-2.858l2.696-1.714
			l-2.696-1.715l2.042-2.858l2.123,1.389v-2.939h3.512v2.939l2.121-1.389l1.961,2.858l-2.612,1.715L258.667,46.92z"/>
		<path fill="#FFFFFF" d="M277.773,46.92l-1.961,2.858l-2.122-1.388v2.857h-3.511v-2.857l-2.123,1.388l-2.042-2.858l2.695-1.714
			l-2.695-1.715l2.042-2.858l2.123,1.389v-2.939h3.511v2.939l2.122-1.389l1.961,2.858l-2.613,1.715L277.773,46.92z"/>
		<path fill="#FFFFFF" d="M296.879,46.92l-1.96,2.858l-2.122-1.388v2.857h-3.511v-2.857l-2.123,1.388l-2.043-2.858l2.696-1.714
			l-2.696-1.715l2.043-2.858l2.123,1.389v-2.939h3.511v2.939l2.122-1.389l1.96,2.858l-2.612,1.715L296.879,46.92z"/>
		<path fill="#FFFFFF" d="M315.985,46.92l-1.961,2.858l-2.121-1.388v2.857h-3.512v-2.857l-2.123,1.388l-2.042-2.858l2.695-1.714
			l-2.695-1.715l2.042-2.858l2.123,1.389v-2.939h3.512v2.939l2.121-1.389l1.961,2.858l-2.613,1.715L315.985,46.92z"/>
		<path fill="#FFFFFF" d="M335.092,46.92l-1.961,2.858l-2.122-1.388v2.857h-3.511v-2.857l-2.123,1.388l-2.042-2.858l2.695-1.714
			l-2.695-1.715l2.042-2.858l2.123,1.389v-2.939h3.511v2.939l2.122-1.389l1.961,2.858l-2.613,1.715L335.092,46.92z"/>
		<path fill="#FFFFFF" d="M361.546,55.82v-4.572h-12.003v20.576h12.003v-4.49h-5.145V59.74h13.474v7.594v8.247
			c0,1.089-0.409,2.001-1.225,2.735c-0.817,0.734-1.797,1.102-2.94,1.102h-20.331c-1.144,0-2.123-0.367-2.94-1.102
			c-0.815-0.734-1.225-1.646-1.225-2.735V47.492c0-1.088,0.409-2,1.225-2.735c0.817-0.734,1.797-1.103,2.94-1.103h20.331
			c1.144,0,2.123,0.368,2.94,1.103c0.815,0.735,1.225,1.647,1.225,2.735v8.328H361.546z"/>
		<path fill="#FFFFFF" d="M37.954,90.473c1.691,0,3.192,0.57,4.504,1.712c1.31,1.142,1.966,2.56,1.966,4.249v43.639
			c0,1.692-0.656,3.088-1.966,4.186c-1.312,1.101-2.812,1.649-4.504,1.649H0.405V90.473H37.954z M13.345,102.396v9.895h18.141
			v-9.895H13.345z M31.485,134.236v-10.021H13.345v10.021H31.485z"/>
		<path fill="#FFFFFF" d="M68.905,134.11h24.356v11.797H55.713V90.473h13.192V134.11z"/>
		<path fill="#FFFFFF" d="M145.775,145.907l-4.313-13.065h-20.55l-4.439,13.065h-13.446l18.14-55.308h19.916l18.141,55.308H145.775z
			 M131.188,102.27l-6.343,18.647h12.558L131.188,102.27z"/>
		<path fill="#FFFFFF" d="M196.896,109.373v-6.977H181.04v31.84h15.856v-6.977h13.065v12.812c0,1.692-0.635,3.088-1.902,4.186
			c-1.269,1.101-2.835,1.649-4.694,1.649h-28.796c-1.861,0-3.404-0.549-4.629-1.649c-1.228-1.098-1.84-2.493-1.84-4.186V96.434
			c0-1.689,0.612-3.107,1.84-4.249c1.225-1.142,2.768-1.712,4.629-1.712h28.796c1.859,0,3.426,0.57,4.694,1.712
			c1.268,1.142,1.902,2.56,1.902,4.249v12.939H196.896z"/>
		<path fill="#FFFFFF" d="M252.711,145.907l-11.035-15.856l-11.037,15.856h-11.036V90.473h13.065v26.639l17.761-26.639h18.774
			l-18.647,26.639h0.38l19.027,28.796H252.711z"/>
		<path fill="#FFFFFF" d="M291.398,102.396v10.148h15.856v11.67h-15.856v10.021h28.796v11.671h-41.608V90.473h41.608v11.924H291.398
			z"/>
		<path fill="#FFFFFF" d="M366.622,90.473c1.777,0,3.3,0.57,4.568,1.712s1.902,2.56,1.902,4.249v43.639
			c0,1.692-0.634,3.088-1.902,4.186c-1.269,1.101-2.791,1.649-4.568,1.649h-37.42V90.473H366.622z M360.027,102.396H342.14v31.84
			h17.888V102.396z"/>
		<path fill="#FFFFFF" d="M102.229,308.631H18.39c-4.695,0-8.719-1.453-12.074-4.361c-3.353-2.902-5.028-6.591-5.028-11.066V177.504
			c0-4.244,1.676-7.881,5.028-10.898c3.355-3.019,7.379-4.527,12.074-4.527h83.84c4.694,0,8.72,1.509,12.073,4.527
			c3.354,3.018,5.03,6.654,5.03,10.898v115.699c0,4.476-1.677,8.164-5.03,11.066C110.949,307.178,106.924,308.631,102.229,308.631z
			 M35.828,277.441H84.79v-84.176H35.828V277.441z"/>
		<path fill="#FFFFFF" d="M241.402,308.631h-84.175c-4.921,0-9.056-1.453-12.409-4.361c-3.354-2.902-5.03-6.591-5.03-11.066V161.742
			h34.878v115.699h49.298V161.742h34.877v131.461c0,4.476-1.678,8.164-5.03,11.066C250.457,307.178,246.317,308.631,241.402,308.631
			z"/>
		<path fill="#FFFFFF" d="M374.871,192.931h-33.87v115.7h-34.543v-115.7h-33.871v-30.853h102.284V192.931z"/>
	</g>
</g>
<g id="Face">
</g>
<g id="Beer_Gauge_1_">
</g>
<g id="Beer_Gauge">
</g>
<g id="Tweet_x2F_Share">
</g>
<g id="Replay_x2F_Select">
</g>
<g id="Time_Alotted">
</g>
</svg>
