<?xml version="1.0" encoding="utf-8"?>
<!-- Generator: Adobe Illustrator 16.0.0, SVG Export Plug-In . SVG Version: 6.00 Build 0)  -->
<!DOCTYPE svg PUBLIC "-//W3C//DTD SVG 1.1//EN" "http://www.w3.org/Graphics/SVG/1.1/DTD/svg11.dtd">
<svg version="1.1" xmlns="http://www.w3.org/2000/svg" xmlns:xlink="http://www.w3.org/1999/xlink" x="0px" y="0px"
	 width="399.15px" height="367.657px" viewBox="0 0 399.15 367.657" enable-background="new 0 0 399.15 367.657"
	 xml:space="preserve">
<g id="BG">
</g>
<g id="Type">
	<rect x="4.086" y="-0.823" fill="none" width="384.684" height="32.227"/>
	<text transform="matrix(1 0 0 1 109.8193 29.2041)" fill="#FFFFFF" font-family="'Futura-Medium'" font-size="36.3955">YOU GOT</text>
	<rect x="290.15" y="16" fill="#FFFFFF" width="100" height="2"/>
	<rect x="4.15" y="16" fill="#FFFFFF" width="100" height="2"/>
	<g>
		<path fill="#FFFFFF" d="M42.875,74.077v-7.775c0-6.405-5.26-11.665-11.664-11.665s-11.664,5.26-11.664,11.665
			c0,2.972,0,2.972,0.686,3.888l31.792,42.085c5.489,7.318,5.489,7.318,5.489,14.637c0,14.41-11.894,26.303-26.303,26.303
			S4.909,141.321,4.909,126.911v-7.776c0-2.058,1.602-3.66,3.658-3.66h7.32c2.059,0,3.659,1.603,3.659,3.66v7.776
			c0,6.404,5.26,11.664,11.664,11.664s11.664-5.26,11.664-11.664c0-2.973,0-2.973-0.686-3.888L10.397,80.939
			C4.909,73.62,4.909,73.62,4.909,66.302c0-14.409,11.893-26.303,26.302-26.303s26.303,11.894,26.303,26.303v7.775
			c0,2.06-1.602,3.66-3.66,3.66h-7.318C44.477,77.737,42.875,76.137,42.875,74.077z"/>
		<path fill="#FFFFFF" d="M127.046,66.302v60.382c0,14.638-11.894,26.53-26.302,26.53c-14.639,0-26.531-11.893-26.531-26.53V66.302
			c0-14.409,11.893-26.303,26.531-26.303C115.152,39.999,127.046,51.893,127.046,66.302z M112.408,66.302
			c0-6.405-5.262-11.665-11.664-11.665c-6.634,0-11.894,5.26-11.894,11.665v60.382c0,6.632,5.26,11.892,11.894,11.892
			c6.402,0,11.664-5.26,11.664-11.892V66.302z"/>
		<path fill="#FFFFFF" d="M198.864,66.302v60.382c0,14.638-11.894,26.53-26.302,26.53c-14.639,0-26.531-11.893-26.531-26.53V66.302
			c0-14.409,11.893-26.303,26.531-26.303C186.971,39.999,198.864,51.893,198.864,66.302z M184.227,66.302
			c0-6.405-5.261-11.665-11.664-11.665c-6.634,0-11.895,5.26-11.895,11.665v60.382c0,6.632,5.261,11.892,11.895,11.892
			c6.403,0,11.664-5.26,11.664-11.892V66.302z"/>
		<path fill="#FFFFFF" d="M270.683,66.302V77.28c0,14.637-11.894,26.53-26.303,26.53h-11.892v45.744c0,1.829-1.602,3.659-3.66,3.659
			h-7.32c-1.83,0-3.658-1.83-3.658-3.659v-45.744V89.174V43.659c0-2.06,1.828-3.66,3.658-3.66h22.872
			C258.789,39.999,270.683,51.893,270.683,66.302z M256.045,66.302c0-6.405-5.261-11.665-11.665-11.665h-11.892v34.537h11.892
			c6.404,0,11.665-5.262,11.665-11.894V66.302z"/>
		<path fill="#FFFFFF" d="M299.504,54.637v34.537h19.897c2.059,0,3.66,1.6,3.66,3.658v7.319c0,2.06-1.602,3.659-3.66,3.659h-19.897
			v34.765h19.897c2.059,0,3.66,1.603,3.66,3.66v7.319c0,2.058-1.602,3.659-3.66,3.659h-27.218c-4.116,0-7.318-3.431-7.318-7.318
			V47.317c0-4.116,3.202-7.318,7.318-7.318h27.218c2.059,0,3.66,1.601,3.66,3.66v7.317c0,2.06-1.602,3.66-3.66,3.66H299.504z"/>
		<path fill="#FFFFFF" d="M393.509,77.28c0,7.547-2.975,14.409-8.005,19.212c5.03,4.803,8.005,11.436,8.005,18.982v34.08
			c0,1.829-1.602,3.659-3.66,3.659h-7.318c-2.059,0-3.66-1.83-3.66-3.659v-34.08c0-6.403-5.261-11.664-11.664-11.664h-11.665v45.744
			c0,1.829-1.829,3.659-3.659,3.659h-7.319c-2.058,0-3.659-1.83-3.659-3.659V47.317c0-4.116,3.201-7.318,7.319-7.318h18.983
			c14.638,0,26.303,11.894,26.303,26.303V77.28z M378.87,66.302c0-6.405-5.261-11.665-11.664-11.665h-11.665v34.537h11.665
			c6.403,0,11.664-5.262,11.664-11.894V66.302z"/>
		<path fill="#FFFFFF" d="M28.515,309.663v-4.885c0-4.023-3.305-7.327-7.327-7.327s-7.326,3.304-7.326,7.327
			c0,1.866,0,1.866,0.431,2.441l19.97,26.434c3.448,4.599,3.448,4.599,3.448,9.195c0,9.05-7.472,16.521-16.522,16.521
			c-9.05,0-16.521-7.472-16.521-16.521v-4.886c0-1.293,1.006-2.298,2.3-2.298h4.596c1.293,0,2.299,1.005,2.299,2.298v4.886
			c0,4.023,3.304,7.327,7.326,7.327s7.327-3.304,7.327-7.327c0-1.867,0-1.867-0.431-2.442L8.115,313.973
			c-3.448-4.597-3.448-4.597-3.448-9.194c0-9.052,7.471-16.522,16.521-16.522c9.051,0,16.522,7.471,16.522,16.522v4.885
			c0,1.293-1.007,2.298-2.299,2.298h-4.598C29.52,311.961,28.515,310.956,28.515,309.663z"/>
		<path fill="#FFFFFF" d="M72.047,309.663v-4.885c0-4.023-3.305-7.327-7.328-7.327c-4.022,0-7.327,3.304-7.327,7.327v38.07
			c0,4.023,3.305,7.327,7.327,7.327c4.023,0,7.328-3.304,7.328-7.327v-5.314c0-1.294,1.005-2.301,2.298-2.301h4.599
			c1.291,0,2.298,1.007,2.298,2.301v5.314c0,9.05-7.473,16.521-16.522,16.521c-9.194,0-16.521-7.472-16.521-16.521v-38.07
			c0-9.052,7.327-16.522,16.521-16.522c9.05,0,16.522,7.471,16.522,16.522v4.885c0,1.293-1.007,2.298-2.298,2.298h-4.599
			C73.052,311.961,72.047,310.956,72.047,309.663z"/>
		<path fill="#FFFFFF" d="M124.771,290.556v66.517c0,1.292-1.007,2.298-2.299,2.298h-4.598c-1.15,0-2.298-1.006-2.298-2.298v-28.733
			h-14.655v28.733c0,1.292-1.006,2.298-2.299,2.298h-4.597c-1.293,0-2.299-1.006-2.299-2.298v-66.517c0-1.294,1.006-2.3,2.299-2.3
			h4.597c1.293,0,2.299,1.006,2.299,2.3v28.589h14.655v-28.589c0-1.294,1.147-2.3,2.298-2.3h4.598
			C123.765,288.256,124.771,289.262,124.771,290.556z"/>
		<path fill="#FFFFFF" d="M193.729,290.699v44.534c0,3.449-1.005,6.61-2.73,9.195l-7.757,13.792
			c-0.431,0.574-1.148,1.149-2.011,1.149h-8.045c-0.862,0-1.58-0.575-2.012-1.149l-5.89-10.631l-6.034,10.631
			c-0.431,0.574-1.149,1.149-2.011,1.149h-8.046c-0.718,0-1.58-0.575-1.868-1.149l-7.901-13.792
			c-1.723-2.585-2.729-5.746-2.729-9.195v-44.534c0-1.293,1.007-2.299,2.298-2.299h4.598c1.294,0,2.299,1.006,2.299,2.299v44.534
			c0,0.863,0.145,1.582,0.432,2.444l6.896,12.211l7.039-12.211c0.288-0.862,0.431-1.581,0.431-2.444v-44.534
			c0-1.293,1.007-2.299,2.301-2.299h4.597c1.148,0,2.298,1.006,2.298,2.299v44.534c0,0.863,0.145,1.582,0.287,2.444l7.039,12.211
			l6.896-12.211c0.287-0.862,0.432-1.581,0.432-2.444v-44.534c0-1.293,1.005-2.299,2.298-2.299h4.597
			C192.724,288.4,193.729,289.406,193.729,290.699z"/>
		<path fill="#FFFFFF" d="M238.841,304.922v52.15c0,1.292-1.006,2.298-2.298,2.298h-4.598c-1.294,0-2.299-1.006-2.299-2.298v-28.59
			H214.85v28.59c0,1.292-1.006,2.298-2.299,2.298h-4.598c-1.292,0-2.298-1.006-2.298-2.298v-52.15
			c0-9.051,7.47-16.521,16.664-16.521C231.371,288.4,238.841,295.871,238.841,304.922z M229.646,304.922
			c0-4.022-3.305-7.327-7.327-7.327c-4.165,0-7.47,3.305-7.47,7.327v14.366h14.797V304.922z"/>
		<path fill="#FFFFFF" d="M273.178,309.663v-4.885c0-4.023-3.305-7.327-7.327-7.327s-7.325,3.304-7.325,7.327
			c0,1.866,0,1.866,0.43,2.441l19.969,26.434c3.448,4.599,3.448,4.599,3.448,9.195c0,9.05-7.47,16.521-16.521,16.521
			c-9.051,0-16.52-7.472-16.52-16.521v-4.886c0-1.293,1.005-2.298,2.298-2.298h4.598c1.292,0,2.299,1.005,2.299,2.298v4.886
			c0,4.023,3.303,7.327,7.325,7.327s7.327-3.304,7.327-7.327c0-1.867,0-1.867-0.432-2.442l-19.968-26.434
			c-3.447-4.597-3.447-4.597-3.447-9.194c0-9.052,7.469-16.522,16.52-16.522c9.052,0,16.521,7.471,16.521,16.522v4.885
			c0,1.293-1.007,2.298-2.298,2.298h-4.598C274.184,311.961,273.178,310.956,273.178,309.663z"/>
		<path fill="#FFFFFF" d="M313.834,290.556v4.596c0,1.294-1.005,2.3-2.298,2.3h-6.465v59.621c0,1.148-1.005,2.298-2.298,2.298
			h-4.598c-1.293,0-2.299-1.149-2.299-2.298v-59.621h-6.465c-1.293,0-2.299-1.006-2.299-2.3v-4.596c0-1.294,1.006-2.3,2.299-2.3
			h22.124C312.829,288.256,313.834,289.262,313.834,290.556z"/>
		<path fill="#FFFFFF" d="M333.516,297.451v21.693h12.501c1.292,0,2.298,1.006,2.298,2.297v4.598c0,1.294-1.006,2.3-2.298,2.3
			h-12.501v21.837h12.501c1.292,0,2.298,1.005,2.298,2.299v4.598c0,1.292-1.006,2.298-2.298,2.298H328.92
			c-2.586,0-4.598-2.155-4.598-4.598v-61.919c0-2.586,2.012-4.598,4.598-4.598h17.097c1.292,0,2.298,1.006,2.298,2.3v4.596
			c0,1.294-1.006,2.3-2.298,2.3H333.516z"/>
		<path fill="#FFFFFF" d="M393.426,304.922v37.783c0,9.193-7.326,16.665-16.521,16.665h-12.068c-2.442,0-4.599-2.155-4.599-4.598
			v-61.919c0-2.586,2.156-4.598,4.599-4.598h12.068C386.1,288.256,393.426,295.727,393.426,304.922z M384.232,304.922
			c0-4.167-3.305-7.471-7.327-7.471h-7.472v52.581h7.472c4.022,0,7.327-3.305,7.327-7.327V304.922z"/>
	</g>
	<g>
		<path fill="#FFFFFF" d="M55.599,190.65v60.488c0,14.72-11.728,26.68-26.447,26.68H9.832c-3.91,0-7.361-3.45-7.361-7.359v-99.127
			c0-4.142,3.451-7.361,7.361-7.361h19.319C43.871,163.971,55.599,175.93,55.599,190.65z M40.879,190.65
			c0-6.67-5.289-11.959-11.728-11.959H17.19v84.178h11.961c6.438,0,11.728-5.291,11.728-11.73V190.65z"/>
		<path fill="#FFFFFF" d="M127.818,190.421v60.718c0,14.72-11.958,26.68-26.448,26.68c-14.72,0-26.68-11.96-26.68-26.68v-60.718
			c0-14.491,11.96-26.45,26.68-26.45C115.86,163.971,127.818,175.93,127.818,190.421z M113.099,190.421
			c0-6.44-5.288-11.729-11.729-11.729c-6.67,0-11.96,5.289-11.96,11.729v60.718c0,6.67,5.29,11.96,11.96,11.96
			c6.44,0,11.729-5.29,11.729-11.96V190.421z"/>
		<path fill="#FFFFFF" d="M200.038,190.421v60.718c0,14.72-11.958,26.68-26.447,26.68c-14.721,0-26.681-11.96-26.681-26.68v-60.718
			c0-14.491,11.96-26.45,26.681-26.45C188.08,163.971,200.038,175.93,200.038,190.421z M185.318,190.421
			c0-6.44-5.288-11.729-11.728-11.729c-6.67,0-11.961,5.289-11.961,11.729v60.718c0,6.67,5.291,11.96,11.961,11.96
			c6.439,0,11.728-5.29,11.728-11.96V190.421z"/>
		<path fill="#FFFFFF" d="M272.258,190.421v11.038c0,14.72-11.957,26.681-26.447,26.681H233.85v45.999
			c0,1.838-1.611,3.68-3.682,3.68h-7.357c-1.841,0-3.681-1.842-3.681-3.68V228.14v-14.72v-45.77c0-2.07,1.84-3.68,3.681-3.68h23
			C260.301,163.971,272.258,175.93,272.258,190.421z M257.538,190.421c0-6.44-5.289-11.729-11.728-11.729H233.85v34.729h11.961
			c6.438,0,11.728-5.29,11.728-11.961V190.421z"/>
		<path fill="#FFFFFF" d="M301.24,178.691v34.729h20.01c2.07,0,3.679,1.608,3.679,3.68v7.359c0,2.07-1.608,3.681-3.679,3.681h-20.01
			v34.959h20.01c2.07,0,3.679,1.61,3.679,3.679v7.361c0,2.068-1.608,3.68-3.679,3.68h-27.369c-4.139,0-7.36-3.45-7.36-7.359v-99.127
			c0-4.142,3.222-7.361,7.36-7.361h27.369c2.07,0,3.679,1.609,3.679,3.68v7.359c0,2.07-1.608,3.682-3.679,3.682H301.24z"/>
		<path fill="#FFFFFF" d="M395.77,201.459c0,7.592-2.991,14.489-8.049,19.32c5.058,4.829,8.049,11.501,8.049,19.09v34.27
			c0,1.838-1.61,3.68-3.68,3.68h-7.359c-2.069,0-3.68-1.842-3.68-3.68v-34.27c0-6.439-5.291-11.729-11.731-11.729h-11.728v45.999
			c0,1.838-1.841,3.68-3.681,3.68h-7.361c-2.069,0-3.679-1.842-3.679-3.68V171.332c0-4.142,3.22-7.361,7.359-7.361h19.089
			c14.72,0,26.45,11.959,26.45,26.45V201.459z M381.051,190.421c0-6.44-5.291-11.729-11.731-11.729h-11.728v34.729h11.728
			c6.44,0,11.731-5.29,11.731-11.961V190.421z"/>
	</g>
</g>
<g id="Face">
</g>
<g id="Beer_Gauge_1_">
</g>
<g id="Beer_Gauge">
</g>
<g id="Tweet_x2F_Share">
</g>
<g id="Replay_x2F_Select">
</g>
<g id="Time_Alotted">
</g>
</svg>
