<?xml version="1.0" encoding="utf-8"?>
<!-- Generator: Adobe Illustrator 16.0.0, SVG Export Plug-In . SVG Version: 6.00 Build 0)  -->
<!DOCTYPE svg PUBLIC "-//W3C//DTD SVG 1.1//EN" "http://www.w3.org/Graphics/SVG/1.1/DTD/svg11.dtd">
<svg version="1.1" xmlns="http://www.w3.org/2000/svg" xmlns:xlink="http://www.w3.org/1999/xlink" x="0px" y="0px"
	 width="377.881px" height="301.323px" viewBox="0 0 377.881 301.323" enable-background="new 0 0 377.881 301.323"
	 xml:space="preserve">
<g id="BG">
</g>
<g id="Type">
	<rect x="3.42" y="-0.388" fill="none" width="369.934" height="30.99"/>
	<text transform="matrix(1 0 0 1 105.0996 28.4873)" fill="#FFFFFF" font-family="'Futura-Medium'" font-size="35">YOU GOT</text>
	<rect x="278.547" y="15.823" fill="#FFFFFF" width="96" height="2"/>
	<rect x="3.547" y="15.823" fill="#FFFFFF" width="96" height="2"/>
	<g>
		<path fill="#FFFFFF" d="M32.478,74.243c-0.113,6.104-4.069,9.723-11.87,10.966c2.6,8.026,13.113,43.073,13.113,43.073h-8.592
			L13.033,85.209h-0.904v5.767v37.307H3.423L3.536,43.72h15.375c5.539,0,13.566,2.261,13.566,11.87V74.243z M12.241,80.801h6.783
			c4.861,0,4.861-6.558,4.861-6.558s0.113-6.218,0.113-13.227c0-7.688,0.679-13.341-4.862-13.341h-6.896V80.801z"/>
		<path fill="#FFFFFF" d="M41.859,43.72h8.706v84.788h-8.706V43.72z"/>
		<path fill="#FFFFFF" d="M73.287,80.801H89.68v35.837c0,7.122-3.165,12.889-14.922,12.889c-9.61,0-11.532-2.374-13.906-7.01
			c-1.469-3.053-1.13-8.479-1.13-14.357V71.982c0-6.105,0.112-16.167,1.13-19.333c1.809-5.991,7.123-9.948,13.566-9.948
			c10.401,0,15.262,5.767,15.262,12.889v9.044h-8.479v-8.931c0-7.123-1.809-8.932-6.669-8.932c-7.349,0-6.331,6.67-6.331,15.149
			v46.917c0.112,9.157-1.131,16.618,6.557,16.618c4.86,0,6.331-1.583,6.331-7.688V85.096h-7.802V80.801z"/>
		<path fill="#FFFFFF" d="M108.106,43.832v37.082h12.549V43.832h8.706v84.45h-8.706V85.209h-12.549c0,41.377,0,43.073,0,43.073
			h-8.705l-0.113-84.45H108.106z"/>
		<path fill="#FFFFFF" d="M137.159,43.832h30.072v4.409h-10.739v80.041h-8.705V48.241h-10.628V43.832z"/>
		<path fill="#FFFFFF" d="M196.06,43.832v4.409h-14.019v32.785h13.001v4.297h-13.001l0.113,38.663h13.792v4.296h-22.61l-0.113-84.45
			H196.06z"/>
		<path fill="#FFFFFF" d="M232.122,71.982c0,37.985,0,39.794,0,41.49c0,3.73-0.113,7.01-1.131,9.044
			c-2.374,4.636-7.348,7.01-13.792,7.01c-6.332,0-11.306-2.374-13.68-7.01c-1.018-2.034-1.131-5.313-1.131-9.044
			c0-1.696,0-3.505,0-41.49c0-6.105,0.113-16.167,1.131-19.333c1.809-5.991,6.783-9.948,13.793-9.948
			c6.782,0,11.87,3.957,13.679,9.948C232.009,55.815,232.122,65.877,232.122,71.982z M210.756,115.395
			c0,5.878,0.678,10.062,6.443,10.062h0.113c6.443,0,6.331-4.184,6.331-16.618c0-48.613,0-50.309,0-51.779
			c0-6.104-0.565-10.287-6.331-10.287h-0.113c-5.766,0-6.332,4.069-6.332,9.948C210.867,75.938,210.756,95.271,210.756,115.395z"/>
		<path fill="#FFFFFF" d="M249.418,115.395c0,5.878,0.679,10.062,6.444,10.062h0.112c6.445,0,6.332-4.184,6.332-16.618V43.832h8.479
			v0.227v69.414c0,3.73-0.113,7.01-1.13,9.044c-2.375,4.636-7.463,7.01-12.663,7.01h-2.261c-5.2,0-10.175-2.374-12.549-7.01
			c-1.018-2.034-1.13-5.313-1.13-9.044V44.059v-0.227h8.479v65.006C249.531,111.099,249.418,113.359,249.418,115.395z"/>
		<path fill="#FFFFFF" d="M300.63,55.477c0-6.444-1.695-8.818-6.557-8.818c-4.636,0-6.331,2.714-6.331,8.818
			c0,1.922,0,6.558,0,11.079c0,3.957,0.565,5.652,1.018,6.218c3.73,4.748,6.331,8.141,11.192,14.019
			c10.288,12.21,9.271,11.645,9.271,28.941c0,10.853-6.332,13.566-14.923,13.566c-8.593,0-14.924-4.409-14.924-13.001
			c0-3.166,0-13.228,0-13.228h8.479c0,4.409,0,9.271,0,13.002c0,8.026,2.601,9.044,6.444,9.044c4.296,0,6.443-1.131,6.443-9.044
			c0-2.826,0-10.288,0-13.115c0-5.087-14.019-18.54-17.75-24.08c-1.809-2.713-3.73-3.504-3.73-14.923c0-10.4,0-5.2,0-8.592
			c0-6.331,4.862-12.775,14.924-12.775c9.608,0,15.036,3.618,15.036,12.889c0,2.374,0,9.045,0,9.045c0.226,0-7.914,0-8.593,0
			C300.63,63.955,300.63,61.017,300.63,55.477z"/>
		<path fill="#FFFFFF" d="M325.274,43.832l0.113,79.928h13.792v4.522H316.57l-0.113-84.45H325.274z"/>
		<path fill="#FFFFFF" d="M362.808,128.282h-8.705V91.54l-10.515-47.708h8.479l8.366,37.759l9.157-37.759h4.296l-11.079,47.595
			V128.282z"/>
		<path fill="#FFFFFF" d="M3.384,290.392v-83.165h0.197v-65.698H24.82c19.848,0,29.375,5.557,29.375,26.001v15.481
			c0.197,17.468-4.366,26.598-13.695,27.192c7.939,1.191,15.681,5.161,15.681,24.017v30.367c0,25.805-15.879,25.805-27.391,25.805
			H3.384z M18.667,214.174v69.271h10.321c8.535,0,12.306-6.353,12.306-18.262l0.199-27.588c0-11.116,0.793-23.421-12.307-23.421
			H18.667z M39.707,171.896c0-13.496-0.199-23.422-11.314-23.422h-9.527v58.156h8.336C38.912,206.631,39.707,199.287,39.707,171.896
			z"/>
		<path fill="#FFFFFF" d="M85.754,267.565c0,10.321,1.191,17.664,11.312,17.664h0.199c11.313,0,11.115-7.343,11.115-29.177V141.926
			h14.886v0.396V264.19c0,6.55-0.198,12.307-1.984,15.879c-4.169,8.137-13.101,12.306-22.23,12.306h-3.97
			c-9.13,0-17.863-4.169-22.031-12.306c-1.787-3.572-1.986-9.329-1.986-15.879V142.322v-0.396h14.888v114.127
			C85.952,260.023,85.754,263.993,85.754,267.565z"/>
		<path fill="#FFFFFF" d="M190.749,141.926l-35.33,140.129h35.33v8.137h-53.192l36.322-140.525h-35.926v-7.74H190.749z"/>
		<path fill="#FFFFFF" d="M258.232,141.926l-35.33,140.129h35.33v8.137H205.04l36.321-140.525h-35.926v-7.74H258.232z"/>
		<path fill="#FFFFFF" d="M311.027,141.926v7.74h-24.611v57.561h22.826v7.542h-22.826l0.198,67.881h24.215v7.542h-39.696
			l-0.198-148.266H311.027z"/>
		<path fill="#FFFFFF" d="M321.743,290.589V141.727h29.575c9.727,0,23.222,5.358,23.222,20.443v102.616
			c0,24.016-19.253,25.803-26.397,25.803H321.743z M337.027,148.674v134.968h11.313c6.353,0,11.314-5.16,11.314-15.084v-8.534
			c0-13.695,0.197-76.813,0.197-87.929c0-13.497,0.397-23.421-9.527-23.421H337.027z"/>
	</g>
</g>
<g id="Face">
</g>
<g id="Beer_Gauge_1_">
</g>
<g id="Beer_Gauge">
</g>
<g id="Tweet_x2F_Share">
</g>
<g id="Replay_x2F_Select">
</g>
<g id="Time_Alotted">
</g>
</svg>
