<?xml version="1.0" encoding="utf-8"?>
<!-- Generator: Adobe Illustrator 16.0.0, SVG Export Plug-In . SVG Version: 6.00 Build 0)  -->
<!DOCTYPE svg PUBLIC "-//W3C//DTD SVG 1.1//EN" "http://www.w3.org/Graphics/SVG/1.1/DTD/svg11.dtd">
<svg version="1.1" xmlns="http://www.w3.org/2000/svg" xmlns:xlink="http://www.w3.org/1999/xlink" x="0px" y="0px"
	 width="494.27px" height="339.505px" viewBox="0 0 494.27 339.505" enable-background="new 0 0 494.27 339.505"
	 xml:space="preserve">
<g id="BG">
	<rect x="5.159" y="8.748" fill="none" width="483.951" height="40.54"/>
	<text transform="matrix(1 0 0 1 138.1768 46.5225)" fill="#FFFFFF" font-family="'Futura-Medium'" font-size="45.7875">YOU GOT</text>
	<rect x="364.285" y="29" fill="#FFFFFF" width="126" height="3"/>
	<rect x="5.285" y="29" fill="#FFFFFF" width="126" height="3"/>
	<g>
		<path fill="#FFFFFF" d="M6.098,139.213l8.362-2.747c2.247,8.612,8.486,13.854,15.726,13.854c10.482,0,15.725-7.363,15.725-17.347
			c0-18.223-33.82-26.958-33.82-46.926c0-10.733,8.484-17.972,18.22-17.972c5.988,0,12.231,2.62,15.727,8.237l-7.24,5.116
			c-1.995-3.12-4.742-5.617-8.486-5.617c-5.739,0-9.609,4.493-9.609,10.235c0,13.853,33.946,23.962,33.946,46.926
			c0,14.227-11.108,24.961-24.585,24.961C19.828,157.935,9.219,151.568,6.098,139.213z"/>
		<path fill="#FFFFFF" d="M111.309,156.686H67.628V69.322h8.735v78.627h34.945V156.686z"/>
		<path fill="#FFFFFF" d="M121.296,156.686v-7.489h10.608V76.812h-10.608v-7.489h29.827v7.489H140.64v72.385h10.483v7.489H121.296z"
			/>
		<path fill="#FFFFFF" d="M205.287,157.935c-24.833,0-44.927-20.095-44.927-44.93c0-24.712,20.094-44.929,44.927-44.929
			c12.357,0,23.59,4.99,31.703,13.104l-6.116,6.24c-6.49-6.491-15.601-11.106-25.587-11.106c-20.091,0-36.191,16.723-36.191,36.691
			c0,20.091,16.101,36.692,36.191,36.692c9.862,0,16.977-2.497,23.215-7.988V118.12h-23.337v-8.236h32.072v34.696
			C229.126,152.815,217.771,157.935,205.287,157.935z"/>
		<path fill="#FFFFFF" d="M300.891,156.686v-45.304h-37.438v45.304h-8.736V69.322h8.736v33.947h37.438V69.322h8.736v87.363H300.891z
			"/>
		<path fill="#FFFFFF" d="M342.08,156.686V77.56h-19.968v-8.237h48.673v8.237h-19.968v79.126H342.08z"/>
		<path fill="#FFFFFF" d="M429.442,156.686h-43.682V69.322h8.735v78.627h34.946V156.686z"/>
		<path fill="#FFFFFF" d="M451.784,156.686v-50.172l-27.956-37.191h10.607l19.345,25.961c1.374,1.871,2.372,3.37,2.372,3.37
			s1-1.499,2.496-3.495l19.219-25.836h10.734l-28.08,37.318v50.045H451.784z"/>
		<path fill="#FFFFFF" d="M41.496,337.262V194.99H5.594V180.18h87.518v14.811H57.207v142.271H41.496z"/>
		<path fill="#FFFFFF" d="M108.814,337.262v-13.466h19.072V193.644h-19.072V180.18h53.631v13.464h-18.849v130.152h18.849v13.466
			H108.814z"/>
		<path fill="#FFFFFF" d="M182.636,337.262V180.18h45.555c32.313,0,48.92,21.094,48.92,46.676c0,26.704-18.626,46.451-48.92,46.451
			h-29.845v63.955H182.636z M228.19,258.495c23.563,0,33.21-13.462,33.21-31.64c0-18.85-10.77-31.865-33.21-31.865h-29.845v63.505
			H228.19z"/>
		<path fill="#FFFFFF" d="M288.324,305.844l15.035-4.936c4.039,15.483,15.26,24.909,28.275,24.909
			c18.85,0,28.274-13.241,28.274-31.192c0-32.764-60.812-48.471-60.812-84.375c0-19.299,15.259-32.313,32.761-32.313
			c10.772,0,21.992,4.714,28.275,14.812l-13.015,9.199c-3.591-5.609-8.528-10.098-15.261-10.098c-10.32,0-17.277,8.078-17.277,18.4
			c0,24.909,61.035,43.086,61.035,84.375c0,25.581-19.971,44.88-44.208,44.88C313.008,339.505,293.934,328.06,288.324,305.844z"/>
		<path fill="#FFFFFF" d="M424.979,337.262v-90.211l-50.266-66.871h19.072l34.783,46.676c2.468,3.365,4.263,6.06,4.263,6.06
			s1.795-2.694,4.489-6.284l34.557-46.451h19.299l-50.49,67.096v89.986H424.979z"/>
	</g>
</g>
<g id="Type">
</g>
<g id="Face">
</g>
<g id="Beer_Gauge_1_">
</g>
<g id="Beer_Gauge">
</g>
<g id="Tweet_x2F_Share">
</g>
<g id="Replay_x2F_Select">
</g>
<g id="Time_Alotted">
</g>
</svg>
