<?xml version="1.0" encoding="utf-8"?>
<!-- Generator: Adobe Illustrator 16.0.1, SVG Export Plug-In . SVG Version: 6.00 Build 0)  -->
<!DOCTYPE svg PUBLIC "-//W3C//DTD SVG 1.1//EN" "http://www.w3.org/Graphics/SVG/1.1/DTD/svg11.dtd">
<svg version="1.1" id="Layer_1" xmlns="http://www.w3.org/2000/svg" xmlns:xlink="http://www.w3.org/1999/xlink" x="0px" y="0px"
	 width="148.979px" height="151.701px" viewBox="0 0 148.979 151.701" enable-background="new 0 0 148.979 151.701"
	 xml:space="preserve">
<g>
	<path fill="#663300" d="M114.979,103.3c8.15-3.193,16.553-1.203,18.767,4.445c2.211,5.648-2.603,12.816-10.755,16.01
		c-8.151,3.194-16.554,1.203-18.767-4.445C102.011,113.661,106.828,106.492,114.979,103.3z"/>
	<path fill="#663300" d="M131.113,65.771c8.005-1.617,15.405,1.568,16.527,7.115c1.119,5.549-4.46,11.357-12.466,12.977
		s-15.406-1.566-16.527-7.115C117.525,73.2,123.107,67.391,131.113,65.771z"/>
	<path fill="#996633" d="M147.023,72.616c1.121,5.547-4.461,11.358-12.466,12.977c-4.572,0.924-8.945,0.279-12.066-1.476
		c3.081,2.677,8.333,3.862,13.879,2.742c8.008-1.618,13.586-7.429,12.467-12.976c-0.481-2.379-2.119-4.323-4.462-5.64
		C145.739,69.431,146.68,70.912,147.023,72.616z"/>
	<path fill="#996633" d="M132.977,108.653c1.304,6.463-5.197,13.23-14.525,15.118c-5.328,1.077-10.423,0.325-14.057-1.72
		c3.587,3.121,9.708,4.502,16.168,3.195c9.328-1.886,15.83-8.653,14.525-15.118c-0.562-2.771-2.47-5.034-5.199-6.569
		C131.48,104.942,132.573,106.667,132.977,108.653z"/>
	<path fill="#003366" d="M93.602,41.63c-14.456-5.443-32.454,6.816-40.194,27.38c-7.742,20.565-2.3,41.647,12.157,47.088
		c4.895,1.844,10.192,1.655,15.363-0.194l29.951,13.114c0,0,6.929-5.014,10.097-13.332c3.17-8.315,2.252-14.871,2.252-14.871
		l-19.039-8.337c0.563-1.219,1.085-2.472,1.57-3.76c1.2-3.187,2.083-6.384,2.664-9.534L128,87.757c0,0,5.662-4.826,8.253-11.283
		c2.591-6.456,2.182-12.551,2.182-12.551l-35.899-15.719C100.138,45.233,97.14,42.962,93.602,41.63z"/>
	<path fill="#000033" d="M81.754,112.116c-6.361,3.406-13.08,4.417-19.093,2.381c0.488,0.266,0.986,0.514,1.503,0.74
		c6.396,2.801,13.739,1.928,20.655-1.777L81.754,112.116z"/>
	<g>
		<path fill="#000033" d="M107.008,54.421c-2.336-5.347-6.084-9.498-11.097-11.691c-0.517-0.226-1.036-0.424-1.563-0.602
			c4.26,2.319,7.485,6.154,9.582,10.946L107.008,54.421z"/>
		<path fill="#000033" d="M106.741,68.745c-0.148,6.363-1.627,13.209-4.57,19.93c-1.138,2.596-2.439,5.039-3.868,7.321l3.07,1.346
			c1.429-2.282,2.729-4.729,3.864-7.325c2.94-6.718,4.425-13.567,4.572-19.93L106.741,68.745z"/>
	</g>
	<path fill="#CCCCCC" d="M68.751,151.701"/>
	<path fill="#99CCFF" d="M78.248,18.634c0,0-13.701,1.537-17.098,1.674c-0.727,0.031-1.783-0.036-2.994-0.154
		c-3.093-0.945-10.974-1.268-10.974-1.268c-10.598,0.726-20.337,7.001-24.789,17.176c-0.269,0.613-0.503,1.23-0.728,1.851
		C14.6,40.57,8.623,45.887,5.403,53.239c-3.889,8.885-2.858,18.709,1.893,26.572c-5.622,14.557,3.515,32.164,20.874,39.765
		c17.759,7.776,37.388,2.13,43.845-12.612c0.647-1.483,1.134-3.003,1.474-4.544c3.133-2.655,5.858-6.257,7.751-10.579
		c4.991-11.401,10.689-34.146,13.526-40.625c3.241-7.402,0.327-11.775-17.284-14.479L78.248,18.634z"/>
	<path fill="#333333" d="M25.322,86.35"/>
	<path fill="#3399CC" d="M36.889,91.829c3.859,1.453,10.694,1.25,14.264-0.146c3.57-1.394,6.281-2.455,6.281-2.455
		s-12.646-1.414-16.286-3.344c-8.645-4.586-13.792-2.016-14.27-0.924C26.398,86.052,33.026,90.375,36.889,91.829z"/>
	<path fill="#3399CC" d="M54.718,30.564c0,0,9.492,4.276,13.946,4.91c4.455,0.631,8.914,1.266,8.914,1.266l0.202-6.479
		c0,0-7.75,1.008-10.648,0.874C64.235,31.001,54.718,30.564,54.718,30.564z"/>
	<path fill="#3399CC" d="M31.823,111.234c-13.817-6.05-22.417-18.44-22.518-30.585l-2.042-0.896
		c0.011,0.019,0.022,0.038,0.032,0.058c-5.623,14.557,3.516,32.164,20.874,39.765c11.008,4.818,22.729,4.478,31.591,0.017
		l3.652-8.342C54.554,115.716,42.829,116.054,31.823,111.234z"/>
	<path fill="#3399CC" d="M30.686,58.129l6.646-13.163c0,0-10.189-4.985-16.216-4.374c-6.025,0.611-5.11,10.125-5.11,10.125
		L30.686,58.129z"/>
	<path fill="#99CCFF" d="M29.37,58.974l6.645-13.163c0,0-10.189-4.984-16.216-4.375c-6.026,0.611-5.11,10.126-5.11,10.126
		L29.37,58.974z"/>
	<circle fill="#3399CC" cx="59.897" cy="61.968" r="2.24"/>
	<path fill="#3399CC" d="M75.966,64.191c1.135,0.497,1.65,1.818,1.155,2.952c-0.495,1.132-1.818,1.649-2.951,1.153
		c-1.132-0.497-1.649-1.818-1.153-2.95C73.512,64.212,74.834,63.695,75.966,64.191z"/>
	<circle fill="#3399CC" cx="44.853" cy="56.327" r="2.24"/>
	<path fill="#3399CC" d="M30.503,58.684l-5.635,15.945c0,0-12.211-4.488-16.483-9.964c-4.274-5.478,4.334-12.266,4.334-12.266
		L30.503,58.684z"/>
	<path fill="#99CCFF" d="M29.814,57.014L24.18,72.959c0,0-12.212-4.486-16.484-9.963c-4.274-5.477,4.333-12.267,4.333-12.267
		L29.814,57.014z"/>
	<polygon fill="#3399CC" points="87.187,75.877 86.604,77.21 19.271,55.302 18.887,54.019 	"/>
	<polygon fill="#FFCC99" points="30.216,58.117 0,80.074 20.928,32.274 	"/>
	
		<radialGradient id="SVGID_1_" cx="3151.1553" cy="3984.9414" r="24.5146" gradientTransform="matrix(0.4011 -0.916 -0.916 -0.4011 2463.356 4582.9575)" gradientUnits="userSpaceOnUse">
		<stop  offset="0" style="stop-color:#F9D8B7"/>
		<stop  offset="1" style="stop-color:#FFCC99"/>
	</radialGradient>
	<path fill="url(#SVGID_1_)" d="M80.854,81.196c-0.233,0.282-0.455,0.572-0.659,0.869c-0.438-1.859-1.352-3.471-2.761-4.65
		c-2.008-1.682-4.695-2.224-7.566-1.765c-3.316-0.064-6.65,1.335-8.969,4.101c-0.344,0.408-6.398,8.967-7.051,11.99
		c-5.149,7.904,2.223,23.308,2.964,23.697c3.264,3.934,10.777,6.51,19.423,6.195c4.442-0.162,8.531-1.064,11.861-2.467
		c2.488-0.477,4.848-1.793,6.615-3.9c3.072-3.669,3.47-8.674,1.385-12.604c0.523-1.801,0.594-3.688,0.22-5.488
		c0.597-0.475,1.156-1.015,1.665-1.625c4.027-4.807,3.462-11.917-1.267-15.881C91.983,75.706,84.883,76.39,80.854,81.196z"/>
	<path fill="#CC9966" d="M97.882,83.187c1.224,4.361,2.927,7.911-2.562,12.636c-0.228,0.159-0.291,0.337-0.712,0.585
		c-1.547,1.225-3.571,2.53-6.211,3.95c5.694-1.626,2.576-0.766,6.364-1.83c0.278-0.077,0.544-0.17,0.806-0.27
		c0.463,1.015,0.714,2.028,0.291,3.271c-0.131,0.974-0.924,1.706-1.234,2.095c-0.693,0.857-1.666,1.821-3.021,2.938
		c2.788-1.429,1.26-0.661,3.117-1.603c0.088-0.045,0.168-0.098,0.252-0.146c1.359,4.806,1.628,9.087-9.919,15.433
		c5.62-1.607,2.623-0.873,6.362-1.925c5.577-1.569,7.581-7.729,5.948-13.534c-0.173-0.61-0.392-1.194-0.653-1.75
		c0.826-1.531,0.787-3.508-0.016-5.293c4.177-2.289,5.613-7.533,4.221-12.48c-0.881-3.141-3.085-5.551-5.84-6.802
		C96.369,79.72,97.359,81.325,97.882,83.187z"/>
	<path fill="#CC9966" d="M77.562,83.948c-1.104-0.257-2.166-0.436-3.188-0.33c0.724,0.412,1.658,0.848,2.573,1.18
		c-1.197,1.639-2.414,3.142-2.899,4.826c1.044-0.83,2.341-2.098,3.133-3.231c0.302-0.428,0.606-0.843,0.928-1.236
		c0.03,0.009,0.398-0.489,0.775-0.878c2.16-2.226,5.083-3.414,10.57-1.84c-2.268-1.562-1.041-0.691-2.538-1.74
		C84.717,79.161,80.006,80.625,77.562,83.948z"/>
	<path fill="#CC9966" d="M60.228,118.323c2.941,1.607,11.007,4.226,13.86,3.184c-1.836,0.012-8.284-3.281-10.029-4.236
		c-5.287-2.895-9.179-8.117-11.883-16.717C50.693,107.004,54.938,115.428,60.228,118.323z"/>
	
		<radialGradient id="SVGID_2_" cx="3228.6875" cy="3999.4385" r="21.5072" gradientTransform="matrix(0.4011 -0.916 -0.916 -0.4011 2463.356 4582.9575)" gradientUnits="userSpaceOnUse">
		<stop  offset="0" style="stop-color:#F9D8B7"/>
		<stop  offset="1" style="stop-color:#FFCC99"/>
	</radialGradient>
	<path fill="url(#SVGID_2_)" d="M101.568,0.915C96.45-1.327,90.475,0.692,87.176,5.427c-0.25-0.185-0.515-0.344-0.8-0.469
		c-3.802-1.663-9.406,2.754-12.522,9.87c-1.324,3.023-1.981,6.044-2.013,8.65c-1.774,5.437,2.104,12.032,9.039,15.069
		c0.528,0.231,1.061,0.433,1.591,0.609c0.399,0.231,0.814,0.444,1.247,0.633c5.667,2.481,12.096,0.431,14.812-4.567
		c6.437,2.575,13.585,0.066,16.132-5.748c1.818-4.152,0.802-8.887-2.207-12.343c0.377-0.489,0.7-1.029,0.96-1.617
		c1.74-3.978-0.144-8.646-4.21-10.427c-1.065-0.466-2.173-0.686-3.261-0.688C104.833,2.913,103.355,1.698,101.568,0.915z"/>
	<path fill="#CC9966" d="M111.604,6.674c2.926,3.359,1.563,9.332-3.043,13.343c-3.895,3.391-8.857,4.292-12.067,2.46
		c2.996,3.117,8.931,2.528,13.435-1.394c4.606-4.01,5.97-9.984,3.045-13.343c-0.453-0.521-0.98-0.945-1.568-1.281
		C111.473,6.529,111.54,6.6,111.604,6.674z"/>
	<path fill="#CC9966" d="M103.368,2.125c3.002,3.29,1.778,9.294-2.731,13.412c-1.756,1.603-3.751,2.677-5.712,3.205
		c0.274,0.392,0.521,0.791,0.747,1.192c2.163-0.45,4.409-1.583,6.358-3.363c4.51-4.117,5.733-10.121,2.729-13.411
		c-0.463-0.509-1.002-0.922-1.597-1.243C103.231,1.983,103.302,2.053,103.368,2.125z"/>
	<path fill="#CC9966" d="M110.338,32.365c-1.416,1.261-2.978,2.193-4.549,2.799c0.008-0.012,0.017-0.024,0.025-0.038
		c-0.017,0.018-0.034,0.031-0.052,0.048c-1.411,0.541-2.829,0.811-4.165,0.807c-1.442-0.374-2.918-1.288-4.104-2.673
		c-1.285-1.501-1.974-3.251-2.036-4.833c-0.181,0.206-0.373,0.399-0.589,0.57c-0.026,0.021-0.053,0.034-0.078,0.053
		c0.005,1.637,0.698,3.478,2.041,5.046c0.486,0.567,1.02,1.053,1.583,1.458c0.754,0.592,1.639,1.002,2.605,1.238
		c0.017,0.005,0.034,0.01,0.05,0.014c3.231,0.763,7.363-0.422,10.705-3.396c4.752-4.224,6.103-10.46,3.021-13.923
		c-0.478-0.535-1.032-0.972-1.649-1.315c0.072,0.071,0.144,0.146,0.212,0.222C116.441,21.905,115.088,28.139,110.338,32.365z"/>
	<path fill="#CC9966" d="M84.796,4.807l8.069,12.988l0.03,0.047c0.368,0.511,0.701,1.048,0.992,1.592l0.236,0.471
		c1.183,2.465,1.425,4.992,0.651,6.76c-0.268,0.612-0.654,1.121-1.146,1.507c-1.169,0.928-2.856,1.096-4.748,0.479
		c-2.018-0.658-3.99-2.113-5.559-4.097c-1.056-1.333-1.839-2.818-2.294-4.308l-0.991,2.264c0.501,1.086,1.149,2.141,1.924,3.12
		c1.778,2.25,4.042,3.909,6.381,4.671c2.463,0.804,4.721,0.532,6.362-0.766c0.719-0.565,1.274-1.297,1.658-2.173
		c0.909-2.074,0.776-4.768-0.353-7.483l0.138-0.083l-0.744-1.2c-0.316-0.596-0.682-1.179-1.082-1.739L87.33,5.602
		c-0.236-0.175-0.491-0.327-0.765-0.447C86.01,4.911,85.416,4.801,84.796,4.807z"/>
	<path fill="#CC9966" d="M89.055,10.771l1.629,1.396c-0.031-4.692,2.049-8.719,5.181-10.212
		C92.279,2.527,89.617,6.151,89.055,10.771z"/>
	<path fill="#CC9966" d="M91.383,29.27c-3.396,4.016-7.602,5.95-10.258,4.949c2.456,2.271,7.523,0.382,11.468-4.335
		c0.017-0.021,0.033-0.041,0.052-0.062L91.383,29.27z"/>
</g>
</svg>
