<?xml version="1.0" encoding="utf-8"?>
<!-- Generator: Adobe Illustrator 16.0.0, SVG Export Plug-In . SVG Version: 6.00 Build 0)  -->
<!DOCTYPE svg PUBLIC "-//W3C//DTD SVG 1.1//EN" "http://www.w3.org/Graphics/SVG/1.1/DTD/svg11.dtd">
<svg version="1.1" id="Layer_1" xmlns="http://www.w3.org/2000/svg" xmlns:xlink="http://www.w3.org/1999/xlink" x="0px" y="0px"
	 width="100px" height="100px" viewBox="0 0 100 100" enable-background="new 0 0 100 100" xml:space="preserve">
<g id="Crumpled_Beer_Can">
	<g>
		<path fill="#808080" d="M43.35,0.826c-0.436-1.77-10.491-0.603-22.458,2.613C8.926,6.652-0.422,10.689,0.014,12.459L3.743,39.37
			L47.368,8.795L43.35,0.826z"/>
		<path fill="#CBCBCB" d="M44.72,3.565C44.277,1.832,34,2.975,21.771,6.122C9.543,9.27-0.008,13.224,0.436,14.958l3.81,26.356
			l44.583-29.947L44.72,3.565z"/>
		<polygon fill="#E5E5E5" points="55.102,5.753 4.246,41.315 59.187,49.617 		"/>
		<path fill="#E5E5E5" d="M63.525,42.877l5.224-2.879c1.296-3.785,2.061-8.428,2.061-13.448c0-5.021-0.763-9.663-2.061-13.45
			l-4.051-4.217l-2.17-4.701c-0.861-0.458-1.76-0.7-2.688-0.7c-0.024,0-0.374,0.002-0.396,0.002l-0.342-0.002v0.004
			c-5.405,0.095-10.56,10.38-10.56,23.063c0,12.74,5.078,23.067,11.134,23.067c0.236,0,0.552-0.022,0.783-0.054l0.044,0.054
			l0.354-0.107c0.414-0.08,0.832-0.209,1.229-0.384L63.525,42.877z"/>
		<ellipse fill="#808080" cx="61.785" cy="26.39" rx="11.402" ry="22.795"/>
		<path fill="#B2B2B2" d="M63.429,5.265c5.362,0,9.709,9.458,9.709,21.125c0,11.667-4.347,21.124-9.709,21.124
			c-5.358,0-9.705-9.457-9.705-21.124C53.724,14.723,58.07,5.265,63.429,5.265z"/>
		<ellipse fill="#333333" cx="63.525" cy="35.352" rx="3.458" ry="7.525"/>
		<path fill="#1A1A1A" d="M60.142,33.808c-0.048,0.5-0.072,1.015-0.072,1.543c0,4.156,1.547,7.526,3.456,7.526
			c1.115,0,2.106-1.158,2.737-2.947L60.142,33.808z"/>
		<path fill="#EC1C24" d="M51.482,16.613L11.364,42.389l9.795,1.482l29.245-18.8C50.489,22.059,50.866,19.202,51.482,16.613z"/>
		<path fill="#1B1464" d="M41.685,34.029v-0.374c0-5.768-4.112-10.586-9.509-11.816L16.778,32.429
			c-0.041,0.404-0.317,0.813-0.317,1.226v0.374c0,4.145,2.297,7.8,5.467,9.99l10.937,1.623
			C37.858,44.14,41.685,39.512,41.685,34.029z"/>
	</g>
</g>
<g id="Health_Gauge_2">
</g>
</svg>
